<svg width="44" height="43" viewBox="0 0 44 43" fill="none" xmlns="http://www.w3.org/2000/svg">
<rect width="44" height="43" rx="8" fill="#50B57F"/>
<path d="M23.6704 29.8333L22.0037 31.5L14.2259 23.7222C12.5592 22.1111 10.8926 20.1667 10.8926 17.6111C10.8926 15.9903 11.5364 14.436 12.6825 13.2899C13.8285 12.1438 15.3829 11.5 17.0037 11.5C18.9592 11.5 20.337 12.0556 22.0037 13.7222C23.6704 12.0556 25.0481 11.5 27.0037 11.5C27.8997 11.501 28.7846 11.6991 29.5956 12.0802C30.4066 12.4612 31.1238 13.016 31.6966 13.7051C32.2693 14.3943 32.6834 15.2009 32.9097 16.0679C33.136 16.9349 33.1688 17.8411 33.0059 18.7222M25.337 24.8333H32.0037M28.6704 21.5V28.1667" stroke="#F8F8F8" stroke-width="2" stroke-linecap="round" stroke-linejoin="round"/>
</svg>
