<svg width="104" height="60" viewBox="0 0 104 60" fill="none" xmlns="http://www.w3.org/2000/svg">
<g clip-path="url(#clip0_1289_3280)">
<path d="M52.0001 11.3271C47.6923 8.16483 42.5187 6.16161 36.9026 5.74902L44.6033 19.1364C46.5821 16.0936 49.0984 13.4579 52.0028 11.3271H52.0001Z" fill="url(#paint0_linear_1289_3280)"/>
<path d="M59.3995 19.1364L67.1003 5.74902C61.4842 6.16161 56.3106 8.16483 52.0028 11.3271C54.9072 13.4579 57.4235 16.0963 59.4022 19.1364H59.3995Z" fill="url(#paint1_linear_1289_3280)"/>
<path d="M44.6033 19.1365L52.0027 32L59.4022 19.1365C57.4234 16.0936 54.9071 13.4579 52.0027 11.3271C49.0983 13.4579 46.5821 16.0963 44.6033 19.1365Z" fill="url(#paint2_linear_1289_3280)"/>
<path d="M52.0001 7.79031C53.5951 7.79031 54.8882 6.04639 54.8882 3.89516C54.8882 1.74392 53.5951 0 52.0001 0C50.405 0 49.1119 1.74392 49.1119 3.89516C49.1119 6.04639 50.405 7.79031 52.0001 7.79031Z" fill="url(#paint3_linear_1289_3280)"/>
</g>
<g clip-path="url(#clip1_1289_3280)">
<path d="M10.7181 47.6706C10.6653 46.2118 10.6102 44.4475 10.6102 42.6832H10.5734C10.1783 44.2316 9.67289 45.9591 9.20425 47.3811L7.72711 52.1158H5.58376L4.2881 47.434C3.89297 45.9936 3.49554 44.266 3.19 42.6809H3.15325C3.10041 44.3189 3.0269 46.1911 2.95568 47.705L2.72136 52.3134H0.185181L0.959359 40.1792H4.61431L5.802 44.2293C6.19713 45.6329 6.5578 47.1468 6.82887 48.5688H6.90009C7.224 47.1652 7.63751 45.5617 8.05332 44.2109L9.3306 40.1792H12.9304L13.5782 52.3134H10.9134L10.7158 47.6683L10.7181 47.6706Z" fill="#0088B1"/>
<path d="M22.9052 47.1836H18.4393V50.0643H23.4267V52.3157H15.7032V40.1792H23.174V42.4305H18.4393V44.9506H22.9052V47.1836Z" fill="#0088B1"/>
<path d="M25.3011 40.3604C26.3096 40.1973 27.6237 40.0894 28.9929 40.0894C31.3154 40.0894 32.827 40.5212 33.9802 41.385C35.2414 42.3223 36.0317 43.8155 36.0317 45.9589C36.0317 48.2814 35.1863 49.8826 34.0331 50.8727C32.7558 51.9341 30.7916 52.4395 28.4162 52.4395C26.9942 52.4395 25.9674 52.3499 25.3011 52.2603V40.3604ZM28.0372 50.2433C28.2715 50.2984 28.6666 50.2984 28.9906 50.2984C31.4923 50.3168 33.1325 48.9476 33.1325 46.0485C33.1325 43.5284 31.6554 42.1959 29.28 42.1959C28.685 42.1959 28.2715 42.2488 28.0372 42.3039V50.2433Z" fill="#0088B1"/>
<path d="M40.5849 40.1792V52.3134H37.8489V40.1792H40.5849Z" fill="#0088B1"/>
<path d="M45.8249 52.3134L41.9357 40.1792H44.9428L46.4199 45.3113C46.8334 46.7701 47.2125 48.1369 47.4996 49.6508H47.5548C47.8603 48.1921 48.2394 46.7517 48.6529 45.3664L50.2012 40.1815H53.1188L49.0319 52.3157H45.8272L45.8249 52.3134Z" fill="#0088B1"/>
<path d="M61.6325 47.1836H57.1666V50.0643H62.1539V52.3157H54.4305V40.1792H61.9012V42.4305H57.1666V44.9506H61.6325V47.1836Z" fill="#0088B1"/>
<path d="M64.0262 40.3421C64.9084 40.1973 66.204 40.0894 67.6812 40.0894C69.4822 40.0894 70.7411 40.3604 71.6049 41.0427C72.3423 41.6193 72.7397 42.4831 72.7397 43.5996C72.7397 45.1296 71.6417 46.1932 70.5964 46.5699V46.6251C71.4418 46.9674 71.9104 47.7599 72.216 48.8764C72.595 50.2617 72.9534 51.8468 73.1877 52.3154H70.3782C70.199 51.9547 69.8911 50.983 69.5511 49.4898C69.2089 47.9598 68.6874 47.5624 67.5525 47.5463H66.7416V52.3177H64.0239V40.3421H64.0262ZM66.7462 45.5637H67.8259C69.1951 45.5637 70.0037 44.8792 70.0037 43.8178C70.0037 42.7565 69.2479 42.1431 67.9867 42.1431C67.3205 42.1431 66.9415 42.1799 66.7439 42.2327V45.5637H66.7462Z" fill="#0088B1"/>
<path d="M74.7934 49.4877C75.5125 49.8668 76.6657 50.2435 77.835 50.2435C79.0962 50.2435 79.7624 49.722 79.7624 48.9295C79.7624 48.1369 79.1858 47.7418 77.7271 47.2364C75.7101 46.5173 74.3776 45.4009 74.3776 43.6366C74.3776 41.5667 76.1236 40 78.9676 40C80.3528 40 81.343 40.2711 82.0643 40.6111L81.4509 42.8073C80.9823 42.5729 80.1001 42.2306 78.9308 42.2306C77.7615 42.2306 77.1665 42.7889 77.1665 43.4C77.1665 44.1741 77.8327 44.5164 79.4178 45.1114C81.5612 45.904 82.5513 47.0204 82.5513 48.7296C82.5513 50.765 81.003 52.4925 77.6719 52.4925C76.2844 52.4925 74.9175 52.1135 74.2329 51.7367L74.7912 49.4854L74.7934 49.4877Z" fill="#0088B1"/>
<path d="M87.2515 49.2006L86.3878 52.3157H83.5621L87.2515 40.1792H90.8514L94.6327 52.3134H91.6623L90.725 49.1983H87.2515V49.2006ZM90.3299 47.1468L89.5741 44.5716C89.3581 43.8525 89.1422 42.952 88.963 42.2307H88.9263C88.7471 42.9497 88.5656 43.8686 88.368 44.5716L87.649 47.1468H90.3322H90.3299Z" fill="#0088B1"/>
<path d="M96.2523 40.1792H98.9883V50.0092H103.813V52.3134H96.25V40.1792H96.2523Z" fill="#0088B1"/>
<path d="M14.3869 58.7228H13.4932L14.2513 55.1092H12.9786L13.1303 54.3833H16.5486L16.397 55.1092H15.1427L14.3869 58.7228Z" fill="#0088B1"/>
<path d="M16.6956 55.5797H17.4881L17.3618 56.1885C17.6581 55.7336 17.9775 55.5039 18.3244 55.5039C18.4461 55.5039 18.5771 55.5338 18.7172 55.5958L18.391 56.2919C18.3152 56.2643 18.2325 56.2505 18.1452 56.2505C17.9981 56.2505 17.8511 56.3057 17.6995 56.4159C17.5479 56.5262 17.4307 56.6732 17.3457 56.8593C17.2607 57.0431 17.178 57.3371 17.0953 57.7369L16.8886 58.7224H16.0386L16.6956 55.5797Z" fill="#0088B1"/>
<path d="M19.0963 55.5801H19.9463L19.558 57.4409C19.5098 57.6637 19.4868 57.8038 19.4868 57.859C19.4868 57.9509 19.5213 58.0267 19.5879 58.0933C19.6545 58.1599 19.7418 58.1921 19.8452 58.1921C19.921 58.1921 19.9945 58.1783 20.068 58.1484C20.1415 58.1186 20.215 58.0772 20.2931 58.0175C20.369 57.96 20.4402 57.8934 20.4999 57.8176C20.5619 57.7418 20.6194 57.643 20.6722 57.5213C20.709 57.4317 20.7503 57.2824 20.794 57.0779L21.1087 55.5801H21.9587L21.3016 58.7227H20.5091L20.5987 58.2977C20.2518 58.6308 19.8727 58.7985 19.4661 58.7985C19.2065 58.7985 19.0044 58.725 18.8574 58.5757C18.7103 58.4287 18.6345 58.2288 18.6345 57.9807C18.6345 57.8727 18.669 57.6568 18.7356 57.3329L19.1032 55.5801H19.0963Z" fill="#0088B1"/>
<path d="M22.0367 57.8452L22.8591 57.7142C22.9326 57.8888 23.0222 58.0106 23.1325 58.0818C23.2405 58.153 23.3898 58.1898 23.5759 58.1898C23.7619 58.1898 23.9251 58.1461 24.0399 58.0588C24.1203 57.9991 24.1617 57.9279 24.1617 57.8429C24.1617 57.7854 24.141 57.7349 24.0996 57.6889C24.056 57.6453 23.9388 57.5925 23.7482 57.5281C23.2359 57.3581 22.9166 57.2249 22.7948 57.1261C22.6041 56.9722 22.5076 56.77 22.5076 56.5219C22.5076 56.2738 22.5995 56.0602 22.7856 55.8787C23.0429 55.6283 23.4288 55.502 23.9365 55.502C24.3409 55.502 24.6464 55.5755 24.8531 55.7248C25.0599 55.8718 25.1908 56.074 25.246 56.3267L24.4603 56.4622C24.419 56.3473 24.3523 56.2623 24.2582 56.2049C24.1318 56.1291 23.9802 56.0901 23.8033 56.0901C23.6264 56.0901 23.4978 56.1199 23.4197 56.1796C23.3415 56.2394 23.3025 56.306 23.3025 56.3841C23.3025 56.4622 23.3415 56.5288 23.422 56.5794C23.4702 56.6115 23.631 56.6667 23.8975 56.7448C24.311 56.8642 24.589 56.9837 24.7291 57.1009C24.9267 57.264 25.0254 57.4615 25.0254 57.6935C25.0254 57.9922 24.9014 58.2495 24.6487 58.47C24.396 58.6906 24.0445 58.7985 23.5897 58.7985C23.1348 58.7985 22.7856 58.7158 22.5375 58.5481C22.2894 58.3804 22.1217 58.1461 22.0321 57.8452H22.0367Z" fill="#0088B1"/>
<path d="M25.7308 56.2115L25.8618 55.5821H26.2753L26.3786 55.079L27.3527 54.4932L27.1253 55.5821H27.6421L27.5112 56.2115H26.9897L26.714 57.5279C26.6658 57.7668 26.6405 57.9023 26.6405 57.9368C26.6405 58.0011 26.6612 58.0516 26.7026 58.0884C26.7439 58.1251 26.8197 58.1435 26.9277 58.1435C26.9644 58.1435 27.0586 58.1366 27.208 58.1228L27.0747 58.7523C26.9277 58.7822 26.7784 58.7959 26.6244 58.7959C26.3235 58.7959 26.1076 58.7385 25.9697 58.6236C25.8319 58.5088 25.7653 58.348 25.7653 58.1435C25.7653 58.047 25.802 57.8242 25.8755 57.475L26.1397 56.2115H25.7285H25.7308Z" fill="#0088B1"/>
<path d="M31.2189 56.5815C31.2189 56.825 31.1339 57.0317 30.9639 57.2017C30.7939 57.3717 30.5872 57.4567 30.346 57.4567C30.1047 57.4567 29.8957 57.3717 29.7257 57.1994C29.5557 57.0271 29.4707 56.8227 29.4707 56.5815C29.4707 56.3402 29.5557 56.1358 29.7257 55.9635C29.8957 55.7935 30.1024 55.7085 30.346 55.7085C30.5895 55.7085 30.7916 55.7935 30.9639 55.9635C31.1339 56.1335 31.2189 56.3402 31.2189 56.5815Z" fill="#0088B1"/>
<path d="M34.9221 58.7228H34.0285L34.7866 55.1092H33.5139L33.6655 54.3833H37.0839L36.9322 55.1092H35.6779L34.9221 58.7228Z" fill="#0088B1"/>
<path d="M37.2309 55.5797H38.0234L37.8971 56.1885C38.1934 55.7336 38.5127 55.5039 38.8596 55.5039C38.9814 55.5039 39.1123 55.5338 39.2525 55.5958L38.9263 56.2919C38.8504 56.2643 38.7677 56.2505 38.6805 56.2505C38.5334 56.2505 38.3864 56.3057 38.2348 56.4159C38.0832 56.5262 37.966 56.6732 37.881 56.8593C37.796 57.0431 37.7133 57.3371 37.6306 57.7369L37.4238 58.7224H36.5739L37.2309 55.5797Z" fill="#0088B1"/>
<path d="M40.1783 56.4712L39.349 56.4C39.4432 56.1197 39.6086 55.9015 39.8452 55.743C40.0818 55.5845 40.3943 55.5063 40.7825 55.5063C41.1707 55.5063 41.4855 55.5868 41.6784 55.7499C41.8714 55.913 41.9679 56.1105 41.9679 56.3471C41.9679 56.4413 41.9587 56.5424 41.9426 56.6481C41.9265 56.7538 41.8668 57.034 41.7657 57.4889C41.683 57.8633 41.6417 58.1252 41.6417 58.2768C41.6417 58.4101 41.6647 58.5594 41.7129 58.7248H40.8882C40.8537 58.61 40.833 58.4928 40.8261 58.3687C40.7021 58.5066 40.5597 58.6123 40.3966 58.6858C40.2357 58.7593 40.0726 58.796 39.9072 58.796C39.6477 58.796 39.4317 58.711 39.2617 58.541C39.0917 58.371 39.0067 58.1505 39.0067 57.8817C39.0067 57.5808 39.1009 57.3419 39.287 57.1627C39.4731 56.9835 39.8062 56.8755 40.2863 56.8365C40.6906 56.802 40.9617 56.763 41.0972 56.7147C41.1317 56.5953 41.1501 56.5011 41.1501 56.4298C41.1501 56.3403 41.1133 56.2621 41.0398 56.2024C40.9663 56.1404 40.8583 56.1105 40.7136 56.1105C40.562 56.1105 40.4425 56.1427 40.3529 56.2047C40.2656 56.2667 40.2059 56.3563 40.1737 56.4689L40.1783 56.4712ZM40.987 57.2592C40.9364 57.2729 40.8675 57.2867 40.7825 57.2982C40.3552 57.3488 40.0772 57.4246 39.9486 57.5233C39.8567 57.5946 39.8085 57.691 39.8085 57.8105C39.8085 57.9093 39.8429 57.992 39.9141 58.0609C39.9853 58.1298 40.0795 58.162 40.1944 58.162C40.323 58.162 40.4425 58.1298 40.5574 58.0678C40.6722 58.0058 40.7549 57.9254 40.8124 57.8289C40.8698 57.7301 40.918 57.5785 40.9617 57.3717L40.9847 57.2592H40.987Z" fill="#0088B1"/>
<path d="M43.02 55.5799H43.824L43.7413 55.9888C43.9435 55.8142 44.1296 55.6924 44.3042 55.6166C44.4788 55.5431 44.6625 55.5063 44.8555 55.5063C45.1128 55.5063 45.3173 55.5799 45.4666 55.7292C45.6159 55.8762 45.6894 56.0738 45.6894 56.3173C45.6894 56.4276 45.6572 56.6366 45.5906 56.9444L45.2208 58.7225H44.3708L44.7429 56.9375C44.7981 56.6711 44.8256 56.5126 44.8256 56.462C44.8256 56.354 44.7935 56.269 44.7292 56.207C44.6648 56.145 44.5752 56.1128 44.4604 56.1128C44.3363 56.1128 44.1985 56.1657 44.0469 56.269C43.8952 56.3747 43.7758 56.5126 43.6885 56.6825C43.6242 56.8043 43.5553 57.0547 43.4748 57.4315L43.2061 58.7225H42.3561L43.0131 55.5799H43.02Z" fill="#0088B1"/>
<path d="M45.9444 57.8452L46.7668 57.7142C46.8403 57.8888 46.9299 58.0106 47.0402 58.0818C47.1482 58.153 47.2975 58.1898 47.4836 58.1898C47.6697 58.1898 47.8328 58.1461 47.9476 58.0588C48.028 57.9991 48.0694 57.9279 48.0694 57.8429C48.0694 57.7854 48.0487 57.7349 48.0074 57.6889C47.9637 57.6453 47.8466 57.5925 47.6559 57.5281C47.1436 57.3581 46.8243 57.2249 46.7025 57.1261C46.5118 56.9722 46.4154 56.77 46.4154 56.5219C46.4154 56.2738 46.5072 56.0602 46.6933 55.8787C46.9506 55.6283 47.3343 55.502 47.8443 55.502C48.2486 55.502 48.5541 55.5755 48.7609 55.7248C48.9676 55.8718 49.0986 56.074 49.1537 56.3267L48.3703 56.4622C48.329 56.3473 48.2624 56.2623 48.1682 56.2049C48.0418 56.1291 47.8902 56.0901 47.7133 56.0901C47.5364 56.0901 47.4078 56.1199 47.3297 56.1796C47.2516 56.2394 47.2125 56.306 47.2125 56.3841C47.2125 56.4622 47.2516 56.5288 47.3297 56.5794C47.3779 56.6115 47.5387 56.6667 47.8052 56.7448C48.2187 56.8642 48.4967 56.9837 48.6368 57.1009C48.8344 57.264 48.9332 57.4615 48.9332 57.6935C48.9332 57.9922 48.8068 58.2495 48.5564 58.47C48.306 58.6906 47.9522 58.7985 47.4974 58.7985C47.0425 58.7985 46.6933 58.7158 46.4452 58.5481C46.1971 58.3804 46.0294 58.1461 45.9398 57.8452H45.9444Z" fill="#0088B1"/>
<path d="M50.0542 55.5797H50.8582L50.7893 55.9013C50.9616 55.7589 51.1224 55.6578 51.2717 55.5958C51.421 55.5338 51.5819 55.5039 51.7541 55.5039C52.0827 55.5039 52.3491 55.6165 52.549 55.8439C52.7489 56.0713 52.8499 56.409 52.8499 56.8593C52.8499 57.4267 52.6777 57.9046 52.3331 58.2951C52.0367 58.6282 51.6875 58.7959 51.2832 58.7959C50.8789 58.7959 50.5527 58.6282 50.339 58.2905L49.999 59.9216H49.149L50.0542 55.5797ZM50.5665 57.3831C50.5665 57.6289 50.6262 57.8173 50.7456 57.9528C50.8651 58.0883 51.0052 58.155 51.1683 58.155C51.3085 58.155 51.444 58.1044 51.5727 58.0033C51.7036 57.9023 51.8116 57.7323 51.8966 57.4979C51.9816 57.2636 52.0252 57.0431 52.0252 56.8432C52.0252 56.6089 51.9678 56.4274 51.8575 56.3034C51.745 56.1793 51.6025 56.115 51.4279 56.115C51.2671 56.115 51.1178 56.1724 50.9846 56.2873C50.8513 56.4021 50.7479 56.5721 50.6744 56.7973C50.6009 57.0224 50.5642 57.2177 50.5642 57.3854L50.5665 57.3831Z" fill="#0088B1"/>
<path d="M54.3248 56.4712L53.4955 56.4C53.5897 56.1197 53.7551 55.9015 53.9917 55.743C54.2283 55.5845 54.5407 55.5063 54.929 55.5063C55.3172 55.5063 55.6319 55.5868 55.8249 55.7499C56.0179 55.913 56.1144 56.1105 56.1144 56.3471C56.1144 56.4413 56.1052 56.5424 56.0891 56.6481C56.073 56.7538 56.0133 57.034 55.9122 57.4889C55.8295 57.8633 55.7882 58.1252 55.7882 58.2768C55.7882 58.4101 55.8111 58.5594 55.8594 58.7248H55.0347C55.0002 58.61 54.9795 58.4928 54.9726 58.3687C54.8486 58.5066 54.7061 58.6123 54.543 58.6858C54.3822 58.7593 54.2191 58.796 54.0537 58.796C53.7941 58.796 53.5782 58.711 53.4082 58.541C53.2382 58.371 53.1532 58.1505 53.1532 57.8817C53.1532 57.5808 53.2474 57.3419 53.4335 57.1627C53.6195 56.9835 53.9526 56.8755 54.4328 56.8365C54.8371 56.802 55.1082 56.763 55.2437 56.7147C55.2782 56.5953 55.2965 56.5011 55.2965 56.4298C55.2965 56.3403 55.2598 56.2621 55.1863 56.2024C55.1128 56.1404 55.0048 56.1105 54.8601 56.1105C54.7084 56.1105 54.589 56.1427 54.4994 56.2047C54.4121 56.2667 54.3524 56.3563 54.3202 56.4689L54.3248 56.4712ZM55.1334 57.2592C55.0829 57.2729 55.014 57.2867 54.929 57.2982C54.5017 57.3488 54.2237 57.4246 54.0951 57.5233C54.0032 57.5946 53.9549 57.691 53.9549 57.8105C53.9549 57.9093 53.9894 57.992 54.0606 58.0609C54.1318 58.1298 54.226 58.162 54.3409 58.162C54.4695 58.162 54.589 58.1298 54.7039 58.0678C54.8187 58.0058 54.9014 57.9254 54.9588 57.8289C55.0163 57.7301 55.0645 57.5785 55.1082 57.3717L55.1311 57.2592H55.1334Z" fill="#0088B1"/>
<path d="M57.1068 55.5797H57.8994L57.7731 56.1885C58.0694 55.7336 58.3887 55.5039 58.7356 55.5039C58.8574 55.5039 58.9883 55.5338 59.1284 55.5958L58.8022 56.2919C58.7264 56.2643 58.6437 56.2505 58.5564 56.2505C58.4094 56.2505 58.2624 56.3057 58.1108 56.4159C57.9591 56.5262 57.842 56.6732 57.757 56.8593C57.672 57.0431 57.5893 57.3371 57.5066 57.7369L57.2998 58.7224H56.4498L57.1068 55.5797Z" fill="#0088B1"/>
<path d="M61.9173 57.4152H59.7855C59.7855 57.4497 59.7832 57.475 59.7832 57.491C59.7832 57.7001 59.8429 57.8701 59.9623 57.9964C60.0818 58.1251 60.2265 58.1894 60.3988 58.1894C60.6814 58.1894 60.9019 58.0424 61.0581 57.7506L61.8185 57.877C61.6715 58.1825 61.4739 58.4122 61.2258 58.5662C60.9777 58.7201 60.6998 58.7959 60.3919 58.7959C59.9692 58.7959 59.6269 58.6626 59.3628 58.3939C59.0986 58.1274 58.9653 57.7736 58.9653 57.3325C58.9653 56.8915 59.0848 56.5193 59.3237 56.1839C59.6499 55.729 60.114 55.5039 60.7181 55.5039C61.1018 55.5039 61.4096 55.6234 61.6348 55.86C61.8622 56.0989 61.9748 56.4297 61.9748 56.8593C61.9748 57.0638 61.9541 57.2498 61.915 57.4129L61.9173 57.4152ZM61.2006 56.8961C61.2006 56.8593 61.2029 56.8294 61.2029 56.8111C61.2029 56.579 61.15 56.4044 61.0467 56.2873C60.9433 56.1701 60.8008 56.1127 60.6263 56.1127C60.4517 56.1127 60.2931 56.1793 60.1553 56.3102C60.0152 56.4435 59.921 56.6388 59.8728 56.8961H61.2006Z" fill="#0088B1"/>
<path d="M62.896 55.5799H63.7L63.6173 55.9888C63.8195 55.8142 64.0055 55.6924 64.1801 55.6166C64.3547 55.5431 64.5385 55.5063 64.7315 55.5063C64.9888 55.5063 65.1932 55.5799 65.3426 55.7292C65.4919 55.8762 65.5654 56.0738 65.5654 56.3173C65.5654 56.4276 65.5332 56.6366 65.4666 56.9444L65.0968 58.7225H64.2468L64.6189 56.9375C64.6741 56.6711 64.7016 56.5126 64.7016 56.462C64.7016 56.354 64.6695 56.269 64.6051 56.207C64.5408 56.145 64.4512 56.1128 64.3364 56.1128C64.2123 56.1128 64.0745 56.1657 63.9228 56.269C63.7712 56.3747 63.6518 56.5126 63.5645 56.6825C63.5002 56.8043 63.4312 57.0547 63.3508 57.4315L63.082 58.7225H62.2321L62.8891 55.5799H62.896Z" fill="#0088B1"/>
<path d="M68.0602 57.5396L68.8849 57.6728C68.7493 58.0404 68.5472 58.3183 68.2807 58.5113C68.0142 58.702 67.7064 58.7985 67.3549 58.7985C66.9552 58.7985 66.6359 58.679 66.4015 58.4401C66.1672 58.2012 66.05 57.8727 66.05 57.4546C66.05 57.1123 66.1213 56.7907 66.2637 56.4874C66.4061 56.1842 66.6198 55.9453 66.9069 55.7707C67.1941 55.5961 67.5065 55.5088 67.8488 55.5088C68.2187 55.5088 68.515 55.6053 68.7379 55.7982C68.9607 55.9912 69.0824 56.2462 69.11 56.5609L68.3014 56.6459C68.2807 56.4713 68.2279 56.3404 68.1406 56.2577C68.0533 56.175 67.9384 56.1336 67.796 56.1336C67.6329 56.1336 67.4789 56.1957 67.3365 56.3174C67.1941 56.4392 67.0861 56.623 67.0103 56.8665C66.9345 57.11 66.8954 57.3374 66.8954 57.5511C66.8954 57.7371 66.9414 57.8796 67.031 57.9806C67.1206 58.0817 67.2354 58.1323 67.371 58.1323C67.5065 58.1323 67.6375 58.084 67.7638 57.9852C67.8902 57.8865 67.9889 57.7394 68.0602 57.5419V57.5396Z" fill="#0088B1"/>
<path d="M69.5649 55.5801H70.4102L70.6239 57.1468C70.6767 57.5488 70.7066 57.8314 70.7135 57.9922C70.8238 57.6706 70.9754 57.3306 71.1683 56.9745L71.9196 55.5801H72.8201L70.8789 59.0306C70.7181 59.3177 70.594 59.5176 70.5021 59.6325C70.4102 59.7473 70.3 59.8369 70.1713 59.9012C70.0427 59.9656 69.8865 60 69.705 60C69.5235 60 69.3236 59.9679 69.0985 59.9058L69.172 59.2718C69.2754 59.3016 69.3742 59.3154 69.4707 59.3154C69.7303 59.3154 69.9462 59.1179 70.1116 58.7227L69.5649 55.5801Z" fill="#0088B1"/>
<path d="M76.3533 56.5815C76.3533 56.825 76.2683 57.0317 76.096 57.2017C75.926 57.3717 75.7193 57.4567 75.478 57.4567C75.2368 57.4567 75.0278 57.3717 74.8578 57.1994C74.6878 57.0271 74.6028 56.8227 74.6028 56.5815C74.6028 56.3402 74.6878 56.1358 74.8578 55.9635C75.0278 55.7935 75.2345 55.7085 75.478 55.7085C75.7216 55.7085 75.9237 55.7935 76.096 55.9635C76.266 56.1335 76.3533 56.3402 76.3533 56.5815Z" fill="#0088B1"/>
<path d="M81.3108 57.1605L82.2114 57.296C82.0368 57.783 81.7726 58.1552 81.4211 58.4125C81.0696 58.6698 80.6584 58.7984 80.1875 58.7984C79.6568 58.7984 79.241 58.6376 78.9423 58.3183C78.6437 57.999 78.4944 57.5349 78.4944 56.9285C78.4944 56.4345 78.5955 55.9843 78.7953 55.5754C78.9952 55.1665 79.2732 54.8517 79.6292 54.6358C79.9853 54.4198 80.3712 54.3096 80.7894 54.3096C81.258 54.3096 81.6393 54.4359 81.9288 54.6863C82.2182 54.939 82.3882 55.2813 82.4411 55.7155L81.5865 55.7982C81.5383 55.5455 81.4487 55.3617 81.3131 55.2492C81.1776 55.1366 80.9984 55.0792 80.7733 55.0792C80.5275 55.0792 80.2954 55.155 80.0818 55.3043C79.8682 55.4536 79.6959 55.6879 79.5672 56.0072C79.4386 56.3266 79.3742 56.6436 79.3742 56.9629C79.3742 57.3098 79.4569 57.5786 79.6246 57.767C79.7923 57.9553 79.9991 58.0518 80.2472 58.0518C80.4769 58.0518 80.6906 57.976 80.8812 57.8267C81.0742 57.6774 81.2166 57.4545 81.3131 57.1605H81.3108Z" fill="#0088B1"/>
<path d="M83.739 56.4712L82.9097 56.4C83.0039 56.1197 83.1693 55.9015 83.4059 55.743C83.6425 55.5845 83.9549 55.5063 84.3432 55.5063C84.7314 55.5063 85.0461 55.5868 85.2391 55.7499C85.4321 55.913 85.5286 56.1105 85.5286 56.3471C85.5286 56.4413 85.5194 56.5424 85.5033 56.6481C85.4872 56.7538 85.4275 57.034 85.3264 57.4889C85.2437 57.8633 85.2023 58.1252 85.2023 58.2768C85.2023 58.4101 85.2253 58.5594 85.2736 58.7248H84.4488C84.4144 58.61 84.3937 58.4928 84.3868 58.3687C84.2628 58.5066 84.1203 58.6123 83.9572 58.6858C83.7964 58.7593 83.6333 58.796 83.4679 58.796C83.2083 58.796 82.9924 58.711 82.8224 58.541C82.6524 58.371 82.5674 58.1505 82.5674 57.8817C82.5674 57.5808 82.6616 57.3419 82.8476 57.1627C83.0337 56.9835 83.3668 56.8755 83.847 56.8365C84.2513 56.802 84.5224 56.763 84.6579 56.7147C84.6924 56.5953 84.7107 56.5011 84.7107 56.4298C84.7107 56.3403 84.674 56.2621 84.6005 56.2024C84.527 56.1404 84.419 56.1105 84.2743 56.1105C84.1226 56.1105 84.0032 56.1427 83.9136 56.2047C83.8263 56.2667 83.7666 56.3563 83.7344 56.4689L83.739 56.4712ZM84.5453 57.2592C84.4948 57.2729 84.4259 57.2867 84.3409 57.2982C83.9136 57.3488 83.6356 57.4246 83.507 57.5233C83.4151 57.5946 83.3668 57.691 83.3668 57.8105C83.3668 57.9093 83.4013 57.992 83.4725 58.0609C83.5437 58.1298 83.6379 58.162 83.7528 58.162C83.8814 58.162 84.0009 58.1298 84.1157 58.0678C84.2306 58.0058 84.3133 57.9254 84.3707 57.8289C84.4282 57.7301 84.4764 57.5785 84.5201 57.3717L84.543 57.2592H84.5453Z" fill="#0088B1"/>
<path d="M86.521 55.5797H87.3136L87.1872 56.1885C87.4836 55.7336 87.8029 55.5039 88.1498 55.5039C88.2716 55.5039 88.4025 55.5338 88.5426 55.5958L88.2164 56.2919C88.1406 56.2643 88.0579 56.2505 87.9706 56.2505C87.8236 56.2505 87.6766 56.3057 87.5249 56.4159C87.3733 56.5262 87.2562 56.6732 87.1712 56.8593C87.0862 57.0431 87.0035 57.3371 86.9208 57.7369L86.714 58.7224H85.864L86.521 55.5797Z" fill="#0088B1"/>
<path d="M91.3292 57.4152H89.1973C89.1973 57.4497 89.195 57.475 89.195 57.491C89.195 57.7001 89.2548 57.8701 89.3742 57.9964C89.4937 58.1251 89.6384 58.1894 89.8107 58.1894C90.0933 58.1894 90.3138 58.0424 90.47 57.7506L91.2304 57.877C91.0834 58.1825 90.8858 58.4122 90.6377 58.5662C90.3896 58.7201 90.1116 58.7959 89.8038 58.7959C89.3811 58.7959 89.0388 58.6626 88.7746 58.3939C88.5104 58.1274 88.3772 57.7736 88.3772 57.3325C88.3772 56.8915 88.4967 56.5193 88.7356 56.1839C89.0618 55.729 89.5258 55.5039 90.13 55.5039C90.5137 55.5039 90.8215 55.6234 91.0466 55.86C91.274 56.0989 91.3866 56.4297 91.3866 56.8593C91.3866 57.0638 91.3659 57.2498 91.3269 57.4129L91.3292 57.4152ZM90.6147 56.8961C90.6147 56.8593 90.617 56.8294 90.617 56.8111C90.617 56.579 90.5642 56.4044 90.4608 56.2873C90.3574 56.1701 90.215 56.1127 90.0404 56.1127C89.8658 56.1127 89.7073 56.1793 89.5695 56.3102C89.4293 56.4435 89.3352 56.6388 89.2869 56.8961H90.6147Z" fill="#0088B1"/>
</g>
<defs>
<linearGradient id="paint0_linear_1289_3280" x1="36.9026" y1="12.4427" x2="52.0001" y2="12.4427" gradientUnits="userSpaceOnUse">
<stop stop-color="#31B0CD"/>
<stop offset="1" stop-color="#21B685"/>
</linearGradient>
<linearGradient id="paint1_linear_1289_3280" x1="52.0001" y1="12.4427" x2="67.0976" y2="12.4427" gradientUnits="userSpaceOnUse">
<stop stop-color="#31B0CD"/>
<stop offset="1" stop-color="#81D3EB"/>
</linearGradient>
<linearGradient id="paint2_linear_1289_3280" x1="52" y1="12.6165" x2="52" y2="32.4099" gradientUnits="userSpaceOnUse">
<stop stop-color="#0077C0"/>
<stop offset="1" stop-color="#191057"/>
</linearGradient>
<linearGradient id="paint3_linear_1289_3280" x1="49.1119" y1="3.89516" x2="54.8882" y2="3.89516" gradientUnits="userSpaceOnUse">
<stop stop-color="#31B0CD"/>
<stop offset="1" stop-color="#81D3EB"/>
</linearGradient>
<clipPath id="clip0_1289_3280">
<rect width="30.1949" height="32" fill="white" transform="translate(36.9026)"/>
</clipPath>
<clipPath id="clip1_1289_3280">
<rect width="103.63" height="20" fill="white" transform="translate(0.185181 40)"/>
</clipPath>
</defs>
</svg>
