<svg width="276" height="166" viewBox="0 0 276 166" fill="none" xmlns="http://www.w3.org/2000/svg">
<g opacity="0.14">
<path opacity="0.0526316" d="M-30.1666 216.257C-23.1622 225.576 -0.77569 241.169 32.736 228.994C74.6256 213.776 90.8266 173.436 128.214 152.519C155.808 137.081 229.956 113.908 272.592 139.515" stroke="#E8F4F7" stroke-linecap="round"/>
<path opacity="0.105263" d="M-37.0755 196.721C-31.0836 206.72 -10.4497 224.569 24.151 215.963C67.4019 205.207 87.7309 166.782 127.1 149.888C156.157 137.418 232.32 122.122 272.046 152.046" stroke="#E8F4F7" stroke-linecap="round"/>
<path opacity="0.157895" d="M-42.2948 176.922C-37.381 187.493 -18.7258 207.4 16.5848 202.459C60.7231 196.283 84.9573 160.193 125.876 147.506C156.077 138.143 233.423 130.892 269.803 164.804" stroke="#E8F4F7" stroke-linecap="round"/>
<path opacity="0.210526" d="M-45.8066 157.037C-42.0248 168.064 -25.5526 189.812 10.0811 188.589C54.6232 187.06 82.497 153.701 124.518 145.361C155.532 139.206 233.212 140.079 265.848 177.608" stroke="#E8F4F7" stroke-linecap="round"/>
<path opacity="0.263158" d="M-47.611 137.246C-45.0025 148.608 -30.8939 171.959 4.67245 174.467C49.1304 177.602 80.3385 147.34 123.001 143.438C154.489 140.558 231.652 149.547 260.186 190.281" stroke="#E8F4F7" stroke-linecap="round"/>
<path opacity="0.315789" d="M-47.7273 117.726C-46.3207 129.299 -34.7302 153.996 0.379147 160.209C44.2658 167.974 78.4663 141.139 121.303 141.718C152.919 142.146 228.72 159.15 252.84 202.645" stroke="#E8F4F7" stroke-linecap="round"/>
<path opacity="0.368421" d="M-46.1929 98.6524C-46.0037 110.308 -37.0583 136.082 -2.79067 145.93C40.0439 158.241 76.862 135.128 119.403 140.181C150.802 143.911 224.41 168.746 243.851 214.524" stroke="#E8F4F7" stroke-linecap="round"/>
<path opacity="0.421053" d="M-43.0637 80.1954C-44.0939 91.8073 -37.8916 118.375 -4.84111 131.751C36.472 148.471 75.5044 129.334 117.284 138.806C148.121 145.798 218.73 178.191 233.28 225.75" stroke="#E8F4F7" stroke-linecap="round"/>
<path opacity="0.473684" d="M-38.4131 62.5179C-40.6514 73.9586 -37.2602 101.029 -5.78891 117.787C33.5502 138.734 74.3691 123.781 114.93 137.569C144.867 147.745 211.703 187.342 221.202 236.161" stroke="#E8F4F7" stroke-linecap="round"/>
<path opacity="0.526316" d="M-32.3304 45.7756C-35.7524 56.9195 -35.2094 84.1963 -5.66216 104.152C31.2719 129.096 73.4302 118.492 112.328 136.444C141.037 149.694 203.368 196.06 207.712 245.604" stroke="#E8F4F7" stroke-linecap="round"/>
<path opacity="0.578947" d="M-24.9214 30.1114C-29.4894 40.8366 -31.8007 68.0208 -4.50121 90.9554C29.6231 119.624 72.659 113.484 109.467 135.404C136.634 151.582 193.777 204.209 192.918 253.937" stroke="#E8F4F7" stroke-linecap="round"/>
<path opacity="0.631579" d="M-16.3063 15.6601C-21.9704 25.8491 -27.1105 52.6427 -2.35791 78.3052C28.5828 110.383 72.0247 108.776 106.34 134.423C131.667 153.353 182.995 211.664 176.944 261.03" stroke="#E8F4F7" stroke-linecap="round"/>
<path opacity="0.684211" d="M-6.61833 2.53978C-13.3164 12.0809 -21.229 38.1905 0.705469 66.2998C28.1236 101.436 71.4955 104.379 102.942 133.472C126.151 154.946 171.104 218.303 159.925 266.765" stroke="#E8F4F7" stroke-linecap="round"/>
<path opacity="0.736842" d="M3.99768 -9.14504C-3.66106 -0.356331 -14.2595 24.7831 4.61662 55.0312C28.2118 92.8413 71.0385 100.301 99.2714 132.522C120.109 156.304 158.193 224.013 142.01 271.042" stroke="#E8F4F7" stroke-linecap="round"/>
<path opacity="0.789474" d="M15.3864 -19.3037C6.8509 -11.3637 -6.31728 12.5302 9.29366 44.5857C28.8073 84.655 70.6197 96.5507 95.3299 131.547C113.568 157.376 144.365 228.695 123.355 273.774" stroke="#E8F4F7" stroke-linecap="round"/>
<path opacity="0.842105" d="M27.3841 -27.8653C18.0655 -20.861 2.47185 1.52558 14.6466 35.0373C29.865 76.9268 70.2048 93.1279 91.1216 130.515C106.56 158.109 129.733 232.257 104.126 274.893" stroke="#E8F4F7" stroke-linecap="round"/>
<path opacity="0.894737" d="M39.8207 -34.774C29.821 -28.7821 11.9727 -8.14814 20.5778 26.4526C31.3342 69.7034 69.7596 90.0324 86.6537 129.401C99.1229 158.458 114.419 234.622 84.4955 274.347" stroke="#E8F4F7" stroke-linecap="round"/>
<path opacity="0.947368" d="M52.5207 -39.9932C41.9494 -35.0794 22.0421 -16.4242 26.9833 18.8865C33.1598 63.0248 69.2497 87.2589 81.9361 128.178C91.2997 158.379 98.5507 235.724 64.6387 272.105" stroke="#E8F4F7" stroke-linecap="round"/>
<path d="M65.306 -43.5051C54.2789 -39.7232 32.5307 -23.2511 33.7538 12.3826C35.2828 56.9247 68.6419 84.7986 76.9816 126.819C83.137 157.834 82.2635 235.513 44.7345 268.15" stroke="#E8F4F7" stroke-linecap="round"/>
</g>
</svg>
