<svg width="144" height="145" viewBox="0 0 144 145" fill="none" xmlns="http://www.w3.org/2000/svg">
<path d="M72 11.8438C105.5 11.8438 132.656 39.0016 132.656 72.5C132.656 92.8124 122.672 110.791 107.346 121.798L106.612 122.316C96.7974 129.151 84.8663 133.156 72 133.156C59.1349 133.156 47.6905 129.311 37.9932 122.731C21.9123 111.826 11.3438 93.3977 11.3438 72.5C11.3438 39.0016 38.5002 11.8438 72 11.8438Z" fill="white" stroke="#B0B6B8" stroke-miterlimit="10" stroke-linecap="round"/>
<path d="M35.5 74.501C34.3327 75.5082 33.1653 76.5155 31.998 77.5228H112L109.113 74.6355C84.575 74.5911 60.0375 74.5467 35.5 74.501Z" fill="#B0B6B8"/>
<path d="M112 77.5215C110.109 92.3172 108.217 107.111 106.326 121.906C96.5923 128.684 84.7606 132.656 71.9996 132.656C59.2387 132.656 47.8911 128.844 38.273 122.317C36.1818 107.386 34.0892 92.4543 31.998 77.5215H112Z" fill="#F2F4F5"/>
<path d="M61.2697 100.011C62.8339 100.011 64.1019 98.7425 64.1019 97.1784C64.1019 95.6142 62.8339 94.3462 61.2697 94.3462C59.7055 94.3462 58.4375 95.6142 58.4375 97.1784C58.4375 98.7425 59.7055 100.011 61.2697 100.011Z" fill="white" stroke="#B0B6B8" stroke-miterlimit="10"/>
<path d="M82.901 100.011C84.4652 100.011 85.7332 98.7425 85.7332 97.1784C85.7332 95.6142 84.4652 94.3462 82.901 94.3462C81.3369 94.3462 80.0688 95.6142 80.0688 97.1784C80.0688 98.7425 81.3369 100.011 82.901 100.011Z" fill="white" stroke="#B0B6B8" stroke-miterlimit="10"/>
<path d="M61.2695 100.012C61.3771 108.117 64.9153 114.586 70.0364 116.186C70.8137 116.43 72.9157 116.962 75.2382 116.185C80.0916 114.562 83.3151 108.089 82.9009 100.012" stroke="#B0B6B8" stroke-miterlimit="10"/>
<path d="M72.2769 51.7612V66.7317" stroke="#B0B6B8" stroke-miterlimit="10" stroke-linecap="round"/>
<path d="M67.6397 66.7315C64.1392 63.1758 60.6373 59.6202 57.1367 56.0645" stroke="#B0B6B8" stroke-miterlimit="10" stroke-linecap="round"/>
<path d="M87.2931 56.0645C83.7925 59.6202 80.2906 63.1758 76.79 66.7315" stroke="#B0B6B8" stroke-miterlimit="10" stroke-linecap="round"/>
<path d="M50.0244 46.2676V52.997" stroke="#B0B6B8" stroke-miterlimit="10" stroke-linecap="round"/>
<path d="M46.6597 49.6323C48.9028 49.6323 51.146 49.6323 53.3891 49.6323" stroke="#B0B6B8" stroke-miterlimit="10" stroke-linecap="round"/>
<path d="M95.8975 42.353V49.0825" stroke="#B0B6B8" stroke-miterlimit="10" stroke-linecap="round"/>
<path d="M92.5327 45.7183C94.7759 45.7183 97.019 45.7183 99.2622 45.7183" stroke="#B0B6B8" stroke-miterlimit="10" stroke-linecap="round"/>
<path d="M66.4027 40.9799C67.9386 40.9799 69.1837 39.5505 69.1837 37.7873C69.1837 36.0241 67.9386 34.5947 66.4027 34.5947C64.8667 34.5947 63.6216 36.0241 63.6216 37.7873C63.6216 39.5505 64.8667 40.9799 66.4027 40.9799Z" fill="white" stroke="#B0B6B8" stroke-miterlimit="10" stroke-linecap="round"/>
<path d="M82.7128 47.8468C83.9643 47.8468 84.9788 46.6787 84.9788 45.2379C84.9788 43.797 83.9643 42.6289 82.7128 42.6289C81.4613 42.6289 80.4468 43.797 80.4468 45.2379C80.4468 46.6787 81.4613 47.8468 82.7128 47.8468Z" fill="white" stroke="#B0B6B8" stroke-miterlimit="10" stroke-linecap="round"/>
<path d="M51.021 62.4746C51.9123 62.4746 52.6348 61.7521 52.6348 60.8609C52.6348 59.9696 51.9123 59.2471 51.021 59.2471C50.1297 59.2471 49.4072 59.9696 49.4072 60.8609C49.4072 61.7521 50.1297 62.4746 51.021 62.4746Z" fill="#F2F4F5" stroke="#B0B6B8" stroke-miterlimit="10" stroke-linecap="round"/>
<path d="M94.2326 60.8606C95.1714 60.8606 95.9324 60.0996 95.9324 59.1608C95.9324 58.222 95.1714 57.4609 94.2326 57.4609C93.2938 57.4609 92.5327 58.222 92.5327 59.1608C92.5327 60.0996 93.2938 60.8606 94.2326 60.8606Z" fill="#F2F4F5" stroke="#B0B6B8" stroke-miterlimit="10" stroke-linecap="round"/>
</svg>
