<svg width="103" height="80" viewBox="0 0 103 80" fill="none" xmlns="http://www.w3.org/2000/svg">
<g opacity="0.5">
<path d="M16.0918 -3.44913C17.0092 -3.69477 17.9524 -3.14962 18.1982 -2.23216L22.0649 12.1983C22.3641 13.3149 23.693 13.7658 24.271 12.7647L26.2636 9.312C26.609 8.71377 27.3746 8.50881 27.9729 8.85401C28.5711 9.19941 28.7763 9.96494 28.4309 10.5632L23.1941 19.635C22.8491 20.2326 22.084 20.4367 21.4865 20.0915L20.4082 19.4689C20.4071 19.4683 20.4058 19.4681 20.4046 19.4685C20.4034 19.4688 20.4021 19.4686 20.401 19.468L12.4108 14.8548C11.8129 14.5094 11.608 13.7445 11.953 13.1465C12.2983 12.5485 13.0632 12.3437 13.6613 12.6888L17.1162 14.6818C18.1166 15.2592 19.0411 14.2061 18.7421 13.0904L14.875 -1.34171C14.6292 -2.25928 15.1742 -3.20327 16.0918 -3.44913Z" fill="#E8F4F7"/>
<path d="M69.5529 -3.44919C70.4704 -3.69483 71.4136 -3.14968 71.6594 -2.23221L75.5261 12.1987C75.8254 13.3155 77.1541 13.766 77.7322 12.7647L79.7257 9.31169C80.0712 8.71387 80.8359 8.50885 81.434 8.85396C82.0325 9.19928 82.2375 9.96477 81.892 10.5632L76.6553 19.6349C76.3101 20.2326 75.5457 20.4375 74.9479 20.0924L73.8684 19.4691C73.8673 19.4685 73.866 19.4683 73.8648 19.4686C73.8636 19.469 73.8623 19.4688 73.8612 19.4682L65.8719 14.8548C65.2738 14.5094 65.0688 13.7446 65.4142 13.1465C65.7596 12.5486 66.5245 12.3436 67.1225 12.6887L70.5766 14.683C71.5775 15.2606 72.5024 14.2067 72.2033 13.0905L68.3362 -1.34176C68.0903 -2.25934 68.6353 -3.20332 69.5529 -3.44919Z" fill="#E8F4F7"/>
<path d="M16.0917 43.3018C16.8487 43.099 17.6274 43.548 17.8305 44.3049L21.0212 56.2127C21.2679 57.1337 22.364 57.5055 22.8408 56.6798L24.4856 53.8309C24.7708 53.3372 25.4021 53.1679 25.8958 53.453C26.3894 53.7381 26.5586 54.3695 26.2737 54.8632L21.9524 62.348C21.6676 62.8411 21.0369 63.0093 20.5438 62.7244L19.6532 62.2103C19.6521 62.2096 19.6508 62.2095 19.6496 62.2098C19.6484 62.2101 19.6471 62.21 19.6461 62.2093L13.0554 58.405C12.5616 58.12 12.3925 57.4886 12.6776 56.9948C12.9626 56.5011 13.594 56.332 14.0878 56.6169L16.9377 58.2615C17.7631 58.7379 18.5259 57.8689 18.2793 56.9483L15.0883 45.0397C14.8858 44.2828 15.3349 43.5048 16.0917 43.3018Z" fill="#E8F4F7"/>
<path d="M69.5529 43.3017C70.3099 43.0989 71.0887 43.5479 71.2917 44.3048L74.4824 56.2127C74.7292 57.1336 75.8253 57.5054 76.302 56.6797L77.9469 53.8308C78.232 53.3371 78.8634 53.1679 79.3571 53.4529C79.8506 53.738 80.0199 54.3695 79.735 54.8631L75.4136 62.3479C75.1288 62.8411 74.4981 63.0093 74.005 62.7244L73.1145 62.2102C73.1134 62.2096 73.1121 62.2094 73.1109 62.2097C73.1097 62.21 73.1084 62.2099 73.1073 62.2092L66.5167 58.4049C66.0228 58.1199 65.8537 57.4885 66.1388 56.9947C66.4239 56.501 67.0553 56.3319 67.549 56.6169L70.3989 58.2615C71.2244 58.7378 71.9872 57.8688 71.7405 56.9482L68.5496 45.0396C68.347 44.2827 68.7961 43.5047 69.5529 43.3017Z" fill="#E8F4F7"/>
<path d="M1.50913 16.3773C2.01931 16.2406 2.54426 16.543 2.681 17.0531L4.83069 25.0759C4.99663 25.6952 5.73621 25.9474 6.05689 25.3922L7.1652 23.4726C7.35739 23.1397 7.78313 23.0257 8.11603 23.2178C8.44895 23.41 8.56302 23.8357 8.37081 24.1687L5.45882 29.2124C5.26687 29.5444 4.84202 29.6585 4.50988 29.4666L3.91006 29.1195C3.90952 29.1192 3.90887 29.1191 3.90827 29.1193C3.90767 29.1194 3.90702 29.1194 3.90648 29.119L-0.535961 26.5542C-0.868546 26.3622 -0.982457 25.9369 -0.790484 25.6043C-0.59848 25.2718 -0.173441 25.1569 0.159154 25.3488L2.07905 26.4581C2.63428 26.7786 3.14871 26.1903 2.98279 25.571L0.833101 17.5483C0.696474 17.0382 0.999147 16.5142 1.50913 16.3773Z" fill="#E8F4F7"/>
<path d="M54.9709 16.3771C55.481 16.2405 56.0051 16.543 56.1418 17.0532L58.2914 25.0755C58.4575 25.6956 59.1976 25.9479 59.5186 25.392L60.6269 23.4724C60.8192 23.1396 61.2449 23.0254 61.5778 23.2176C61.9105 23.4098 62.0246 23.8356 61.8326 24.1684L58.9206 29.2121C58.7287 29.5443 58.3038 29.6581 57.9716 29.4664L57.3709 29.1196C57.3703 29.1192 57.3697 29.1192 57.3691 29.1193C57.3685 29.1195 57.3678 29.1194 57.3673 29.1191L52.9248 26.5542C52.5924 26.3623 52.4786 25.9369 52.6703 25.6043C52.8623 25.2719 53.2874 25.1572 53.62 25.3489L55.5408 26.4579C56.0961 26.7784 56.6105 26.1901 56.4445 25.5708L54.2948 17.5481C54.1582 17.0379 54.4607 16.5138 54.9709 16.3771Z" fill="#E8F4F7"/>
<path d="M30.1599 61.4895C30.7228 61.3387 31.302 61.6731 31.4529 62.236L33.8249 71.0886C34.0083 71.7732 34.8233 72.0497 35.1777 71.436L36.4013 69.3166C36.6132 68.9503 37.0817 68.8247 37.4484 69.036C37.8153 69.2479 37.9411 69.7171 37.7292 70.084L34.5161 75.6492C34.3046 76.0155 33.8363 76.141 33.47 75.9295L32.8091 75.5479C32.808 75.5473 32.8067 75.5471 32.8055 75.5475C32.8043 75.5478 32.803 75.5476 32.802 75.547L27.902 72.7172C27.5351 72.5053 27.4094 72.0362 27.6212 71.6692C27.8332 71.3027 28.3024 71.1767 28.6692 71.3884L30.7886 72.612C31.4025 72.9663 31.9699 72.3194 31.7865 71.6348L29.4144 62.7822C29.2636 62.2193 29.5972 61.6404 30.1599 61.4895Z" fill="#E8F4F7"/>
<path d="M83.621 61.4894C84.2993 61.3077 84.9963 61.7103 85.1782 62.3885L88.0371 73.058C88.2584 73.8839 89.2414 74.2175 89.6689 73.4771L91.1425 70.9248C91.3978 70.4826 91.963 70.3305 92.4053 70.5854C92.8479 70.8407 93.0003 71.4066 92.745 71.8491L88.8725 78.5565C88.6174 78.9983 88.0522 79.1496 87.6103 78.8947L86.8113 78.4342C86.8107 78.4339 86.8101 78.4338 86.8095 78.4339C86.8089 78.4341 86.8083 78.434 86.8077 78.4337L80.9001 75.0229C80.4575 74.7675 80.3058 74.2014 80.5614 73.7589C80.8169 73.317 81.3823 73.1655 81.8245 73.4205L84.378 74.8948C85.1181 75.322 85.8022 74.5424 85.581 73.717L82.7219 63.0467C82.5403 62.3683 82.9426 61.6712 83.621 61.4894Z" fill="#E8F4F7"/>
<path d="M13.7661 21.982C14.3463 21.8267 14.9429 22.171 15.0984 22.7513L17.544 31.8782C17.7332 32.5841 18.5738 32.8696 18.9392 32.2367L20.1992 30.053C20.4176 29.6746 20.9017 29.545 21.2802 29.7633C21.6587 29.9818 21.7884 30.4658 21.5698 30.8443L18.2583 36.5815C18.04 36.9594 17.5563 37.0889 17.1782 36.8709L16.4949 36.4764C16.4944 36.4761 16.4938 36.476 16.4931 36.4761C16.4925 36.4763 16.4919 36.4762 16.4914 36.4759L11.4389 33.5589C11.0605 33.3404 10.93 32.8566 11.1483 32.4781C11.3668 32.0997 11.8509 31.9702 12.2293 32.1885L14.4143 33.4491C15.0468 33.8142 15.6316 33.1477 15.4426 32.4422L12.9968 23.3144C12.8414 22.7341 13.1857 22.1375 13.7661 21.982Z" fill="#E8F4F7"/>
<path d="M29.2731 25.1973C29.8975 25.0299 30.5398 25.4008 30.7071 26.0252L33.3386 35.8459C33.5423 36.6062 34.4466 36.9127 34.84 36.231L36.1962 33.882C36.4313 33.4747 36.952 33.3352 37.3593 33.5704C37.7665 33.8055 37.906 34.3262 37.6709 34.7334L34.039 41.0255C33.8422 41.3664 33.4063 41.483 33.0655 41.2864L32.21 40.7925C32.2095 40.7921 32.2088 40.7921 32.2082 40.7922C32.2076 40.7924 32.207 40.7923 32.2064 40.792L26.7694 37.6545C26.3622 37.4195 26.2229 36.8986 26.4577 36.4914C26.6928 36.0842 27.2136 35.9447 27.6208 36.1798L29.972 37.5364C30.6519 37.9288 31.2805 37.2129 31.0773 36.4546L28.4451 26.6313C28.2778 26.0069 28.6487 25.3646 29.2731 25.1973Z" fill="#E8F4F7"/>
<path d="M43.0783 -1.84572C43.7027 -2.01303 44.345 -1.6422 44.5123 -1.01777L47.1438 8.80294C47.3475 9.56319 48.2517 9.86971 48.6452 9.18806L50.0014 6.83903C50.2365 6.43176 50.7572 6.29226 51.1645 6.52739C51.5716 6.7625 51.7112 7.28326 51.4761 7.69046L47.8442 13.9826C47.6474 14.3234 47.2115 14.4401 46.8707 14.2434L46.0152 13.7495C46.0146 13.7492 46.014 13.7491 46.0134 13.7492C46.0128 13.7494 46.0121 13.7493 46.0116 13.749L40.5746 10.6115C40.1674 10.3765 40.0281 9.85566 40.2629 9.44846C40.498 9.04125 41.0188 8.90175 41.426 9.13681L43.7771 10.4935C44.4571 10.8859 45.0856 10.1699 44.8825 9.41159L42.2503 -0.411665C42.083 -1.03607 42.4539 -1.67836 43.0783 -1.84572Z" fill="#E8F4F7"/>
<path d="M67.2265 21.9824C67.8068 21.827 68.4034 22.1714 68.5589 22.7516L71.0046 31.879C71.1938 32.5852 72.0341 32.8702 72.3997 32.237L73.6609 30.054C73.8794 29.6755 74.3634 29.5458 74.7419 29.7643C75.1201 29.983 75.25 30.467 75.0315 30.8454L71.7188 36.5818C71.5003 36.9598 71.0168 37.0897 70.6387 36.8712L69.9572 36.477C69.9561 36.4763 69.9548 36.4762 69.9536 36.4765C69.9524 36.4768 69.9511 36.4766 69.9501 36.476L64.8987 33.5604C64.5202 33.3419 64.3906 32.8579 64.6091 32.4794C64.8276 32.101 65.3116 31.9713 65.6901 32.1898L67.875 33.4504C68.5076 33.8155 69.0924 33.149 68.9033 32.4435L66.4573 23.3148C66.3019 22.7344 66.6462 22.1379 67.2265 21.9824Z" fill="#E8F4F7"/>
<path d="M1.37352 59.6821C1.95379 59.5267 2.55038 59.8711 2.70591 60.4513L5.15158 69.5787C5.3408 70.2849 6.18112 70.5699 6.54666 69.9367L7.80783 67.7537C8.02636 67.3752 8.51034 67.2455 8.88884 67.4641C9.26708 67.6827 9.39696 68.1667 9.17849 68.5451L5.86575 74.2815C5.64727 74.6596 5.16377 74.7894 4.78569 74.5709L4.10419 74.1767C4.1031 74.176 4.10182 74.1759 4.10061 74.1762C4.0994 74.1765 4.09811 74.1763 4.09703 74.1757L-0.954295 71.2601C-1.33282 71.0416 -1.4624 70.5577 -1.24395 70.1791C-1.02544 69.8007 -0.54145 69.671 -0.162943 69.8895L2.02197 71.1501C2.65458 71.5152 3.23933 70.8487 3.05029 70.1432L0.604266 61.0145C0.448824 60.4341 0.793194 59.8376 1.37352 59.6821Z" fill="#E8F4F7"/>
<path d="M54.8343 59.6818C55.4146 59.5263 56.0111 59.8708 56.1667 60.4511L58.612 69.5772C58.8013 70.2836 59.6427 70.5696 60.0084 69.9362L61.2684 67.7525C61.4868 67.3742 61.9709 67.2447 62.3494 67.4629C62.7279 67.6814 62.8575 68.1654 62.639 68.5439L59.3275 74.281C59.109 74.659 58.6252 74.788 58.2472 74.5695L57.5647 74.1755C57.5636 74.1748 57.5623 74.1747 57.5611 74.175C57.5599 74.1753 57.5586 74.1752 57.5576 74.1745L52.5072 71.2587C52.1286 71.0402 51.999 70.5562 52.2175 70.1777C52.4361 69.7996 52.9193 69.6702 53.2976 69.8883L55.4837 71.1496C56.116 71.5144 56.7002 70.8488 56.5113 70.1438L54.065 61.0142C53.9096 60.4339 54.254 59.8374 54.8343 59.6818Z" fill="#E8F4F7"/>
<path d="M0.0670907 33.9202C0.958661 33.6813 1.87582 34.2108 2.11471 35.1024L5.87187 49.1243C6.16254 50.2091 7.45341 50.6469 8.01499 49.6743L9.95194 46.3195C10.2875 45.7382 11.0308 45.539 11.6121 45.8746C12.1933 46.2102 12.3926 46.9535 12.057 47.5348L6.96843 56.3484C6.63313 56.9292 5.88983 57.1285 5.30919 56.793L4.26075 56.1877C4.25967 56.1871 4.25838 56.1869 4.25718 56.1872C4.25597 56.1875 4.25468 56.1874 4.2536 56.1867L-3.50821 51.7055C-4.08956 51.3699 -4.28987 50.6259 -3.95425 50.0446C-3.61874 49.4635 -2.8753 49.2646 -2.29406 49.5997L1.06297 51.5371C2.03499 52.0982 2.93357 51.0739 2.6431 49.9898L-1.11416 35.9676C-1.35303 35.0761 -0.824329 34.1592 0.0670907 33.9202Z" fill="#E8F4F7"/>
<path d="M44.4516 21.2496C44.8329 21.1475 45.225 21.3738 45.3271 21.7551L46.9333 27.7493C47.0575 28.2128 47.611 28.4017 47.851 27.986L48.679 26.552C48.8224 26.3036 49.1398 26.2186 49.3883 26.3619C49.6369 26.5054 49.7219 26.8227 49.5784 27.0712L47.3616 30.9136C47.2414 31.1216 46.9751 31.1922 46.7671 31.0719L46.2469 30.7716C46.246 30.7711 46.2451 30.771 46.2442 30.7712C46.2433 30.7715 46.2423 30.7713 46.2415 30.7709L42.9226 28.8547C42.6742 28.7113 42.5891 28.3937 42.7325 28.1453C42.8759 27.897 43.1934 27.8119 43.4418 27.9553L44.8778 28.7827C45.2925 29.0219 45.6765 28.5829 45.5526 28.1205L43.9462 22.1251C43.844 21.7438 44.0704 21.3517 44.4516 21.2496Z" fill="#E8F4F7"/>
<path d="M41.4743 52.391C41.9208 52.2713 42.3796 52.5363 42.4993 52.9828L44.3806 60.0039C44.526 60.5466 45.1738 60.7675 45.4547 60.281L46.4249 58.6005C46.5929 58.3096 46.9646 58.2094 47.2557 58.3769C47.5469 58.5448 47.6474 58.9174 47.4796 59.2086L44.9318 63.623C44.7638 63.9137 44.3916 64.0134 44.1007 63.8456L43.5762 63.5428C43.5751 63.5422 43.5738 63.542 43.5726 63.5423C43.5714 63.5426 43.5701 63.5425 43.569 63.5418L39.6836 61.2986C39.3926 61.1303 39.2927 60.7577 39.4606 60.4666C39.6287 60.1754 40.0014 60.0758 40.2926 60.2437L41.9731 61.2139C42.4589 61.4943 42.9091 60.9794 42.7639 60.4375L40.8825 53.416C40.7629 52.9696 41.028 52.5107 41.4743 52.391Z" fill="#E8F4F7"/>
<path d="M94.1297 54.7321C94.6344 54.5969 95.1534 54.8965 95.2887 55.4012L97.4153 63.3377C97.5797 63.9513 98.3119 64.2008 98.6294 63.6507L99.726 61.7514C99.9159 61.4224 100.336 61.3099 100.665 61.4996C100.995 61.6895 101.108 62.1106 100.918 62.4398L98.0375 67.4297C97.8477 67.7586 97.4267 67.8717 97.098 67.6815L96.506 67.338C96.5049 67.3374 96.5036 67.3372 96.5024 67.3376C96.5012 67.3379 96.4999 67.3377 96.4988 67.3371L92.1051 64.8004C91.7761 64.6104 91.6634 64.1898 91.8533 63.8608C92.0432 63.5319 92.4639 63.4192 92.7928 63.6091L94.6933 64.7064C95.2426 65.0233 95.7515 64.441 95.5874 63.8285L93.4606 55.8911C93.3254 55.3864 93.6251 54.8675 94.1297 54.7321Z" fill="#E8F4F7"/>
<path d="M34.0861 10.7561C34.5325 10.6366 34.9915 10.9015 35.1111 11.3479L36.9925 18.3695C37.1377 18.9114 37.785 19.1322 38.0656 18.6464L39.0358 16.9659C39.2037 16.6751 39.5755 16.5748 39.8666 16.7423C40.1578 16.9102 40.2583 17.2828 40.0904 17.5741L37.5426 21.9884C37.3746 22.2791 37.0025 22.3788 36.7116 22.2111L36.188 21.908C36.1869 21.9073 36.1856 21.9072 36.1844 21.9075C36.1832 21.9078 36.1819 21.9076 36.1808 21.907L32.2954 19.6637C32.0041 19.4956 31.9043 19.1231 32.0724 18.8318C32.2407 18.5408 32.6132 18.4407 32.9044 18.6088L34.5839 19.5793C35.0705 19.8602 35.521 19.345 35.3756 18.8023L33.4943 11.7811C33.3747 11.3346 33.6396 10.8758 34.0861 10.7561Z" fill="#E8F4F7"/>
<path d="M87.5458 10.7564C87.9923 10.6367 88.4521 10.9014 88.5718 11.3479L90.4532 18.3695C90.5984 18.9114 91.2457 19.1322 91.5263 18.6464L92.4965 16.9659C92.6645 16.6749 93.0371 16.5742 93.3282 16.7421C93.6195 16.91 93.7191 17.2828 93.5511 17.5741L91.0033 21.9884C90.8353 22.279 90.4631 22.3789 90.1723 22.2111L89.6487 21.908C89.6476 21.9073 89.6463 21.9072 89.6451 21.9075C89.6439 21.9078 89.6426 21.9076 89.6415 21.907L85.7561 19.6637C85.4648 19.4956 85.365 19.1231 85.5331 18.8318C85.7014 18.5406 86.0739 18.4407 86.3651 18.6088L88.0446 19.5793C88.5304 19.8598 88.9807 19.3448 88.8355 18.803L86.954 11.7814C86.8344 11.335 87.0996 10.8762 87.5458 10.7564Z" fill="#E8F4F7"/>
<path d="M4.01285 3.9265C4.32978 3.84157 4.65589 4.02924 4.74098 4.34609L6.07678 9.33137C6.1799 9.71622 6.6401 9.87346 6.83931 9.52841L7.52752 8.33502C7.64687 8.12829 7.91127 8.05752 8.11802 8.17679C8.32477 8.29616 8.39558 8.56052 8.27624 8.76729L6.68343 11.5275C6.44469 11.9408 5.91582 12.0826 5.50244 11.8439L2.74223 10.2511C2.53553 10.1319 2.46401 9.86762 2.58306 9.66089C2.70241 9.45418 2.96683 9.38336 3.17356 9.50267L4.36696 10.1909C4.71213 10.39 5.03194 10.0239 4.9288 9.63896L3.593 4.65369C3.50828 4.33679 3.69599 4.01147 4.01285 3.9265Z" fill="#E8F4F7"/>
<path d="M57.4743 3.92636C57.7912 3.84143 58.1173 4.0291 58.2024 4.34595L59.5382 9.33122C59.6414 9.71609 60.1016 9.87337 60.3008 9.52827L60.989 8.33488C61.1083 8.12827 61.3728 8.05747 61.5795 8.17665C61.7862 8.296 61.857 8.56041 61.7377 8.76715L59.9287 11.9017C59.8094 12.1085 59.545 12.1793 59.3382 12.0599L58.9659 11.845C58.9654 11.8447 58.965 11.8442 58.9648 11.8436C58.9647 11.843 58.9643 11.8424 58.9637 11.8421L56.2025 10.2503C55.9959 10.131 55.925 9.8665 56.0443 9.65981C56.1636 9.45313 56.4281 9.3823 56.6348 9.50159L57.8293 10.1905C58.1743 10.3896 58.4937 10.0248 58.3906 9.64008L57.0545 4.65355C56.9697 4.33666 57.1575 4.01134 57.4743 3.92636Z" fill="#E8F4F7"/>
<path d="M27.75 -2.70563C28.0669 -2.79039 28.3921 -2.60255 28.4772 -2.28579L29.8129 2.6991C29.9162 3.0847 30.3769 3.24202 30.5765 2.89628L31.2647 1.70289C31.384 1.49609 31.6484 1.42528 31.8552 1.54466C32.0619 1.66403 32.1325 1.9275 32.0132 2.13422L30.2045 5.26973C30.0852 5.4761 29.821 5.54612 29.6147 5.42676L29.2424 5.2118C29.2418 5.21148 29.2412 5.2114 29.2406 5.21156C29.24 5.21172 29.2393 5.21164 29.2388 5.21133L26.4782 3.61831C26.2714 3.49901 26.1997 3.23486 26.319 3.02807C26.4383 2.82148 26.7029 2.75083 26.9095 2.86985L28.1032 3.559C28.4483 3.75815 28.7682 3.39195 28.665 3.0071L27.3292 -1.97819C27.2445 -2.29513 27.4331 -2.62071 27.75 -2.70563Z" fill="#E8F4F7"/>
<path d="M32.4777 48.1651C32.7946 48.0804 33.1199 48.2682 33.2049 48.585L34.5409 53.5707C34.6441 53.9559 35.1038 54.1126 35.3033 53.7673L35.9924 52.5736C36.1118 52.3669 36.3761 52.296 36.5829 52.4154C36.7896 52.5348 36.8605 52.7992 36.7411 53.0059L35.1483 55.7661C34.9097 56.1796 34.3808 56.3212 33.9673 56.0826L31.2062 54.49C30.9994 54.3707 30.9287 54.1063 31.048 53.8995C31.1673 53.6928 31.4317 53.622 31.6385 53.7413L32.8319 54.4295C33.1766 54.6284 33.496 54.2631 33.393 53.8787L32.057 48.8926C31.9722 48.5756 32.1608 48.25 32.4777 48.1651Z" fill="#E8F4F7"/>
<path d="M81.2114 -2.70597C81.5282 -2.79073 81.8535 -2.60289 81.9386 -2.28613L83.2745 2.69959C83.3777 3.08477 83.8374 3.2415 84.0369 2.89619L84.7261 1.70255C84.8454 1.49578 85.1098 1.42495 85.3166 1.54432C85.5233 1.6637 85.5941 1.92807 85.4748 2.13482L83.882 4.89503C83.6433 5.30846 83.1144 5.45013 82.701 5.21148L79.9398 3.61892C79.7331 3.49964 79.6624 3.23517 79.7816 3.02842C79.9009 2.82172 80.1654 2.7509 80.3721 2.8702L81.5655 3.55841C81.9103 3.75727 82.2296 3.39203 82.1266 3.00757L80.7906 -1.97853C80.7059 -2.29547 80.8944 -2.62105 81.2114 -2.70597Z" fill="#E8F4F7"/>
<path d="M13.7485 64.3706C14.195 64.251 14.6548 64.5157 14.7744 64.9622L16.6558 71.9837C16.801 72.5257 17.4483 72.7465 17.7289 72.2606L18.6991 70.5802C18.8671 70.2892 19.2397 70.1885 19.5308 70.3563C19.8221 70.5243 19.9217 70.8971 19.7538 71.1883L17.206 75.6026C17.0379 75.8933 16.6657 75.9932 16.3749 75.8253L15.8513 75.5222C15.8502 75.5216 15.8489 75.5214 15.8477 75.5217C15.8465 75.5221 15.8452 75.5219 15.8441 75.5213L11.9587 73.278C11.6674 73.1098 11.5676 72.7373 11.7358 72.446C11.904 72.1549 12.2765 72.055 12.5678 72.2231L14.2472 73.1936C14.7331 73.474 15.1833 72.9591 15.0381 72.4172L13.1567 65.3957C13.0371 64.9493 13.3022 64.4905 13.7485 64.3706Z" fill="#E8F4F7"/>
<path d="M67.2101 64.3703C67.4758 64.2993 67.7487 64.4568 67.8201 64.7224L68.941 68.906C69.0276 69.229 69.4136 69.3607 69.5808 69.0712L70.1588 68.0701C70.2589 67.8967 70.4806 67.8373 70.654 67.9374C70.8271 68.0376 70.8867 68.2593 70.7867 68.4326L69.268 71.0617C69.168 71.2348 68.9467 71.2941 68.7737 71.1942L68.4623 71.0144C68.4618 71.0141 68.4612 71.0141 68.4606 71.0142C68.46 71.0144 68.4593 71.0143 68.4588 71.014L66.1429 69.6769C65.9695 69.5768 65.9101 69.3551 66.0102 69.1817C66.1103 69.0083 66.332 68.9489 66.5054 69.049L67.5065 69.627C67.7962 69.7941 68.0645 69.4871 67.9779 69.164L66.857 64.9805C66.786 64.7146 66.9442 64.4415 67.2101 64.3703Z" fill="#E8F4F7"/>
</g>
</svg>
