<svg width="270" height="245" viewBox="0 0 270 245" fill="none" xmlns="http://www.w3.org/2000/svg">
<path d="M181.895 87.8351C162.733 87.8351 143.227 87.0585 124.981 81.9873C107.078 77.0303 90.6398 67.4132 75.9876 56.2885C66.395 49.0472 57.6724 43.2678 45.218 44.1358C33.0339 44.7937 21.3825 49.3334 11.9759 57.088C-3.86682 70.9311 -1.48584 96.5842 4.85581 114.539C14.3797 141.654 43.3636 160.546 67.9976 172.767C96.4549 186.952 127.728 195.199 159.07 199.927C186.543 204.108 221.846 207.123 245.655 189.237C267.519 172.767 273.517 135.212 268.16 109.856C266.86 102.365 262.863 95.6066 256.919 90.8505C241.557 79.6344 218.64 87.127 201.378 87.4925C194.968 87.6296 188.443 87.7895 181.895 87.8351Z" fill="#E8F4F7"/>
<path d="M135.924 244.381C182.341 244.381 219.968 242.039 219.968 239.15C219.968 236.261 182.341 233.918 135.924 233.918C89.5082 233.918 51.8804 236.261 51.8804 239.15C51.8804 242.039 89.5082 244.381 135.924 244.381Z" fill="#E8F4F7"/>
<path d="M17.333 37.4657L47.0953 34.953C50.8066 34.6287 54.5169 35.5863 57.6051 37.6655C60.6933 39.7447 62.972 42.8193 64.0597 46.3746L92.5857 141.631L86.9996 151.614C85.5648 154.186 84.8565 157.098 84.9502 160.041C85.0439 162.983 85.9361 165.844 87.5317 168.32C89.1273 170.796 91.3664 172.794 94.0103 174.1C96.6543 175.406 99.6039 175.972 102.545 175.737L216.786 166.051" stroke="#0088B1" stroke-linecap="round" stroke-linejoin="round"/>
<path d="M68.3184 60.8343L201.104 49.5953C202.412 49.4835 203.728 49.667 204.956 50.1321C206.183 50.5972 207.29 51.3321 208.193 52.2822C209.097 53.2323 209.775 54.3732 210.177 55.6204C210.578 56.8676 210.693 58.1889 210.513 59.4865L201.516 124.293C201.243 126.237 200.322 128.034 198.902 129.393C197.482 130.752 195.645 131.595 193.686 131.786L92.586 141.631L68.3184 60.8343Z" fill="white" stroke="#0088B1" stroke-linecap="round" stroke-linejoin="round"/>
<path d="M115.251 197.575C121.206 197.575 126.034 192.758 126.034 186.815C126.034 180.873 121.206 176.056 115.251 176.056C109.296 176.056 104.468 180.873 104.468 186.815C104.468 192.758 109.296 197.575 115.251 197.575Z" fill="white" stroke="#0088B1" stroke-linecap="round" stroke-linejoin="round"/>
<path d="M190.344 191.224C196.299 191.224 201.127 186.407 201.127 180.465C201.127 174.523 196.299 169.706 190.344 169.706C184.388 169.706 179.561 174.523 179.561 180.465C179.561 186.407 184.388 191.224 190.344 191.224Z" fill="white" stroke="#0088B1" stroke-linecap="round" stroke-linejoin="round"/>
<path d="M40.9015 32.3806L12.8427 34.7562C10.4111 34.962 8.6072 37.0957 8.81352 39.5219C9.01984 41.9481 11.1583 43.748 13.5898 43.5421L41.6487 41.1666C44.0802 40.9607 45.8841 38.827 45.6778 36.4008C45.4715 33.9747 43.3331 32.1747 40.9015 32.3806Z" fill="#0088B1"/>
<path d="M124.226 110.884C124.773 106.715 126.733 102.858 129.779 99.9528C132.825 97.0476 136.775 95.2688 140.974 94.9114C145.173 94.5541 149.368 95.6397 152.864 97.9881C156.359 100.337 158.945 103.807 160.192 107.823" stroke="#0088B1" stroke-linecap="round" stroke-linejoin="round"/>
<path d="M160.489 86.2361C161.906 86.2361 163.054 85.0906 163.054 83.6776C163.054 82.2646 161.906 81.1191 160.489 81.1191C159.073 81.1191 157.925 82.2646 157.925 83.6776C157.925 85.0906 159.073 86.2361 160.489 86.2361Z" fill="#0088B1"/>
<path d="M119.853 89.6628C121.269 89.6628 122.417 88.5173 122.417 87.1044C122.417 85.6914 121.269 84.5459 119.853 84.5459C118.437 84.5459 117.289 85.6914 117.289 87.1044C117.289 88.5173 118.437 89.6628 119.853 89.6628Z" fill="#0088B1"/>
<path d="M47.6221 183.64V193.486" stroke="#0088B1" stroke-linecap="round" stroke-linejoin="round"/>
<path d="M42.6997 188.552H52.5441" stroke="#0088B1" stroke-linecap="round" stroke-linejoin="round"/>
<path d="M204.927 0.619141V10.4418" stroke="#0088B1" stroke-linecap="round" stroke-linejoin="round"/>
<path d="M200.005 5.53076H209.849" stroke="#0088B1" stroke-linecap="round" stroke-linejoin="round"/>
<path d="M88.3735 29.9731V39.7958" stroke="#0088B1" stroke-linecap="round" stroke-linejoin="round"/>
<path d="M83.4282 34.8843H93.2955" stroke="#0088B1" stroke-linecap="round" stroke-linejoin="round"/>
<path d="M229.492 66.0883C230.782 66.0883 231.828 65.0451 231.828 63.7582C231.828 62.4714 230.782 61.4282 229.492 61.4282C228.203 61.4282 227.157 62.4714 227.157 63.7582C227.157 65.0451 228.203 66.0883 229.492 66.0883Z" fill="white" stroke="#0088B1" stroke-linecap="round" stroke-linejoin="round"/>
<path d="M142.22 45.1409C143.459 45.1409 144.464 44.1386 144.464 42.9022C144.464 41.6659 143.459 40.6636 142.22 40.6636C140.981 40.6636 139.977 41.6659 139.977 42.9022C139.977 44.1386 140.981 45.1409 142.22 45.1409Z" fill="#0088B1"/>
<path d="M157.285 207.603C158.524 207.603 159.528 206.601 159.528 205.364C159.528 204.128 158.524 203.125 157.285 203.125C156.046 203.125 155.041 204.128 155.041 205.364C155.041 206.601 156.046 207.603 157.285 207.603Z" fill="#0088B1"/>
</svg>
