<svg width="24" height="24" viewBox="0 0 24 24" fill="none" xmlns="http://www.w3.org/2000/svg">
<path d="M11.0686 21.4929L11.8665 20.844C12.523 20.3099 13.4331 20.2142 14.1864 20.5998L15.1019 21.0684C15.6057 21.3261 16.2207 21.073 16.397 20.5353L16.7174 19.558C16.9812 18.7538 17.6949 18.1813 18.5371 18.0983L19.5605 17.9975C20.1237 17.9421 20.5042 17.3966 20.3619 16.8488L20.1031 15.8534C19.8903 15.0344 20.181 14.1668 20.8448 13.6416L21.6514 13.0034C22.0952 12.6522 22.1203 11.9877 21.7044 11.6038L20.9487 10.9063C20.3267 10.3324 20.1024 9.44525 20.3767 8.64463L20.7101 7.67163C20.8937 7.1362 20.5555 6.56344 19.9981 6.46549L18.9851 6.28743C18.1516 6.14078 17.4833 5.5159 17.2812 4.694L17.0358 3.6953C16.9007 3.14569 16.3066 2.84664 15.7847 3.06561L14.8363 3.4634C14.056 3.79071 13.1559 3.62632 12.5416 3.04413L11.7952 2.33657C11.3845 1.94716 10.7231 2.01687 10.4024 2.48327L9.8197 3.33059C9.34009 4.02798 8.49396 4.37621 7.66255 4.21851L6.65213 4.02691C6.09602 3.92143 5.57724 4.33768 5.55965 4.9033L5.52752 5.93127C5.50102 6.77711 4.97753 7.52767 4.19277 7.84449L3.23912 8.22971C2.7144 8.44166 2.50289 9.07227 2.79394 9.55772L3.32272 10.4399C3.75771 11.1657 3.72312 12.08 3.2342 12.771L2.64009 13.6107C2.31323 14.0727 2.47627 14.7175 2.9835 14.9684L3.9052 15.4247C4.6637 15.8001 5.12876 16.5881 5.0911 17.4336L5.0452 18.461C5.01995 19.0263 5.50563 19.4806 6.06811 19.4176L7.09024 19.3031C7.93135 19.209 8.74867 19.6203 9.17392 20.3519L9.69079 21.2411C9.9753 21.7305 10.6295 21.8499 11.0686 21.4929Z" fill="url(#paint0_linear_4449_5870)"/>
<path d="M11.2508 21.3785L11.9617 20.8491C12.6405 20.3437 13.5538 20.2868 14.2899 20.7041L15.0611 21.1412C15.5535 21.4203 16.1786 21.1937 16.3779 20.664L16.6898 19.8342C16.9876 19.042 17.7251 18.5005 18.5701 18.4535L19.4552 18.4044C20.0203 18.3729 20.4238 17.8442 20.3049 17.2909L20.1187 16.4243C19.941 15.5968 20.2687 14.7426 20.9542 14.2461L21.6721 13.7263C22.1305 13.3945 22.184 12.7315 21.7849 12.3303L21.1598 11.7018C20.563 11.1019 20.3767 10.2059 20.6851 9.41777L21.008 8.59222C21.2142 8.06511 20.9009 7.4785 20.3482 7.35673L19.4826 7.16621C18.6561 6.98423 18.0151 6.33125 17.8484 5.50141L17.6739 4.63244C17.5623 4.07751 16.9816 3.75346 16.4508 3.94994L15.6195 4.25765C14.8258 4.55139 13.9335 4.34856 13.3447 3.74071L12.7279 3.10399C12.3341 2.69739 11.6704 2.73876 11.33 3.19101L10.7971 3.89918C10.2883 4.57543 9.42793 4.88723 8.60394 4.6941L7.74098 4.49196C7.19003 4.36292 6.65388 4.75642 6.61208 5.32095L6.54659 6.20484C6.48403 7.04887 5.92903 7.77619 5.13137 8.05933L4.29607 8.35586C3.76277 8.54523 3.52454 9.16609 3.79452 9.6636L4.21734 10.4427C4.62098 11.1865 4.54731 12.0986 4.02946 12.768L3.48705 13.469C3.14076 13.9166 3.27617 14.5678 3.77205 14.8403L4.549 15.2671C5.29081 15.6745 5.72176 16.4818 5.64802 17.3247L5.57081 18.2077C5.52144 18.7715 5.98728 19.2461 6.55195 19.2072L7.43616 19.1462C8.28048 19.0879 9.07947 19.5339 9.47327 20.2831L9.8857 21.0677C10.149 21.5687 10.7974 21.716 11.2515 21.3781L11.2508 21.3785Z" stroke="#0088B1" stroke-width="0.3" stroke-miterlimit="10"/>
<path d="M9.87014 15.3641L10.0066 15.4868C10.1569 15.6219 10.3884 15.6096 10.5235 15.4592L15.5815 9.83176C15.7167 9.68142 15.7043 9.45 15.554 9.31487L15.4175 9.19221C15.2672 9.05708 15.0358 9.06942 14.9007 9.21976L9.8426 14.8472C9.70747 14.9976 9.7198 15.229 9.87014 15.3641Z" fill="white" stroke="#0088B1" stroke-width="0.2" stroke-miterlimit="10"/>
<path d="M14.474 15.4883H14.711C15.329 15.4883 15.8301 14.9872 15.8301 14.3692V13.6924C15.8301 13.0743 15.329 12.5733 14.711 12.5733H14.474C13.856 12.5733 13.3551 13.0743 13.3551 13.6924V14.3692C13.3551 14.9872 13.856 15.4883 14.474 15.4883ZM14.1606 13.797C14.1606 13.5585 14.3538 13.365 14.5925 13.365C14.8312 13.365 15.0242 13.5587 15.0242 13.797V14.2646C15.0242 14.5033 14.831 14.6965 14.5925 14.6965C14.4733 14.6965 14.3651 14.6481 14.287 14.57C14.209 14.492 14.1606 14.3838 14.1606 14.2646V13.797Z" fill="white" stroke="#0088B1" stroke-width="0.2" stroke-miterlimit="10"/>
<path d="M10.4911 11.9087H10.7281C11.3461 11.9087 11.8472 11.4076 11.8472 10.7896V10.1128C11.8472 9.49474 11.3461 8.99369 10.7281 8.99369H10.4911C9.87306 8.99369 9.3722 9.49474 9.3722 10.1128V10.7896C9.3722 11.4076 9.87306 11.9087 10.4911 11.9087ZM10.1777 10.2174C10.1777 9.97888 10.3709 9.78545 10.6096 9.78545C10.8483 9.78545 11.0413 9.97907 11.0413 10.2174V10.685C11.0413 10.9237 10.8481 11.1169 10.6096 11.1169C10.4903 11.1169 10.3822 11.0685 10.304 10.9904C10.2261 10.9124 10.1777 10.8043 10.1777 10.685V10.2174Z" fill="white" stroke="#0088B1" stroke-width="0.2" stroke-miterlimit="10"/>
<defs>
<linearGradient id="paint0_linear_4449_5870" x1="20.9361" y1="7.05539" x2="3.56857" y2="16.6856" gradientUnits="userSpaceOnUse">
<stop stop-color="#70D5F3"/>
<stop offset="1" stop-color="#0088B1"/>
</linearGradient>
</defs>
</svg>
