<svg width="26" height="32" viewBox="0 0 26 32" fill="none" xmlns="http://www.w3.org/2000/svg">
<g clip-path="url(#clip0_249_1153)">
<path fill-rule="evenodd" clip-rule="evenodd" d="M21.6619 4.45707C21.6619 4.45707 19.6365 18.4483 19.5733 29.73H3.97021C3.97021 29.73 3.97021 29.7251 3.96919 29.7153C3.96535 29.669 3.95357 29.5165 3.93515 29.2693C3.82203 27.7275 3.47218 22.5234 3.47013 16.8023C3.46808 13.903 3.55586 10.8705 3.80923 8.11594C3.90188 7.09891 4.01679 6.11937 4.15908 5.19877C4.15908 5.19877 12.5653 3.9651 20.9415 4.06152L21.6617 4.45732L21.6619 4.45707Z" fill="url(#paint0_radial_249_1153)"/>
<path fill-rule="evenodd" clip-rule="evenodd" d="M20.9415 4.06079C20.9415 4.06079 19.3294 15.0085 19.0551 29.7301H19.5738C19.5738 29.7301 19.8919 16.2251 21.6619 4.45659L20.9415 4.06079Z" fill="url(#paint1_linear_249_1153)"/>
<g style="mix-blend-mode:multiply" opacity="0.5">
<path fill-rule="evenodd" clip-rule="evenodd" d="M19.6365 4.58374L18.1808 29.3123H3.93799L4.39763 5.92005L19.6365 4.58374Z" fill="#7E6DA5"/>
</g>
<path fill-rule="evenodd" clip-rule="evenodd" d="M19.6329 4.81454C19.5326 5.31271 17.0276 17.8793 17.9216 29.1392L6.36723 29.2465L3.93542 29.2693L3.81641 29.2703C3.81641 29.2703 2.93244 26.8583 2.67907 22.2142C2.59436 20.6607 2.58054 18.857 2.69468 16.81C2.83595 14.2788 3.17122 11.3774 3.80976 8.11562C3.94821 7.40081 4.10305 6.66841 4.27273 5.91921C4.27273 5.91921 10.1898 4.9376 19.637 4.7998C19.637 4.7998 19.636 4.80472 19.6332 4.81454H19.6329Z" fill="url(#paint2_linear_249_1153)"/>
<path style="mix-blend-mode:multiply" opacity="0.5" fill-rule="evenodd" clip-rule="evenodd" d="M7.21507 5.52386C7.21507 5.52386 6.759 6.59544 6.89567 6.83535C7.03233 7.07526 7.17463 7.16445 7.40138 7.17893C7.62813 7.19341 15.8764 6.77408 16.1157 6.72264C16.3028 6.68257 16.4254 6.54245 16.454 6.39922C16.5027 6.15569 16.5945 4.87549 16.5945 4.87549H16.4223C16.4223 4.87549 16.29 6.13191 15.9693 6.32839C15.6486 6.52461 7.64605 6.91549 7.48942 6.83923C7.33279 6.76297 7.56364 5.49905 7.56364 5.49905L7.21507 5.52438V5.52386Z" fill="url(#paint3_linear_249_1153)"/>
<path d="M7.48261 6.92261C7.42145 6.92261 7.37589 6.92106 7.3503 6.91769C7.11587 6.88615 6.86353 6.76387 6.86353 6.56998C6.86353 6.55628 7.07569 5.10183 7.2876 5.01005C7.3956 4.96326 8.00573 4.90613 8.26293 4.88363L8.2852 5.14448C7.93407 5.17499 7.53866 5.21842 7.41633 5.24402C7.3288 5.43894 7.143 6.38255 7.1238 6.5568C7.14735 6.58213 7.2336 6.63797 7.38434 6.65814C7.49694 6.67339 8.29851 6.63616 9.42663 6.56326C9.47398 6.56016 9.51826 6.54361 9.55485 6.51543C9.72325 6.3854 10.3395 5.96012 11.2012 5.94461C12.0325 5.92807 12.7468 6.26467 12.9454 6.36756C12.9827 6.38695 13.0224 6.39574 13.0649 6.39419C13.1575 6.39005 13.3037 6.3841 13.4808 6.37712C14.1567 6.34998 15.5632 6.29362 15.715 6.25536C15.9077 6.20676 16.0226 6.09068 16.0667 5.90015C16.1186 5.67601 16.254 4.819 16.2862 4.53049C16.1805 4.52765 15.9899 4.54238 15.8304 4.56203L15.7992 4.30222C16.4605 4.2213 16.5268 4.2942 16.5491 4.4064C16.5734 4.52972 16.3525 5.81483 16.319 5.95961C16.2527 6.24657 16.0656 6.43658 15.778 6.50923C15.6139 6.55059 14.5582 6.59583 13.491 6.63849C13.3144 6.64547 13.1688 6.65142 13.0762 6.65555C12.9899 6.65995 12.9037 6.6403 12.8266 6.60023C12.6418 6.50432 11.9795 6.19254 11.2058 6.20624C10.4232 6.22046 9.86478 6.60566 9.71225 6.72329C9.6347 6.783 9.5418 6.81816 9.44301 6.82463C8.83826 6.86366 7.86036 6.92261 7.48236 6.92261H7.48261Z" fill="url(#paint4_linear_249_1153)"/>
<path fill-rule="evenodd" clip-rule="evenodd" d="M8.02226 4.73458L7.93345 4.87315C7.93345 4.87315 7.77606 4.88039 7.75431 5.04403C7.7369 5.17614 7.85565 5.2568 7.85565 5.2568L7.85386 5.4556C7.85386 5.4556 12.9957 5.10117 15.8603 4.92666L15.9693 4.6927C15.9693 4.6927 15.7369 4.43573 15.893 4.29406L15.9693 4.14282C15.9693 4.14282 11.5208 4.34576 8.02201 4.73458H8.02226Z" fill="url(#paint5_linear_249_1153)"/>
<path style="mix-blend-mode:screen" fill-rule="evenodd" clip-rule="evenodd" d="M7.78918 4.95161C7.78918 4.95161 14.074 4.50489 15.8145 4.43224C15.8145 4.43224 15.8215 4.32676 15.8931 4.29419C15.8931 4.29419 10.3385 4.60157 7.93327 4.87328C7.93327 4.87328 7.81887 4.88698 7.78918 4.95187V4.95161Z" fill="url(#paint6_radial_249_1153)"/>
<path fill-rule="evenodd" clip-rule="evenodd" d="M14.6997 6.2189C14.6997 6.2189 14.4958 6.46553 14.7448 6.67157C14.7448 6.67157 15.7101 6.7044 15.9697 6.65528C16.2289 6.60616 16.3244 6.47561 16.3727 6.19796C16.4209 5.9203 16.503 5.17989 16.503 5.17989C16.503 5.17989 16.3249 5.02736 16.0713 5.17731C16.0713 5.17731 15.972 5.85334 15.9497 5.95443C15.9177 6.09894 15.8243 6.16486 15.7229 6.17469C15.6216 6.18451 14.7 6.2189 14.7 6.2189H14.6997Z" fill="url(#paint7_linear_249_1153)"/>
<path fill-rule="evenodd" clip-rule="evenodd" d="M8.48704 6.97106C8.48704 6.97106 8.32939 6.82964 8.48064 6.52433C8.48064 6.52433 7.73078 6.57888 7.5094 6.56259C7.28803 6.5463 7.27548 6.41911 7.27011 6.30458C7.26474 6.19006 7.36736 5.71748 7.36736 5.71748C7.36736 5.71748 7.18873 5.56598 6.9589 5.71748C6.9589 5.71748 6.82224 6.43876 6.85269 6.63549C6.88136 6.82085 7.04336 6.98631 7.31336 7.0026C7.58336 7.01888 8.4873 6.97132 8.4873 6.97132L8.48704 6.97106Z" fill="url(#paint8_linear_249_1153)"/>
<path fill-rule="evenodd" clip-rule="evenodd" d="M8.4807 6.52417L8.53777 6.61414L8.4871 6.61853C8.4871 6.61853 8.44743 6.72737 8.4871 6.88145L8.53777 6.8768C8.53777 6.8768 8.53931 6.91066 8.4871 6.97116C8.4871 6.97116 8.40674 6.91428 8.40674 6.75477C8.40674 6.59526 8.4807 6.52443 8.4807 6.52443V6.52417Z" fill="url(#paint9_radial_249_1153)"/>
<path style="mix-blend-mode:screen" fill-rule="evenodd" clip-rule="evenodd" d="M9.94385 6.36603C9.94385 6.36603 10.5862 5.98342 11.841 6.07158C11.841 6.07158 10.6563 5.73886 9.94385 6.36603Z" fill="url(#paint10_radial_249_1153)"/>
<path style="mix-blend-mode:screen" opacity="0.5" fill-rule="evenodd" clip-rule="evenodd" d="M18.8616 4.06289C18.8616 4.06289 20.2006 4.05436 20.4811 4.29401C20.7542 4.5272 19.3396 15.5204 19.3706 21.151C19.3706 21.151 20.2144 7.94979 20.9415 4.06057C20.9415 4.06057 19.8551 4.0448 18.8616 4.06289Z" fill="url(#paint11_radial_249_1153)"/>
<path fill-rule="evenodd" clip-rule="evenodd" d="M4.90564 10.5464L16.2706 9.91374C16.2706 9.91374 16.5027 8.37295 16.795 7.33472L5.40623 8.10253C5.40623 8.10253 5.02081 9.16532 4.90564 10.5464Z" fill="#9EDCFF"/>
<path style="mix-blend-mode:multiply" opacity="0.2" fill-rule="evenodd" clip-rule="evenodd" d="M17.921 29.1392L3.81589 29.27C3.81589 29.27 2.93243 26.8577 2.67932 22.2144C8.71177 29.0523 16.795 24.6654 17.6329 22.143C17.8573 13.1498 19.538 5.20485 19.6329 4.81396C19.5329 5.31214 17.0281 17.8792 17.921 29.1392Z" fill="url(#paint12_linear_249_1153)"/>
<path fill-rule="evenodd" clip-rule="evenodd" d="M17.921 29.1392C17.921 29.1392 16.5946 20.5619 19.6329 4.81396C19.6329 4.81396 17.0696 17.8826 17.921 29.1392Z" fill="url(#paint13_linear_249_1153)"/>
<g style="mix-blend-mode:multiply" opacity="0.3">
<path fill-rule="evenodd" clip-rule="evenodd" d="M17.3473 11.3389C13.0208 11.5328 8.70793 11.9268 4.38635 12.1998C4.41962 12.0284 4.43651 11.9429 4.47132 11.7712C8.78753 11.4902 13.0938 11.0822 17.4151 10.8811C17.3879 11.0654 17.3746 11.1569 17.3473 11.3389Z" fill="#B589B6"/>
<path fill-rule="evenodd" clip-rule="evenodd" d="M17.2219 12.1702C13.7062 12.3199 10.1995 12.5921 6.68945 12.8354C6.71888 12.6629 6.73398 12.5766 6.7647 12.4039C10.2722 12.1547 13.7763 11.875 17.2897 11.7219C17.2626 11.9021 17.249 11.9916 17.2216 12.1699L17.2219 12.1702Z" fill="#B589B6"/>
<path fill-rule="evenodd" clip-rule="evenodd" d="M16.9739 13.7915C13.2606 13.9479 9.55483 14.223 5.84619 14.4606C5.8705 14.2889 5.88279 14.2031 5.90864 14.0317C9.61855 13.7915 13.3254 13.5118 17.0402 13.3564C17.0136 13.5309 17.0003 13.6178 16.9739 13.7915Z" fill="#B589B6"/>
<path fill-rule="evenodd" clip-rule="evenodd" d="M9.14637 13.454C7.46723 13.5709 5.78784 13.6867 4.10742 13.7808C4.13455 13.6097 4.14863 13.5241 4.17755 13.3527C5.85745 13.2576 7.53633 13.1399 9.2147 13.0208C9.1868 13.1942 9.17324 13.2808 9.14637 13.454Z" fill="#B589B6"/>
<path fill-rule="evenodd" clip-rule="evenodd" d="M6.49701 12.8485C5.59999 12.9089 5.14955 12.9379 4.23999 12.9904C4.27019 12.8192 4.2858 12.7334 4.31754 12.5623C5.22633 12.5088 5.67625 12.479 6.57251 12.4172C6.54154 12.5899 6.5267 12.676 6.49701 12.8485Z" fill="#B589B6"/>
<path fill-rule="evenodd" clip-rule="evenodd" d="M5.58588 14.477C4.95041 14.5163 4.63127 14.5354 3.98889 14.5711C4.01295 14.3997 4.02549 14.3141 4.05134 14.143C4.69371 14.107 5.01286 14.0879 5.64832 14.0481C5.62273 14.2198 5.61019 14.3053 5.58588 14.477Z" fill="#B589B6"/>
<path fill-rule="evenodd" clip-rule="evenodd" d="M17.0969 12.9862C14.5228 13.094 11.9533 13.2597 9.3833 13.4373C9.41017 13.2641 9.42374 13.1775 9.45163 13.0038C12.0214 12.8228 14.5906 12.654 17.1645 12.5457C17.1374 12.7225 17.1238 12.8106 17.0969 12.9862Z" fill="#B589B6"/>
<path fill-rule="evenodd" clip-rule="evenodd" d="M16.7994 14.9683C13.0667 15.132 9.34067 15.4006 5.61182 15.6345C5.63203 15.4629 5.64227 15.377 5.66403 15.2054C9.39646 14.9701 13.1258 14.6982 16.8626 14.5374C16.837 14.71 16.8245 14.7961 16.7997 14.9686L16.7994 14.9683Z" fill="#B589B6"/>
<path fill-rule="evenodd" clip-rule="evenodd" d="M16.6872 15.764C13.6624 15.901 10.6415 16.0993 7.62 16.2958C7.63817 16.1233 7.64764 16.0372 7.66734 15.8648C10.6929 15.6668 13.718 15.4672 16.7471 15.3328C16.7228 15.5052 16.7108 15.5913 16.6872 15.764Z" fill="#B589B6"/>
<path fill-rule="evenodd" clip-rule="evenodd" d="M7.35488 16.313C6.626 16.3598 6.26079 16.3831 5.52551 16.4281C5.54266 16.2559 5.55187 16.1698 5.57056 15.9981C6.3066 15.9532 6.67232 15.9296 7.40171 15.8823C7.38226 16.0545 7.37279 16.1406 7.35488 16.313Z" fill="#B589B6"/>
<path d="M3.70814 16.5778L3.713 16.5272C3.76265 16.0119 3.79055 15.7599 3.85556 15.2431L3.86016 15.2072L3.89625 15.2051C4.45135 15.1743 4.72724 15.158 5.27672 15.1247L5.32867 15.1216L5.32202 15.1738C5.25599 15.6929 5.22758 15.9445 5.17691 16.4558L5.17332 16.4928L5.13647 16.4949C4.58802 16.5277 4.31238 16.5437 3.75805 16.5747L3.70789 16.5776L3.70814 16.5778ZM3.93668 15.2904C3.87705 15.7653 3.84916 16.0161 3.80386 16.4853C4.3129 16.4569 4.58725 16.4408 5.09501 16.4103C5.14184 15.9398 5.17025 15.6883 5.22988 15.2152C4.72571 15.2457 4.4511 15.2617 3.93668 15.2904Z" fill="#B589B6"/>
<path fill-rule="evenodd" clip-rule="evenodd" d="M16.513 17.1278C15.4115 17.1782 14.3102 17.2366 13.2092 17.3005C13.2271 17.1252 13.2364 17.0378 13.2556 16.8633C14.3586 16.7992 15.4619 16.7413 16.5657 16.6919C16.544 16.8659 16.5335 16.953 16.5127 17.128L16.513 17.1278Z" fill="#B589B6"/>
<path fill-rule="evenodd" clip-rule="evenodd" d="M12.9655 17.3143C10.4464 17.4651 7.92862 17.631 5.40979 17.7843C5.42207 17.6111 5.42847 17.5245 5.44229 17.3518C7.96548 17.197 10.4879 17.0287 13.0113 16.8774C12.9924 17.0519 12.9832 17.1393 12.9655 17.3146V17.3143Z" fill="#B589B6"/>
<path fill-rule="evenodd" clip-rule="evenodd" d="M16.4224 17.9406C14.7696 18.0218 13.1176 18.1138 11.4658 18.2123C11.4799 18.0355 11.4873 17.9473 11.5027 17.7715C13.1583 17.6717 14.8139 17.5792 16.4702 17.4988C16.4505 17.6748 16.4408 17.763 16.4224 17.9406Z" fill="#B589B6"/>
<path fill-rule="evenodd" clip-rule="evenodd" d="M11.1951 18.2289C9.25032 18.3483 7.30553 18.4706 5.36023 18.5861C5.36944 18.4119 5.37456 18.325 5.38531 18.1513C7.33419 18.0339 9.28257 17.9096 11.2312 17.7883C11.2161 17.9641 11.2087 18.0523 11.1949 18.2289H11.1951Z" fill="#B589B6"/>
<path d="M3.55615 18.7316L3.55846 18.6835C3.58302 18.1623 3.59889 17.9084 3.63831 17.3901L3.64112 17.3521L3.679 17.35C4.23231 17.3193 4.50692 17.3032 5.05435 17.2707L5.104 17.2678L5.10016 17.318C5.05844 17.8371 5.04181 18.091 5.01494 18.6111L5.01289 18.6501L4.97424 18.6522C4.42912 18.6838 4.15553 18.699 3.60401 18.7293L3.55641 18.7318L3.55615 18.7316ZM3.72148 17.4348C3.6854 17.911 3.66953 18.1639 3.64675 18.6393C4.15374 18.6116 4.4263 18.5964 4.93022 18.5672C4.95505 18.0886 4.97168 17.8348 5.00982 17.3604C4.50692 17.3904 4.23334 17.4061 3.72148 17.4346V17.4348Z" fill="#B589B6"/>
<path fill-rule="evenodd" clip-rule="evenodd" d="M16.1629 21.7317C15.089 21.7753 14.0152 21.8206 12.9413 21.8663C12.9438 21.6725 12.9456 21.5763 12.95 21.3852C14.0267 21.3356 15.1034 21.287 16.1803 21.2407C16.1724 21.4354 16.1688 21.5336 16.1629 21.7317Z" fill="#B589B6"/>
<path fill-rule="evenodd" clip-rule="evenodd" d="M9.36257 22.8934C8.02177 22.9366 6.68071 22.9782 5.33991 23.0183C5.33223 22.8363 5.32865 22.7455 5.32251 22.5646C6.66638 22.518 8.01 22.4689 9.35361 22.4177C9.35617 22.607 9.35796 22.7021 9.36257 22.8934Z" fill="#B589B6"/>
<path fill-rule="evenodd" clip-rule="evenodd" d="M12.7035 21.8763C10.8657 21.9547 9.02788 22.033 7.19007 22.108C7.187 21.9244 7.18597 21.8329 7.18469 21.6506C9.02711 21.5676 10.8693 21.4816 12.7117 21.3962C12.7076 21.587 12.7061 21.6829 12.7038 21.8766L12.7035 21.8763Z" fill="#B589B6"/>
<path fill-rule="evenodd" clip-rule="evenodd" d="M6.91702 22.1191C6.27823 22.1447 5.95755 22.1574 5.31134 22.1822C5.30673 22.002 5.30494 21.9121 5.30212 21.7329C5.94936 21.7052 6.27055 21.6913 6.91088 21.6628C6.91242 21.8446 6.9137 21.9358 6.91702 22.1191Z" fill="#B589B6"/>
<path fill-rule="evenodd" clip-rule="evenodd" d="M16.1432 22.6615C14.55 22.7171 12.9566 22.7724 11.3635 22.827C11.3609 22.6313 11.3601 22.5341 11.3594 22.3407C12.9569 22.2784 14.5544 22.2156 16.1519 22.1541C16.1475 22.3552 16.1457 22.4565 16.1432 22.6615Z" fill="#B589B6"/>
<path fill-rule="evenodd" clip-rule="evenodd" d="M11.0489 22.8373C10.4846 22.8564 10.2031 22.8657 9.63929 22.8843C9.63494 22.6925 9.63341 22.5968 9.6311 22.4071C10.1962 22.3856 10.4785 22.3745 11.0443 22.3528C11.0454 22.5454 11.0464 22.6423 11.0492 22.8375L11.0489 22.8373Z" fill="#B589B6"/>
<path d="M3.56897 23.1122L3.56692 23.0698C3.54031 22.5356 3.5311 22.2753 3.51958 21.7435L3.51855 21.7006L3.56078 21.6988C4.10616 21.6766 4.37668 21.6652 4.91515 21.6422L4.95942 21.6404L4.96019 21.6851C4.96889 22.2218 4.97657 22.4852 5.00088 23.0271L5.00293 23.0713L4.95917 23.0726C4.42351 23.0881 4.15428 23.0959 3.6112 23.1109L3.56897 23.1119V23.1122ZM3.60711 21.7846C3.61785 22.2732 3.62681 22.5323 3.65138 23.023C4.15172 23.009 4.41993 23.0015 4.9131 22.987C4.89109 22.4886 4.88316 22.2254 4.87497 21.7316C4.37924 21.7528 4.10975 21.7642 3.60711 21.7846Z" fill="#B589B6"/>
<path fill-rule="evenodd" clip-rule="evenodd" d="M16.2923 19.3574C15.2039 19.4091 14.1154 19.466 13.0272 19.5257C13.0382 19.3434 13.0441 19.2527 13.0567 19.0723C14.1477 19.011 15.2387 18.9536 16.33 18.9014C16.3141 19.0829 16.3067 19.1739 16.2923 19.3577V19.3574Z" fill="#B589B6"/>
<path fill-rule="evenodd" clip-rule="evenodd" d="M12.7864 19.5389C10.2937 19.6782 7.80121 19.8251 5.30823 19.9616C5.31232 19.7855 5.31463 19.6976 5.32026 19.5221C7.81887 19.3807 10.3167 19.2284 12.8151 19.0854C12.8028 19.2659 12.7972 19.3564 12.7864 19.5386V19.5389Z" fill="#B589B6"/>
<path fill-rule="evenodd" clip-rule="evenodd" d="M16.2327 20.2154C14.6178 20.292 13.0032 20.3742 11.3885 20.4592C11.3949 20.2746 11.3985 20.1829 11.4065 20.0004C13.0252 19.9117 14.6442 19.8266 16.2634 19.7483C16.2504 19.9339 16.2443 20.0272 16.2327 20.2157V20.2154Z" fill="#B589B6"/>
<path fill-rule="evenodd" clip-rule="evenodd" d="M11.0702 20.4759C9.14587 20.5783 7.22181 20.6807 5.29724 20.7776C5.29801 20.6003 5.29903 20.5116 5.30159 20.335C7.23051 20.2329 9.15892 20.1251 11.0876 20.0181C11.0799 20.2003 11.0763 20.2921 11.0704 20.4762L11.0702 20.4759Z" fill="#B589B6"/>
<path d="M3.50958 20.9073V20.8618C3.50856 20.3352 3.51163 20.0785 3.52596 19.5542L3.52698 19.5139L3.56691 19.5118C4.11638 19.4831 4.38946 19.4681 4.93253 19.4384L4.97962 19.4358L4.97809 19.4834C4.9612 20.0084 4.95659 20.2662 4.9548 20.7967V20.838L4.91385 20.8401C4.37333 20.8667 4.10179 20.8796 3.55462 20.9052L3.50958 20.9073ZM3.61118 19.5966C3.59813 20.0782 3.5948 20.3336 3.59557 20.8158C4.09949 20.7923 4.36975 20.7793 4.86855 20.7548C4.87034 20.2664 4.87495 20.0089 4.8903 19.5278C4.39074 19.5552 4.11894 19.57 3.61118 19.5966Z" fill="#B589B6"/>
</g>
<path d="M11.2321 28.483L11.2303 28.3959L17.0394 28.2795L17.0409 28.3667L11.2321 28.483Z" fill="#B589B6"/>
<path fill-rule="evenodd" clip-rule="evenodd" d="M3.90271 15.85L4.09261 15.6801L4.43145 16.123C4.43145 16.123 4.78898 15.3009 5.32362 14.8733L5.52554 14.9764C5.52554 14.9764 4.80511 15.5959 4.57836 16.396H4.30016C4.30016 16.396 4.05371 15.9867 3.90271 15.8502V15.85Z" fill="url(#paint14_linear_249_1153)"/>
<path fill-rule="evenodd" clip-rule="evenodd" d="M3.70642 17.9249L3.89632 17.7551L4.23517 18.1979C4.23517 18.1979 4.5927 17.3758 5.12733 16.9482L5.32925 17.0514C5.32925 17.0514 4.60882 17.6708 4.38207 18.4709H4.10388C4.10388 18.4709 3.85742 18.0617 3.70642 17.9252V17.9249Z" fill="url(#paint15_linear_249_1153)"/>
<path fill-rule="evenodd" clip-rule="evenodd" d="M3.57483 22.3236L3.76473 22.1538L4.10357 22.5966C4.10357 22.5966 4.4611 21.7745 4.99574 21.3469L5.19766 21.4501C5.19766 21.4501 4.47723 22.0695 4.25048 22.8696H3.97228C3.97228 22.8696 3.72583 22.4604 3.57483 22.3239V22.3236Z" fill="url(#paint16_linear_249_1153)"/>
<path style="mix-blend-mode:screen" opacity="0.5" fill-rule="evenodd" clip-rule="evenodd" d="M19.0551 29.7302C19.0551 29.7302 18.6331 19.7483 19.9834 12.8357C19.9834 12.8357 18.9348 26.524 19.0551 29.7302Z" fill="url(#paint17_radial_249_1153)"/>
<path fill-rule="evenodd" clip-rule="evenodd" d="M2.02309 21.9503L1.91278 21.7512L1.14475 22.1855L0.376709 22.6199L0.487013 22.8189C0.31759 23.2111 0.44888 23.5725 0.44888 23.5725L2.27492 26.6978C2.27492 26.6978 2.68773 26.7149 3.40791 26.3077C4.18567 25.8679 4.35381 25.5267 4.35381 25.5267L2.67903 22.3117C2.67903 22.3117 2.44281 22.0097 2.02334 21.9505L2.02309 21.9503Z" fill="url(#paint18_linear_249_1153)"/>
<path style="mix-blend-mode:multiply" fill-rule="evenodd" clip-rule="evenodd" d="M0.48705 22.819C0.48705 22.819 0.847651 22.7379 1.32931 22.4656C1.81096 22.1934 2.02312 21.9507 2.02312 21.9507L1.96247 21.8413L0.421021 22.7004L0.486794 22.819H0.48705Z" fill="url(#paint19_linear_249_1153)"/>
<path fill-rule="evenodd" clip-rule="evenodd" d="M0 22.3647L0.262581 22.7476C0.262581 22.7476 0.527209 22.7243 1.22487 22.3298C1.92252 21.9353 2.11037 21.7029 2.11037 21.7029L1.93941 21.2683C1.93941 21.2683 1.63486 21.5224 0.943602 21.9133C0.252344 22.3042 0 22.3647 0 22.3647Z" fill="url(#paint20_radial_249_1153)"/>
<path fill-rule="evenodd" clip-rule="evenodd" d="M0 22.3647C0 22.3647 0.786207 21.6145 1.93941 21.2683C1.93941 21.2683 1.64612 21.516 0.943603 21.9133C0.240827 22.3107 0 22.3647 0 22.3647Z" fill="#5CE5FF"/>
<path fill-rule="evenodd" clip-rule="evenodd" d="M0.137158 22.2453L0.0480957 22.1631C0.0480957 22.1631 0.785421 21.5367 1.76485 21.1802L1.81809 21.3368C1.81809 21.3368 1.52351 21.5331 0.960219 21.8516C0.396924 22.1701 0.137414 22.245 0.137414 22.245L0.137158 22.2453Z" fill="#5CE5FF"/>
<path fill-rule="evenodd" clip-rule="evenodd" d="M0.0478516 22.1631C0.0478516 22.1631 0.394888 22.031 0.923122 21.7324C1.4511 21.4338 1.76461 21.1802 1.76461 21.1802L1.81144 21.3136C1.81144 21.3136 1.55808 21.5284 0.966117 21.8629C0.439676 22.1605 0.147151 22.2543 0.147151 22.2543L0.0478516 22.1628V22.1631Z" fill="url(#paint21_radial_249_1153)"/>
<g style="mix-blend-mode:multiply" opacity="0.3">
<path fill-rule="evenodd" clip-rule="evenodd" d="M0.286393 22.707L0.06604 22.3719L0.0924005 22.3569L0.305588 22.6961L0.286393 22.707Z" fill="#AFA4C6"/>
</g>
<g style="mix-blend-mode:multiply" opacity="0.3">
<path fill-rule="evenodd" clip-rule="evenodd" d="M0.469377 22.6579L0.249023 22.3229L0.27564 22.3079L0.488571 22.647L0.469377 22.6579Z" fill="#AFA4C6"/>
</g>
<g style="mix-blend-mode:multiply" opacity="0.3">
<path fill-rule="evenodd" clip-rule="evenodd" d="M0.658207 22.5764L0.43811 22.2413L0.464471 22.2263L0.677658 22.5655L0.658207 22.5764Z" fill="#AFA4C6"/>
</g>
<g style="mix-blend-mode:multiply" opacity="0.3">
<path fill-rule="evenodd" clip-rule="evenodd" d="M0.853044 22.4836L0.63269 22.1485L0.659051 22.1338L0.872238 22.4727L0.853044 22.4836Z" fill="#AFA4C6"/>
</g>
<g style="mix-blend-mode:multiply" opacity="0.3">
<path fill-rule="evenodd" clip-rule="evenodd" d="M1.8347 21.9009L1.64685 21.5475L1.67321 21.5325L1.85415 21.89L1.8347 21.9009Z" fill="#AFA4C6"/>
</g>
<g style="mix-blend-mode:multiply" opacity="0.3">
<path fill-rule="evenodd" clip-rule="evenodd" d="M1.07254 22.3595L0.865234 22.0169L0.891595 22.0022L1.09173 22.3486L1.07254 22.3595Z" fill="#AFA4C6"/>
</g>
<g style="mix-blend-mode:multiply" opacity="0.3">
<path fill-rule="evenodd" clip-rule="evenodd" d="M1.35741 22.1985L1.15625 21.8526L1.18261 21.8379L1.3766 22.1877L1.35741 22.1985Z" fill="#AFA4C6"/>
</g>
<g style="mix-blend-mode:multiply" opacity="0.3">
<path fill-rule="evenodd" clip-rule="evenodd" d="M2.01086 21.7494L1.83606 21.3885L1.86242 21.3738L2.03005 21.7386L2.01086 21.7494Z" fill="#AFA4C6"/>
</g>
<g style="mix-blend-mode:multiply" opacity="0.3">
<path fill-rule="evenodd" clip-rule="evenodd" d="M1.62078 22.0495L1.42346 21.7015L1.44982 21.6865L1.63998 22.0386L1.62078 22.0495Z" fill="#AFA4C6"/>
</g>
<path style="mix-blend-mode:screen" opacity="0.5" fill-rule="evenodd" clip-rule="evenodd" d="M0.521345 22.8811C0.521345 22.8811 0.41104 23.2195 0.488842 23.4938L2.34047 26.6056C2.34047 26.6056 2.57772 26.5888 2.95163 26.3647L1.1888 23.098C1.1888 23.098 1.06749 22.827 1.07389 22.6492C1.07389 22.6492 0.743233 22.7883 0.521345 22.8808V22.8811Z" fill="url(#paint22_linear_249_1153)"/>
<g style="mix-blend-mode:soft-light" opacity="0.6">
<path fill-rule="evenodd" clip-rule="evenodd" d="M0.488839 23.4938C0.488839 23.4938 0.785714 23.432 1.2405 23.1918C1.2405 23.1918 1.07517 22.939 1.07363 22.6492L0.521086 22.8808C0.521086 22.8808 0.417691 23.2306 0.488583 23.4935L0.488839 23.4938Z" fill="#FBF9FA"/>
</g>
<path fill-rule="evenodd" clip-rule="evenodd" d="M1.16877 23.6083C1.43187 23.4945 2.09984 23.184 2.60171 22.7647C2.65494 22.7202 2.73479 22.7365 2.76678 22.7983L4.11424 25.3846C4.13625 25.427 4.12882 25.4787 4.0953 25.5126C3.94558 25.6643 3.48594 26.0782 2.68028 26.3641C2.6314 26.3815 2.5774 26.3608 2.55129 26.3155L1.1181 23.7644C1.08534 23.7075 1.10889 23.6344 1.16877 23.6085V23.6083Z" fill="url(#paint23_linear_249_1153)"/>
<path style="mix-blend-mode:screen" opacity="0.5" fill-rule="evenodd" clip-rule="evenodd" d="M4.11353 25.7087L2.50452 22.6405L2.68443 22.4497L4.27118 25.5329L4.11353 25.7087Z" fill="url(#paint24_linear_249_1153)"/>
<path fill-rule="evenodd" clip-rule="evenodd" d="M18.6459 11.2056L16.4697 2.13657C16.4132 1.90054 16.5585 1.66347 16.793 1.6097L23.4906 0.075362C23.727 0.0210722 23.9612 0.174893 24.0083 0.415061L25.8164 9.6327C25.862 9.86538 25.7148 10.0921 25.4853 10.1425L19.1557 11.5287C18.9271 11.5789 18.7009 11.4356 18.6459 11.2061V11.2056Z" fill="url(#paint25_radial_249_1153)"/>
<path fill-rule="evenodd" clip-rule="evenodd" d="M18.6312 11.1414L16.4551 2.07237C16.3985 1.83634 16.5439 1.59928 16.7783 1.5455L23.4759 0.0109089C23.7124 -0.043381 23.9466 0.11044 23.9937 0.350608L25.8018 9.56825C25.8473 9.80092 25.7002 10.0276 25.4706 10.0781L19.141 11.4643C18.9125 11.5144 18.6863 11.3712 18.6312 11.1416V11.1414Z" fill="url(#paint26_linear_249_1153)"/>
<path fill-rule="evenodd" clip-rule="evenodd" d="M22.1582 10.3549L20.131 1.00899L20.3196 0.96582L22.3258 10.3163L22.1582 10.3549Z" fill="url(#paint27_linear_249_1153)"/>
<path style="mix-blend-mode:screen" opacity="0.5" fill-rule="evenodd" clip-rule="evenodd" d="M21.9168 8.97178C21.9168 8.97178 20.6136 3.34606 20.4017 2.00122C20.4017 2.00122 21.6755 7.58868 21.9168 8.97178Z" fill="url(#paint28_linear_249_1153)"/>
<path style="mix-blend-mode:screen" opacity="0.5" fill-rule="evenodd" clip-rule="evenodd" d="M17.6098 2.44106L19.2193 2.07215C19.4719 2.01424 19.7263 1.95607 19.7923 2.48294C19.8563 2.76784 19.7035 3.04549 19.4509 3.1034L17.8414 3.47231C17.5888 3.53022 17.3324 3.34615 17.2684 3.06152C17.1291 2.66288 17.3572 2.49897 17.6098 2.44106Z" fill="url(#paint29_linear_249_1153)"/>
<g style="mix-blend-mode:multiply" opacity="0.5">
<path fill-rule="evenodd" clip-rule="evenodd" d="M17.7726 2.61341L19.1461 2.29853C19.3616 2.24916 19.5787 2.19952 19.625 2.60333C19.6739 2.82101 19.5387 3.03765 19.3232 3.08703L17.9497 3.40191C17.7342 3.45129 17.5197 3.31479 17.4709 3.09711C17.3603 2.79335 17.5571 2.66279 17.7726 2.61341Z" fill="#7E6DA5"/>
</g>
<path fill-rule="evenodd" clip-rule="evenodd" d="M19.5971 2.38958C19.5971 2.57443 19.4709 2.74169 19.2851 2.78409L18.4692 2.97074L17.9115 3.09923C17.6958 3.14809 17.4818 3.01237 17.4332 2.79443C17.4265 2.76393 17.4232 2.73368 17.4232 2.70395C17.4232 2.51988 17.5494 2.35339 17.7342 2.31048L18.3353 2.17268L19.108 1.99611C19.3237 1.94622 19.5377 2.08298 19.5871 2.30014C19.5937 2.33064 19.5971 2.36011 19.5971 2.38958Z" fill="url(#paint30_radial_249_1153)"/>
<path style="mix-blend-mode:screen" opacity="0.5" fill-rule="evenodd" clip-rule="evenodd" d="M18.1117 4.67617L19.7213 4.30726C19.9739 4.24935 20.2282 4.19118 20.2943 4.71805C20.3583 5.00294 20.2055 5.2806 19.9529 5.33851L18.3433 5.70742C18.0907 5.76533 17.8343 5.58126 17.7703 5.29663C17.6311 4.89798 17.8591 4.73408 18.1117 4.67617Z" fill="url(#paint31_linear_249_1153)"/>
<g style="mix-blend-mode:multiply" opacity="0.5">
<path fill-rule="evenodd" clip-rule="evenodd" d="M18.2745 4.84901L19.6481 4.53413C19.8636 4.48475 20.0809 4.43511 20.1269 4.83893C20.1758 5.0566 20.0407 5.27325 19.8252 5.32262L18.4516 5.63751C18.2362 5.68688 18.0217 5.55038 17.9728 5.33271C17.8622 5.02894 18.0591 4.89839 18.2745 4.84901Z" fill="#7E6DA5"/>
</g>
<path fill-rule="evenodd" clip-rule="evenodd" d="M20.099 4.62613C20.099 4.8102 19.9728 4.97669 19.787 5.0196L19.0103 5.19773L18.4142 5.33448C18.1985 5.38334 17.9838 5.24762 17.9352 5.02969C17.9285 4.99918 17.9252 4.96893 17.9252 4.9392C17.9252 4.75513 18.0513 4.58864 18.2371 4.54573L18.8199 4.41233L19.6107 4.23085C19.8257 4.18199 20.0404 4.31875 20.089 4.53565C20.0957 4.56615 20.099 4.5964 20.099 4.62613Z" fill="url(#paint32_radial_249_1153)"/>
<path style="mix-blend-mode:screen" opacity="0.5" fill-rule="evenodd" clip-rule="evenodd" d="M18.6072 6.88296L20.2167 6.51405C20.4693 6.45614 20.7237 6.39797 20.7898 6.92484C20.8537 7.20973 20.701 7.48739 20.4484 7.54529L18.8388 7.91421C18.5862 7.97212 18.3298 7.78805 18.2658 7.50341C18.1266 7.10477 18.3546 6.94087 18.6072 6.88296Z" fill="url(#paint33_linear_249_1153)"/>
<g style="mix-blend-mode:multiply" opacity="0.5">
<path fill-rule="evenodd" clip-rule="evenodd" d="M18.7703 7.05537L20.1438 6.74048C20.3593 6.69111 20.5763 6.64121 20.6227 7.04528C20.6715 7.26296 20.5364 7.4796 20.3209 7.52898L18.9474 7.84386C18.7319 7.89324 18.5174 7.75674 18.4685 7.53906C18.358 7.2353 18.5548 7.10474 18.7703 7.05537Z" fill="#7E6DA5"/>
</g>
<path fill-rule="evenodd" clip-rule="evenodd" d="M20.5947 6.83195C20.5947 7.01679 20.4686 7.18328 20.2828 7.22645L19.5429 7.39527L18.9092 7.54056C18.6942 7.59046 18.4795 7.4537 18.4309 7.23576C18.4242 7.20526 18.4209 7.17578 18.4209 7.14528C18.4209 6.96121 18.5471 6.79472 18.7329 6.75258L19.3525 6.61065L20.1057 6.43744C20.3214 6.38858 20.5361 6.52431 20.5848 6.74224C20.5914 6.77275 20.5947 6.80222 20.5947 6.83169V6.83195Z" fill="url(#paint34_radial_249_1153)"/>
<path style="mix-blend-mode:screen" opacity="0.5" fill-rule="evenodd" clip-rule="evenodd" d="M19.1474 9.28823L20.7569 8.91932C21.0095 8.86141 21.2639 8.80324 21.3299 9.33011C21.3939 9.615 21.2411 9.89266 20.9885 9.95057L19.379 10.3195C19.1264 10.3774 18.87 10.1933 18.806 9.90869C18.6667 9.51004 18.8948 9.34614 19.1474 9.28823Z" fill="url(#paint35_linear_249_1153)"/>
<g style="mix-blend-mode:multiply" opacity="0.5">
<path fill-rule="evenodd" clip-rule="evenodd" d="M19.3102 9.46083L20.6837 9.14595C20.8992 9.09657 21.1165 9.04693 21.1626 9.45074C21.2115 9.66842 21.0763 9.88506 20.8608 9.93444L19.4873 10.2493C19.2718 10.2987 19.0573 10.1622 19.0084 9.94452C18.8979 9.64076 19.0947 9.5102 19.3102 9.46083Z" fill="#7E6DA5"/>
</g>
<path fill-rule="evenodd" clip-rule="evenodd" d="M21.1347 9.23801C21.1347 9.42208 21.0085 9.58857 20.8227 9.63148L20.1237 9.79099L19.4491 9.94559C19.2341 9.99548 19.0194 9.85873 18.9708 9.64157C18.9641 9.61106 18.9608 9.58081 18.9608 9.55108C18.9608 9.36624 19.087 9.19975 19.2728 9.15761L19.9333 9.0056L20.6456 8.84247C20.8613 8.79361 21.076 8.92933 21.1247 9.14727C21.1313 9.17778 21.1347 9.20802 21.1347 9.23775V9.23801Z" fill="url(#paint36_radial_249_1153)"/>
<path style="mix-blend-mode:screen" opacity="0.5" fill-rule="evenodd" clip-rule="evenodd" d="M21.2908 1.59756L22.9003 1.22865C23.1529 1.17074 23.4073 1.11257 23.4734 1.63944C23.5373 1.92433 23.3845 2.20199 23.1319 2.25989L21.5224 2.62881C21.2698 2.68672 21.0134 2.50265 20.9494 2.21801C20.8102 1.81937 21.0382 1.65547 21.2908 1.59756Z" fill="url(#paint37_linear_249_1153)"/>
<g style="mix-blend-mode:multiply" opacity="0.5">
<path fill-rule="evenodd" clip-rule="evenodd" d="M21.4539 1.76996L22.8274 1.45508C23.0429 1.40571 23.2602 1.35581 23.3063 1.75988C23.3551 1.97756 23.22 2.1942 23.0045 2.24358L21.631 2.55846C21.4155 2.60784 21.201 2.47134 21.1521 2.25366C21.0416 1.9499 21.2384 1.81934 21.4539 1.76996Z" fill="#7E6DA5"/>
</g>
<path fill-rule="evenodd" clip-rule="evenodd" d="M23.2784 1.54685C23.2784 1.73092 23.1522 1.89819 22.9664 1.94032L22.2081 2.11431L21.5928 2.25546C21.3771 2.30433 21.1631 2.1686 21.1137 1.95067C21.1071 1.92119 21.1038 1.89069 21.1038 1.86122C21.1038 1.67637 21.2299 1.50988 21.4157 1.46671L22.0243 1.32737L22.7893 1.1526C23.005 1.10271 23.219 1.23947 23.2684 1.4574C23.275 1.48687 23.2784 1.51738 23.2784 1.54685Z" fill="url(#paint38_radial_249_1153)"/>
<path style="mix-blend-mode:screen" opacity="0.5" fill-rule="evenodd" clip-rule="evenodd" d="M21.793 3.83267L23.4025 3.46375C23.6551 3.40584 23.9095 3.34768 23.9755 3.87455C24.0395 4.15944 23.8867 4.43709 23.6341 4.495L22.0246 4.86391C21.772 4.92182 21.5156 4.73776 21.4516 4.45312C21.3124 4.05448 21.5404 3.89058 21.793 3.83267Z" fill="url(#paint39_linear_249_1153)"/>
<g style="mix-blend-mode:multiply" opacity="0.5">
<path fill-rule="evenodd" clip-rule="evenodd" d="M21.9558 4.00532L23.3294 3.69044C23.5449 3.64106 23.7619 3.59116 23.8082 3.99523C23.8571 4.21291 23.722 4.42955 23.5065 4.47893L22.1329 4.79381C21.9174 4.84319 21.703 4.70669 21.6541 4.48901C21.5435 4.18525 21.7403 4.05469 21.9558 4.00532Z" fill="#7E6DA5"/>
</g>
<path fill-rule="evenodd" clip-rule="evenodd" d="M23.7803 3.78221C23.7803 3.96705 23.6541 4.13354 23.4683 4.17568L22.7292 4.34553L22.0955 4.49082C21.8798 4.53968 21.6651 4.40395 21.6164 4.18602C21.6098 4.15551 21.6064 4.12527 21.6064 4.09554C21.6064 3.91147 21.7326 3.74498 21.9184 3.70206L22.5454 3.55858L23.292 3.38796C23.507 3.33806 23.7217 3.47482 23.7703 3.69198C23.777 3.72249 23.7803 3.75273 23.7803 3.78246V3.78221Z" fill="url(#paint40_radial_249_1153)"/>
<path style="mix-blend-mode:screen" opacity="0.5" fill-rule="evenodd" clip-rule="evenodd" d="M22.2884 6.03945L23.8979 5.67054C24.1505 5.61263 24.4049 5.55446 24.4709 6.08133C24.5349 6.36623 24.3821 6.64388 24.1295 6.70179L22.52 7.0707C22.2674 7.12861 22.0109 6.94454 21.947 6.65991C21.8077 6.26127 22.0358 6.09736 22.2884 6.03945Z" fill="url(#paint41_linear_249_1153)"/>
<g style="mix-blend-mode:multiply" opacity="0.5">
<path fill-rule="evenodd" clip-rule="evenodd" d="M22.4512 6.2118L23.8247 5.89692C24.0402 5.84754 24.2575 5.79791 24.3036 6.20172C24.3525 6.4194 24.2173 6.63604 24.0018 6.68542L22.6283 7.0003C22.4128 7.04968 22.1983 6.91318 22.1494 6.6955C22.0389 6.39173 22.2357 6.26118 22.4512 6.2118Z" fill="#7E6DA5"/>
</g>
<path fill-rule="evenodd" clip-rule="evenodd" d="M24.2759 5.9882C24.2759 6.17304 24.1497 6.33953 23.9639 6.3827L23.2432 6.54816L22.5904 6.69759C22.3746 6.74645 22.1607 6.60969 22.112 6.39279C22.1054 6.36228 22.1021 6.33203 22.1021 6.3023C22.1021 6.11824 22.2282 5.95175 22.413 5.90883L23.0592 5.76018L23.7866 5.59369C24.0023 5.54483 24.2163 5.68056 24.2657 5.89849C24.2723 5.929 24.2756 5.95847 24.2756 5.98794L24.2759 5.9882Z" fill="url(#paint42_radial_249_1153)"/>
<path style="mix-blend-mode:screen" opacity="0.5" fill-rule="evenodd" clip-rule="evenodd" d="M22.8287 8.44473L24.4382 8.07581C24.6908 8.0179 24.9452 7.95974 25.0112 8.48661C25.0752 8.7715 24.9224 9.04915 24.6698 9.10706L23.0603 9.47597C22.8077 9.53388 22.5512 9.34982 22.4872 9.06518C22.348 8.66654 22.5761 8.50264 22.8287 8.44473Z" fill="url(#paint43_linear_249_1153)"/>
<g style="mix-blend-mode:multiply" opacity="0.5">
<path fill-rule="evenodd" clip-rule="evenodd" d="M22.9915 8.61738L24.365 8.3025C24.5805 8.25312 24.7975 8.20322 24.8439 8.60729C24.8927 8.82497 24.7576 9.04161 24.5421 9.09099L23.1686 9.40587C22.9531 9.45525 22.7386 9.31875 22.6897 9.10107C22.5792 8.79731 22.776 8.66675 22.9915 8.61738Z" fill="#7E6DA5"/>
</g>
<path fill-rule="evenodd" clip-rule="evenodd" d="M24.8159 8.39344C24.8159 8.57829 24.6898 8.74478 24.504 8.78795L23.8043 8.94849L23.1304 9.10309C22.9154 9.15195 22.7007 9.01519 22.6521 8.79829C22.6454 8.76778 22.6421 8.73754 22.6421 8.70781C22.6421 8.52374 22.7683 8.35725 22.9541 8.31433L23.6205 8.16155L24.3269 7.99945C24.5426 7.95059 24.7573 8.08632 24.806 8.30425C24.8126 8.33476 24.8159 8.36423 24.8159 8.3937V8.39344Z" fill="url(#paint44_radial_249_1153)"/>
<path fill-rule="evenodd" clip-rule="evenodd" d="M19.2854 2.78411L18.4695 2.97076L18.2806 2.19028L18.3359 2.17244L19.1086 1.99587C19.3243 1.94597 19.5383 2.08273 19.5877 2.29989C19.5943 2.3304 19.5976 2.35987 19.5976 2.38934C19.5976 2.57418 19.4715 2.74145 19.2857 2.78385L19.2854 2.78411Z" fill="url(#paint45_radial_249_1153)"/>
<path fill-rule="evenodd" clip-rule="evenodd" d="M19.787 5.0196L19.0102 5.19773L18.8196 4.41233L19.6104 4.23085C19.8254 4.18199 20.0401 4.31875 20.0887 4.53565C20.0954 4.56615 20.0987 4.5964 20.0987 4.62613C20.0987 4.8102 19.9725 4.97669 19.7867 5.0196H19.787Z" fill="url(#paint46_radial_249_1153)"/>
<path fill-rule="evenodd" clip-rule="evenodd" d="M20.2827 7.22621L19.5428 7.39503L19.3522 6.61041L20.1054 6.4372C20.3211 6.38834 20.5358 6.52406 20.5845 6.742C20.5911 6.7725 20.5944 6.80197 20.5944 6.83145C20.5944 7.01629 20.4683 7.18278 20.2825 7.22595L20.2827 7.22621Z" fill="url(#paint47_radial_249_1153)"/>
<path fill-rule="evenodd" clip-rule="evenodd" d="M21.1347 9.23801C21.1347 9.42208 21.0085 9.58857 20.8227 9.63148L20.1238 9.79099L19.9331 9.0056L20.6453 8.84247C20.8611 8.79361 21.0758 8.92933 21.1244 9.14727C21.1311 9.17778 21.1344 9.20802 21.1344 9.23775L21.1347 9.23801Z" fill="url(#paint48_radial_249_1153)"/>
<path fill-rule="evenodd" clip-rule="evenodd" d="M22.9666 1.94034L22.2083 2.11433L22.0243 1.32712L22.7893 1.15236C23.005 1.10247 23.219 1.23922 23.2684 1.45716C23.275 1.48663 23.2783 1.51714 23.2783 1.54661C23.2783 1.73068 23.1522 1.89794 22.9664 1.94008L22.9666 1.94034Z" fill="url(#paint49_radial_249_1153)"/>
<path fill-rule="evenodd" clip-rule="evenodd" d="M23.4683 4.17569L22.7292 4.34554L22.5452 3.55834L23.2917 3.38771C23.5067 3.33782 23.7214 3.47458 23.77 3.69174C23.7767 3.72224 23.78 3.75249 23.78 3.78222C23.78 3.96706 23.6538 4.13355 23.468 4.17569H23.4683Z" fill="url(#paint50_radial_249_1153)"/>
<path fill-rule="evenodd" clip-rule="evenodd" d="M23.964 6.3827L23.2433 6.54816L23.0593 5.76018L23.7867 5.59369C24.0024 5.54483 24.2164 5.68056 24.2658 5.89849C24.2724 5.929 24.2757 5.95847 24.2757 5.98794C24.2757 6.17278 24.1496 6.33927 23.9638 6.38245L23.964 6.3827Z" fill="url(#paint51_radial_249_1153)"/>
<path fill-rule="evenodd" clip-rule="evenodd" d="M24.8159 8.39346C24.8159 8.5783 24.6898 8.74479 24.504 8.78796L23.8043 8.94851L23.6202 8.1613L24.3266 7.99921C24.5423 7.95035 24.7571 8.08607 24.8057 8.30401C24.8123 8.33451 24.8157 8.36399 24.8157 8.39346H24.8159Z" fill="url(#paint52_radial_249_1153)"/>
<path style="mix-blend-mode:screen" fill-rule="evenodd" clip-rule="evenodd" d="M17.2933 2.82595C17.2933 2.82595 17.4174 2.66825 17.6025 2.60905C17.7875 2.54985 19.3046 2.21894 19.3046 2.21894C19.3046 2.21894 19.3131 2.07753 19.234 1.9873C19.234 1.9873 17.8302 2.27271 17.6178 2.35777C17.4054 2.44282 17.2598 2.67782 17.2598 2.67782C17.2598 2.67782 17.2383 2.77864 17.293 2.82595H17.2933Z" fill="url(#paint53_linear_249_1153)"/>
<path style="mix-blend-mode:screen" fill-rule="evenodd" clip-rule="evenodd" d="M21.4764 4.2178C21.4764 4.2178 21.6008 4.0601 21.7856 4.0009C21.9706 3.9417 23.4877 3.61079 23.4877 3.61079C23.4877 3.61079 23.4962 3.46937 23.4171 3.37915C23.4171 3.37915 22.0133 3.66456 21.8009 3.74961C21.5885 3.83467 21.4429 4.06967 21.4429 4.06967C21.4429 4.06967 21.4214 4.17049 21.4761 4.2178H21.4764Z" fill="url(#paint54_linear_249_1153)"/>
<path style="mix-blend-mode:screen" fill-rule="evenodd" clip-rule="evenodd" d="M21.0008 1.94827C21.0008 1.94827 21.1252 1.79057 21.31 1.73137C21.495 1.67217 23.0121 1.34126 23.0121 1.34126C23.0121 1.34126 23.0206 1.19984 22.9415 1.10962C22.9415 1.10962 21.5378 1.39503 21.3253 1.48008C21.1129 1.56514 20.9673 1.80013 20.9673 1.80013C20.9673 1.80013 20.9458 1.90096 21.0006 1.94827H21.0008Z" fill="url(#paint55_linear_249_1153)"/>
<path style="mix-blend-mode:screen" fill-rule="evenodd" clip-rule="evenodd" d="M17.7954 5.06131C17.7954 5.06131 17.9198 4.90361 18.1045 4.8444C18.2896 4.7852 19.8067 4.45429 19.8067 4.45429C19.8067 4.45429 19.8151 4.31288 19.7361 4.22266C19.7361 4.22266 18.3323 4.50807 18.1199 4.59312C17.9075 4.67817 17.7618 4.91317 17.7618 4.91317C17.7618 4.91317 17.7404 5.01425 17.7951 5.06131H17.7954Z" fill="url(#paint56_linear_249_1153)"/>
<path style="mix-blend-mode:screen" fill-rule="evenodd" clip-rule="evenodd" d="M18.2909 7.26809C18.2909 7.26809 18.4152 7.11039 18.6 7.05119C18.7851 6.99199 20.3022 6.66108 20.3022 6.66108C20.3022 6.66108 20.3106 6.51967 20.2316 6.42944C20.2316 6.42944 18.8278 6.71485 18.6154 6.79991C18.403 6.88496 18.2573 7.11996 18.2573 7.11996C18.2573 7.11996 18.2358 7.22078 18.2906 7.26809H18.2909Z" fill="url(#paint57_linear_249_1153)"/>
<path style="mix-blend-mode:screen" fill-rule="evenodd" clip-rule="evenodd" d="M18.8309 9.67337C18.8309 9.67337 18.9553 9.51567 19.1401 9.45647C19.3251 9.39726 20.8422 9.06635 20.8422 9.06635C20.8422 9.06635 20.8507 8.92494 20.7716 8.83472C20.7716 8.83472 19.3678 9.12013 19.1554 9.20518C18.943 9.29024 18.7974 9.52523 18.7974 9.52523C18.7974 9.52523 18.7759 9.62606 18.8306 9.67337H18.8309Z" fill="url(#paint58_linear_249_1153)"/>
<path style="mix-blend-mode:screen" fill-rule="evenodd" clip-rule="evenodd" d="M22.5008 8.79202C22.5008 8.79202 22.6252 8.63432 22.81 8.57512C22.995 8.51592 24.5121 8.18501 24.5121 8.18501C24.5121 8.18501 24.5206 8.04359 24.4415 7.95337C24.4415 7.95337 23.0378 8.23878 22.8253 8.32383C22.6129 8.40889 22.4673 8.64388 22.4673 8.64388C22.4673 8.64388 22.4458 8.74471 22.5006 8.79202H22.5008Z" fill="url(#paint59_linear_249_1153)"/>
<path style="mix-blend-mode:screen" fill-rule="evenodd" clip-rule="evenodd" d="M21.9785 6.42239C21.9785 6.42239 22.1029 6.26469 22.2876 6.20549C22.4727 6.14629 23.9898 5.81538 23.9898 5.81538C23.9898 5.81538 23.9983 5.67396 23.9192 5.58374C23.9192 5.58374 22.5154 5.86915 22.303 5.9542C22.0906 6.03926 21.945 6.27426 21.945 6.27426C21.945 6.27426 21.9235 6.37508 21.9782 6.42239H21.9785Z" fill="url(#paint60_linear_249_1153)"/>
<path fill-rule="evenodd" clip-rule="evenodd" d="M9.06569 25.8579L9.12608 25.4598L7.59027 25.2222L6.05445 24.9846L5.99405 25.3827C5.33683 25.7431 5.13132 26.39 5.13132 26.39L4.58057 31.2057C4.58057 31.2057 5.13695 31.6822 6.57705 31.905C8.13206 32.1457 8.73298 31.8549 8.73298 31.8549L9.59059 27.0799C9.59059 27.0799 9.58624 26.4006 9.06594 25.8582L9.06569 25.8579Z" fill="url(#paint61_linear_249_1153)"/>
<path style="mix-blend-mode:multiply" fill-rule="evenodd" clip-rule="evenodd" d="M5.99402 25.3826C5.99402 25.3826 6.58316 25.6649 7.54647 25.8141C8.50952 25.963 9.06591 25.858 9.06591 25.858L9.09892 25.6396L6.0301 25.1453L5.99402 25.3826Z" fill="url(#paint62_linear_249_1153)"/>
<path fill-rule="evenodd" clip-rule="evenodd" d="M5.80387 24.2166L5.75806 25.0374C5.75806 25.0374 6.15116 25.2951 7.54622 25.511C8.94127 25.7268 9.45262 25.609 9.45262 25.609L9.68193 24.8166C9.68193 24.8166 8.98453 24.8365 7.60227 24.6227C6.22 24.4089 5.80387 24.2166 5.80387 24.2166Z" fill="url(#paint63_linear_249_1153)"/>
<path fill-rule="evenodd" clip-rule="evenodd" d="M5.80383 24.2164C5.80383 24.2164 7.7046 24.0342 9.68189 24.8164C9.68189 24.8164 9.00753 24.84 7.60223 24.6226C6.19694 24.4051 5.80383 24.2164 5.80383 24.2164Z" fill="url(#paint64_linear_249_1153)"/>
<path fill-rule="evenodd" clip-rule="evenodd" d="M6.12323 24.2004L6.0874 23.9884C6.0874 23.9884 7.78676 23.9246 9.5332 24.5024L9.43877 24.779C9.43877 24.779 8.81763 24.7291 7.6913 24.5548C6.56496 24.3806 6.12323 24.2004 6.12323 24.2004Z" fill="url(#paint65_linear_249_1153)"/>
<path fill-rule="evenodd" clip-rule="evenodd" d="M6.08743 23.9885C6.08743 23.9885 6.71266 24.1853 7.76835 24.3486C8.82431 24.512 9.53297 24.5027 9.53297 24.5027L9.45491 24.7398C9.45491 24.7398 8.8714 24.761 7.68748 24.5777C6.63485 24.4148 6.12684 24.2248 6.12684 24.2248L6.08691 23.9885H6.08743Z" fill="url(#paint66_linear_249_1153)"/>
<g style="mix-blend-mode:multiply" opacity="0.3">
<path fill-rule="evenodd" clip-rule="evenodd" d="M5.83484 25.0067L5.88807 24.2988L5.94079 24.3071L5.87323 25.0126L5.83484 25.0067Z" fill="#AFA4C6"/>
</g>
<g style="mix-blend-mode:multiply" opacity="0.3">
<path fill-rule="evenodd" clip-rule="evenodd" d="M6.14246 25.1392L6.19569 24.4312L6.24841 24.4394L6.18085 25.1452L6.14246 25.1392Z" fill="#AFA4C6"/>
</g>
<g style="mix-blend-mode:multiply" opacity="0.3">
<path fill-rule="evenodd" clip-rule="evenodd" d="M6.49304 25.233L6.54627 24.5251L6.599 24.5332L6.53143 25.2389L6.49304 25.233Z" fill="#AFA4C6"/>
</g>
<g style="mix-blend-mode:multiply" opacity="0.3">
<path fill-rule="evenodd" clip-rule="evenodd" d="M6.86365 25.3172L6.91688 24.6094L6.9696 24.6174L6.90204 25.3232L6.86365 25.3172Z" fill="#AFA4C6"/>
</g>
<g style="mix-blend-mode:multiply" opacity="0.3">
<path fill-rule="evenodd" clip-rule="evenodd" d="M8.85657 25.5825L8.97481 24.8848L9.02753 24.8928L8.89496 25.5885L8.85657 25.5825Z" fill="#AFA4C6"/>
</g>
<g style="mix-blend-mode:multiply" opacity="0.3">
<path fill-rule="evenodd" clip-rule="evenodd" d="M7.30261 25.3851L7.38221 24.6812L7.43493 24.6894L7.341 25.3911L7.30261 25.3851Z" fill="#AFA4C6"/>
</g>
<g style="mix-blend-mode:multiply" opacity="0.3">
<path fill-rule="evenodd" clip-rule="evenodd" d="M7.87207 25.4734L7.96395 24.7712L8.01667 24.7795L7.91046 25.4793L7.87207 25.4734Z" fill="#AFA4C6"/>
</g>
<g style="mix-blend-mode:multiply" opacity="0.3">
<path fill-rule="evenodd" clip-rule="evenodd" d="M9.26428 25.5647L9.40863 24.8708L9.4616 24.8789L9.30267 25.5707L9.26428 25.5647Z" fill="#AFA4C6"/>
</g>
<g style="mix-blend-mode:multiply" opacity="0.3">
<path fill-rule="evenodd" clip-rule="evenodd" d="M8.39893 25.5549L8.49797 24.854L8.55069 24.8623L8.43731 25.5608L8.39893 25.5549Z" fill="#AFA4C6"/>
</g>
<path fill-rule="evenodd" clip-rule="evenodd" d="M5.06509 26.9675C5.06509 26.9675 5.88533 27.346 7.0928 27.551C7.31238 27.5883 7.46082 27.7982 7.42217 28.0197L6.85837 31.2668C6.82177 31.4775 6.62931 31.6238 6.4192 31.5987C5.97004 31.5452 5.20559 31.3893 4.61133 30.9359L5.06509 26.9673V26.9675Z" fill="url(#paint67_linear_249_1153)"/>
<path fill-rule="evenodd" clip-rule="evenodd" d="M9.51384 27.5857C9.51384 27.5857 9.20801 27.7305 8.72866 27.77C8.60735 27.7801 8.50907 27.8745 8.49065 27.996L7.9875 31.3146C7.96216 31.4819 8.09447 31.63 8.26185 31.6228C8.43153 31.6153 8.63525 31.5967 8.78701 31.5525L9.51384 27.5857Z" fill="url(#paint68_linear_249_1153)"/>
<path style="mix-blend-mode:screen" opacity="0.5" fill-rule="evenodd" clip-rule="evenodd" d="M8.203 31.8446L8.99407 27.3466L9.44962 27.2781L8.61095 31.7728L8.203 31.8446Z" fill="url(#paint69_linear_249_1153)"/>
<path style="mix-blend-mode:screen" opacity="0.5" fill-rule="evenodd" clip-rule="evenodd" d="M5.97514 25.5063C5.97514 25.5063 5.45792 25.8564 5.2716 26.3238L4.77075 31.1489C4.77075 31.1489 5.11907 31.3857 5.88019 31.4837L6.67075 26.5404C6.67075 26.5404 6.79309 26.0301 6.99322 25.7897C6.99322 25.7897 6.3836 25.6209 5.97514 25.5063Z" fill="url(#paint70_linear_249_1153)"/>
<g style="mix-blend-mode:soft-light" opacity="0.6">
<path fill-rule="evenodd" clip-rule="evenodd" d="M5.27161 26.3238C5.27161 26.3238 5.75147 26.5634 6.64235 26.7279C6.64235 26.7279 6.68407 26.1943 6.99323 25.7897L5.97515 25.5063C5.97515 25.5063 5.45511 25.8799 5.27161 26.3238Z" fill="#FBF9FA"/>
</g>
<path fill-rule="evenodd" clip-rule="evenodd" d="M18.201 17.5796L18.2041 17.6238C18.2304 17.9658 17.9952 18.2722 17.6607 18.3321L16.3601 18.5661L15.3996 18.7388C15.0659 18.7988 14.7411 18.594 14.6477 18.2649C14.5415 17.889 14.7757 17.5015 15.1555 17.4258L17.4135 16.9757C17.802 16.8984 18.1703 17.1809 18.2005 17.5798L18.201 17.5796Z" fill="url(#paint71_radial_249_1153)"/>
<path fill-rule="evenodd" clip-rule="evenodd" d="M16.3604 18.5658L15.3999 18.7385C15.0661 18.7984 14.7414 18.5937 14.648 18.2646C14.5418 17.8887 14.7759 17.5012 15.1557 17.4254L16.0264 17.252C15.9215 18.155 16.3604 18.5658 16.3604 18.5658Z" fill="url(#paint72_radial_249_1153)"/>
<path style="mix-blend-mode:screen" opacity="0.5" fill-rule="evenodd" clip-rule="evenodd" d="M15.0846 17.444C15.0846 17.444 15.1314 17.8302 16.0177 17.7004C16.904 17.5707 17.5177 16.9631 17.5177 16.9631C17.5177 16.9631 16.2511 17.2064 15.0846 17.444Z" fill="url(#paint73_linear_249_1153)"/>
<path style="mix-blend-mode:screen" opacity="0.5" fill-rule="evenodd" clip-rule="evenodd" d="M15.4659 18.6895C15.4659 18.6895 15.6709 18.47 16.3166 18.3412C16.9621 18.2125 17.3872 18.3614 17.3872 18.3614L15.4659 18.6895Z" fill="url(#paint74_linear_249_1153)"/>
<path fill-rule="evenodd" clip-rule="evenodd" d="M17.5597 17.1786C17.5597 17.1786 17.5881 17.2955 17.7017 17.3234C17.8241 17.3537 17.8888 17.2986 17.8888 17.2986C17.8888 17.2986 17.8246 17.0807 17.5597 17.1786Z" fill="white"/>
<path fill-rule="evenodd" clip-rule="evenodd" d="M4.83269 6.57507L4.83576 6.61876C4.86187 6.95768 4.62872 7.26119 4.29729 7.3209L3.00819 7.55254L2.05614 7.72368C1.72548 7.78314 1.40353 7.5802 1.31114 7.25395C1.20569 6.88142 1.43782 6.49751 1.81454 6.42254L4.05237 5.97633C4.43728 5.89954 4.80249 6.17978 4.83243 6.57507H4.83269Z" fill="url(#paint75_radial_249_1153)"/>
<path fill-rule="evenodd" clip-rule="evenodd" d="M3.00843 7.55266L2.05638 7.7238C1.72573 7.78326 1.40377 7.58032 1.31138 7.25406C1.20594 6.88153 1.43806 6.49762 1.81479 6.42265L2.67752 6.25073C2.57336 7.14574 3.00843 7.55291 3.00843 7.55291V7.55266Z" fill="url(#paint76_radial_249_1153)"/>
<path style="mix-blend-mode:screen" opacity="0.5" fill-rule="evenodd" clip-rule="evenodd" d="M1.74414 6.44057C1.74414 6.44057 1.79046 6.82344 2.6688 6.6947C3.54715 6.56621 4.15523 5.96411 4.15523 5.96411C4.15523 5.96411 2.90016 6.20531 1.74414 6.44057Z" fill="url(#paint77_linear_249_1153)"/>
<path style="mix-blend-mode:screen" opacity="0.5" fill-rule="evenodd" clip-rule="evenodd" d="M2.12195 7.67487C2.12195 7.67487 2.32515 7.45719 2.96497 7.32974C3.60479 7.20229 4.02579 7.34965 4.02579 7.34965L2.12195 7.67487Z" fill="url(#paint78_linear_249_1153)"/>
<path fill-rule="evenodd" clip-rule="evenodd" d="M4.19702 6.17772C4.19702 6.17772 4.22517 6.29354 4.33778 6.3212C4.45883 6.35119 4.52333 6.29664 4.52333 6.29664C4.52333 6.29664 4.4596 6.08051 4.19702 6.17772Z" fill="white"/>
<path fill-rule="evenodd" clip-rule="evenodd" d="M15.8529 22.0288L15.8772 22.0065C16.0641 21.8338 16.3499 21.8328 16.5383 22.0034L17.271 22.6673L17.812 23.1577C18.0001 23.3281 18.0301 23.6145 17.8817 23.8211C17.712 24.0566 17.3795 24.0956 17.161 23.9051L15.8632 22.7728C15.64 22.5781 15.6351 22.2299 15.8529 22.0288Z" fill="url(#paint79_linear_249_1153)"/>
<path fill-rule="evenodd" clip-rule="evenodd" d="M17.2708 22.6675L17.8118 23.1579C17.9999 23.3283 18.0299 23.6147 17.8814 23.8213C17.7117 24.0568 17.3793 24.0958 17.1607 23.9053L16.6604 23.4686C17.2334 23.1165 17.2705 22.6677 17.2705 22.6677L17.2708 22.6675Z" fill="url(#paint80_linear_249_1153)"/>
<path style="mix-blend-mode:screen" opacity="0.5" fill-rule="evenodd" clip-rule="evenodd" d="M17.2042 23.9391C17.2042 23.9391 17.4071 23.7341 16.925 23.2682C16.4428 22.8023 15.8081 22.7173 15.8081 22.7173C15.8081 22.7173 16.5306 23.3566 17.2039 23.9393L17.2042 23.9391Z" fill="url(#paint81_linear_249_1153)"/>
<path style="mix-blend-mode:screen" opacity="0.5" fill-rule="evenodd" clip-rule="evenodd" d="M17.7531 23.1414C17.7531 23.1414 17.5315 23.1205 17.1604 22.7968C16.7893 22.4731 16.6808 22.1528 16.6808 22.1528L17.7531 23.1414Z" fill="url(#paint82_linear_249_1153)"/>
<path fill-rule="evenodd" clip-rule="evenodd" d="M16.4208 22.0113C16.4208 22.0113 16.3648 21.9415 16.2742 21.9325C16.1767 21.9226 16.1462 21.9834 16.1462 21.9834C16.1462 21.9834 16.2588 22.1416 16.4208 22.0111V22.0113Z" fill="white"/>
<path d="M15.6015 21.4548C15.7936 21.2295 15.7684 20.8894 15.5453 20.6954C15.3222 20.5013 14.9856 20.5267 14.7935 20.7521C14.6014 20.9775 14.6265 21.3175 14.8497 21.5115C15.0728 21.7056 15.4094 21.6802 15.6015 21.4548Z" fill="url(#paint83_radial_249_1153)"/>
<path fill-rule="evenodd" clip-rule="evenodd" d="M15.6104 20.9032C15.6104 20.9032 15.604 20.8138 15.5346 20.7538C15.4601 20.6894 15.4008 20.7217 15.4008 20.7217C15.4008 20.7217 15.4033 20.9167 15.6101 20.9032H15.6104Z" fill="white"/>
<path fill-rule="evenodd" clip-rule="evenodd" d="M15.674 27.8837C15.6899 28.083 15.5427 28.2578 15.3451 28.2738C15.1478 28.2898 14.9748 28.1412 14.9589 27.9416C14.9431 27.7423 15.0902 27.5675 15.2878 27.5515C15.4851 27.5354 15.6581 27.6841 15.674 27.8837Z" fill="url(#paint84_radial_249_1153)"/>
<path fill-rule="evenodd" clip-rule="evenodd" d="M15.5939 27.7787C15.5939 27.7787 15.5895 27.7185 15.543 27.6781C15.4928 27.6347 15.4529 27.6567 15.4529 27.6567C15.4529 27.6567 15.4547 27.7878 15.5939 27.7787Z" fill="white"/>
<path fill-rule="evenodd" clip-rule="evenodd" d="M18.5655 22.1904C18.5865 22.4548 18.3912 22.6865 18.1294 22.7077C17.8676 22.7289 17.6383 22.5316 17.6173 22.2672C17.5963 22.0027 17.7916 21.7711 18.0534 21.7499C18.3152 21.7287 18.5445 21.9259 18.5655 22.1904Z" fill="url(#paint85_radial_249_1153)"/>
<path fill-rule="evenodd" clip-rule="evenodd" d="M18.4593 22.0513C18.4593 22.0513 18.4537 21.9714 18.3917 21.9182C18.3252 21.8608 18.2725 21.8895 18.2725 21.8895C18.2725 21.8895 18.2748 22.0635 18.4593 22.0513Z" fill="white"/>
<path fill-rule="evenodd" clip-rule="evenodd" d="M20.7744 18.9545L22.2836 18.1425C22.5203 18.015 22.7589 17.8868 22.9408 18.3449C23.067 18.584 22.9772 18.8813 22.7404 19.0088L21.2312 19.8208C20.9945 19.9483 20.7002 19.8575 20.574 19.6184C20.3483 19.2983 20.5377 19.0819 20.7744 18.9545Z" fill="url(#paint86_radial_249_1153)"/>
<path fill-rule="evenodd" clip-rule="evenodd" d="M20.6899 18.7943L22.1991 17.9823C22.4358 17.8548 22.7301 17.9456 22.8563 18.1847C22.9825 18.4238 22.8927 18.7211 22.6559 18.8486L21.1467 19.6606C20.91 19.7881 20.6157 19.6973 20.4895 19.4582C20.3633 19.219 20.4532 18.9217 20.6899 18.7943Z" fill="url(#paint87_linear_249_1153)"/>
<path fill-rule="evenodd" clip-rule="evenodd" d="M20.739 18.7959L22.173 18.0245C22.398 17.9035 22.6774 17.9896 22.7972 18.2169C22.917 18.4441 22.8317 18.7264 22.6068 18.8477L21.1728 19.6191C20.9479 19.7401 20.6684 19.654 20.5486 19.4267C20.4288 19.1995 20.5141 18.9172 20.739 18.7959Z" fill="url(#paint88_linear_249_1153)"/>
<path fill-rule="evenodd" clip-rule="evenodd" d="M21.4068 18.4688L21.3794 18.5722L21.7221 19.2218L21.815 19.2441L21.8508 19.1585L21.5007 18.4949L21.4068 18.4688Z" fill="url(#paint89_linear_249_1153)"/>
<g style="mix-blend-mode:multiply" opacity="0.3">
<path fill-rule="evenodd" clip-rule="evenodd" d="M21.4067 18.4688L21.8149 19.2441L21.8508 19.1585L21.5007 18.4949L21.4067 18.4688Z" fill="#AFA4C6"/>
</g>
<path fill-rule="evenodd" clip-rule="evenodd" d="M1.57983 15.6874L3.08903 14.8754C3.32576 14.7479 3.56429 14.6197 3.74625 15.0778C3.87242 15.3169 3.78259 15.6142 3.54586 15.7417L2.03666 16.5537C1.79993 16.6812 1.50561 16.5904 1.37944 16.3513C1.15371 16.0312 1.3431 15.8148 1.57983 15.6874Z" fill="url(#paint90_radial_249_1153)"/>
<path fill-rule="evenodd" clip-rule="evenodd" d="M1.49568 15.5274L3.00488 14.7154C3.24161 14.588 3.53593 14.6787 3.6621 14.9178C3.78827 15.157 3.69844 15.4543 3.46171 15.5817L1.95251 16.3938C1.71578 16.5212 1.42146 16.4305 1.29529 16.1913C1.16912 15.9522 1.25895 15.6549 1.49568 15.5274Z" fill="url(#paint91_linear_249_1153)"/>
<path fill-rule="evenodd" clip-rule="evenodd" d="M1.54457 15.5289L2.97853 14.7574C3.20349 14.6364 3.48296 14.7225 3.60274 14.9498C3.72251 15.177 3.63729 15.4593 3.41233 15.5806L1.97837 16.352C1.75341 16.473 1.47394 16.3869 1.35416 16.1597C1.23439 15.9324 1.31961 15.6501 1.54457 15.5289Z" fill="url(#paint92_linear_249_1153)"/>
<path fill-rule="evenodd" clip-rule="evenodd" d="M2.21232 15.2019L2.18494 15.3051L2.52762 15.9547L2.62052 15.9772L2.65661 15.8914L2.30625 15.2278L2.21232 15.2019Z" fill="url(#paint93_linear_249_1153)"/>
<g style="mix-blend-mode:multiply" opacity="0.3">
<path fill-rule="evenodd" clip-rule="evenodd" d="M2.21228 15.2019L2.62048 15.9772L2.65657 15.8914L2.30621 15.2278L2.21228 15.2019Z" fill="#AFA4C6"/>
</g>
<path d="M6.69259 9.50122L6.65077 8.77515L6.92303 8.75915C6.9788 8.75587 7.02619 8.76352 7.06521 8.78209C7.10445 8.80065 7.13482 8.82757 7.15629 8.86282C7.17799 8.89783 7.19017 8.93838 7.19282 8.98447C7.1955 9.03103 7.18808 9.07297 7.17055 9.11028C7.15301 9.1476 7.1257 9.17778 7.08861 9.20083C7.05151 9.22364 7.00496 9.23669 6.94894 9.23999L6.7685 9.25059L6.76228 9.14246L6.92499 9.1329C6.95761 9.13098 6.98398 9.12374 7.00413 9.11117C7.02427 9.0986 7.03874 9.0821 7.04752 9.06167C7.05654 9.04121 7.0603 9.01811 7.05882 8.99235C7.05734 8.96658 7.05095 8.94419 7.03966 8.92517C7.0286 8.90614 7.01224 8.8918 6.99058 8.88217C6.96914 8.87228 6.942 8.86831 6.90915 8.87024L6.78862 8.87732L6.82411 9.49349L6.69259 9.50122ZM7.33504 9.46346L7.29322 8.73739L7.56547 8.72139C7.62125 8.71811 7.6686 8.72505 7.70753 8.74221C7.7467 8.75935 7.77698 8.78484 7.79837 8.81868C7.81999 8.85227 7.83213 8.89223 7.8348 8.93856C7.83748 8.98512 7.82988 9.02612 7.812 9.06155C7.79435 9.09674 7.76692 9.1248 7.72971 9.14572C7.69248 9.1664 7.64598 9.17839 7.59021 9.18166L7.39629 9.19306L7.39 9.08387L7.56619 9.07351C7.59881 9.0716 7.62525 9.06553 7.64553 9.05533C7.6658 9.04489 7.68039 9.03063 7.68931 9.01256C7.69845 8.99424 7.70228 8.97219 7.7008 8.94643C7.69931 8.92067 7.69297 8.89899 7.68176 8.88139C7.67053 8.86355 7.65425 8.85051 7.63291 8.84228C7.61155 8.83381 7.58445 8.83055 7.5516 8.83248L7.43107 8.83956L7.46656 9.45573L7.33504 9.46346ZM7.69115 9.11241L7.88983 9.43085L7.74307 9.43947L7.54758 9.12085L7.69115 9.11241ZM7.98431 9.4253L7.94249 8.69923L8.41468 8.67147L8.42103 8.78173L8.08036 8.80175L8.09171 8.99887L8.40793 8.98028L8.41428 9.09054L8.09806 9.10913L8.10948 9.30731L8.45299 9.28712L8.45934 9.39738L7.98431 9.4253ZM8.95492 8.83999C8.94983 8.80923 8.93449 8.78594 8.90892 8.77013C8.88358 8.75431 8.85142 8.74754 8.81242 8.74983C8.78501 8.75144 8.76173 8.75696 8.74259 8.76639C8.72345 8.77581 8.70909 8.78792 8.69951 8.80271C8.68993 8.81751 8.68554 8.83401 8.68636 8.85222C8.68723 8.86735 8.69141 8.88026 8.6989 8.89097C8.70663 8.90166 8.71675 8.91055 8.72925 8.91764C8.74174 8.9245 8.75546 8.9301 8.77041 8.93443C8.78537 8.93877 8.80039 8.94228 8.81548 8.94495L8.88453 8.95796C8.91231 8.96273 8.93916 8.96981 8.96507 8.9792C8.99122 8.98857 9.01482 9.00094 9.03586 9.0163C9.05714 9.03165 9.07436 9.05068 9.08752 9.07338C9.10069 9.09609 9.10817 9.12316 9.10998 9.15459C9.11243 9.19713 9.10372 9.23523 9.08384 9.26889C9.06395 9.30231 9.03397 9.32933 8.9939 9.34995C8.95404 9.37031 8.90505 9.38221 8.84691 9.38562C8.79043 9.38894 8.74088 9.38308 8.69828 9.36804C8.65592 9.35298 8.62207 9.32935 8.59674 9.29717C8.57164 9.26497 8.55676 9.22481 8.55209 9.17671L8.68149 9.1691C8.68484 9.19428 8.69385 9.21486 8.70852 9.23083C8.72319 9.24681 8.74176 9.25829 8.76421 9.26527C8.78691 9.27223 8.81196 9.27491 8.83937 9.2733C8.86797 9.27162 8.89278 9.26589 8.91379 9.25612C8.93503 9.2461 8.95135 9.23304 8.96276 9.21696C8.97415 9.20064 8.97936 9.18207 8.9784 9.16126C8.97708 9.14236 8.97063 9.12709 8.95905 9.11544C8.94745 9.10355 8.93161 9.09405 8.91152 9.08693C8.89165 9.07956 8.86852 9.07333 8.84215 9.06824L8.75832 9.05182C8.69765 9.03997 8.64904 9.01947 8.6125 8.99032C8.57618 8.96091 8.55653 8.92021 8.55353 8.86821C8.55107 8.82543 8.56049 8.78729 8.5818 8.75378C8.60335 8.72026 8.6337 8.69346 8.67285 8.67337C8.712 8.65305 8.75697 8.64139 8.80778 8.63841C8.85931 8.63538 8.90496 8.64171 8.94476 8.65739C8.98477 8.67283 9.0168 8.69573 9.04084 8.72609C9.06487 8.75622 9.07841 8.79171 9.08148 8.83256L8.95492 8.83999ZM9.83271 8.83393L9.70012 8.84173C9.69509 8.82021 9.68701 8.80135 9.67588 8.78517C9.66474 8.76875 9.65126 8.75507 9.63546 8.74415C9.61965 8.73322 9.60189 8.72537 9.58217 8.7206C9.56267 8.71558 9.54182 8.71372 9.5196 8.71503C9.48013 8.71735 9.44573 8.72933 9.41638 8.75097C9.38703 8.77238 9.36482 8.80262 9.34976 8.84169C9.33468 8.88052 9.32872 8.92723 9.33186 8.98183C9.33506 9.03737 9.34638 9.08366 9.36583 9.1207C9.38549 9.15749 9.41101 9.18468 9.44238 9.20229C9.47397 9.21964 9.50938 9.22716 9.54861 9.22486C9.57035 9.22358 9.59051 9.21955 9.60909 9.21276C9.6279 9.20573 9.64454 9.1961 9.65901 9.18386C9.67372 9.17161 9.68579 9.15691 9.69524 9.13976C9.70492 9.12259 9.71116 9.10325 9.71395 9.08174L9.84657 9.07466C9.8436 9.10946 9.83471 9.14247 9.81991 9.17369C9.80535 9.20491 9.7855 9.23287 9.76036 9.25759C9.73521 9.28207 9.70529 9.30185 9.67058 9.31694C9.63587 9.33178 9.59689 9.34048 9.55364 9.34302C9.48983 9.34677 9.43202 9.33534 9.38022 9.30875C9.32841 9.28215 9.28649 9.2418 9.25444 9.18772C9.22239 9.13364 9.20413 9.0676 9.19963 8.9896C9.19513 8.91137 9.20581 8.84363 9.23168 8.78638C9.25753 8.72889 9.29466 8.6839 9.34306 8.65141C9.39147 8.61892 9.44734 8.60082 9.51067 8.5971C9.55109 8.59472 9.58899 8.59818 9.62438 8.60749C9.65978 8.61679 9.6917 8.63163 9.72014 8.65202C9.74857 8.67216 9.77245 8.69756 9.79176 8.7282C9.8113 8.75859 9.82494 8.79384 9.83271 8.83393ZM9.98086 9.30795L9.93904 8.58188L10.2113 8.56588C10.2671 8.5626 10.3144 8.56954 10.3534 8.5867C10.3925 8.60384 10.4228 8.62933 10.4442 8.66317C10.4658 8.69676 10.478 8.73672 10.4806 8.78305C10.4833 8.82961 10.4757 8.87061 10.4578 8.90605C10.4402 8.94123 10.4127 8.96929 10.3755 8.99021C10.3383 9.01089 10.2918 9.02288 10.236 9.02616L10.0421 9.03755L10.0358 8.92836L10.212 8.918C10.2446 8.91609 10.2711 8.91003 10.2914 8.89982C10.3116 8.88938 10.3262 8.87513 10.3351 8.85705C10.3443 8.83873 10.3481 8.81669 10.3466 8.79092C10.3451 8.76516 10.3388 8.74348 10.3276 8.72588C10.3164 8.70804 10.3001 8.695 10.2787 8.68677C10.2574 8.6783 10.2303 8.67504 10.1974 8.67697L10.0769 8.68405L10.1124 9.30022L9.98086 9.30795ZM10.337 8.9569L10.5357 9.27534L10.3889 9.28397L10.1934 8.96534L10.337 8.9569ZM10.7198 8.53599L10.7617 9.26206L10.6301 9.26979L10.5883 8.54372L10.7198 8.53599ZM10.9041 9.25369L10.8623 8.52762L11.1345 8.51161C11.1903 8.50834 11.2377 8.51599 11.2767 8.53456C11.3159 8.55312 11.3463 8.58003 11.3678 8.61529C11.3895 8.6503 11.4016 8.69085 11.4043 8.73694C11.407 8.7835 11.3996 8.82544 11.382 8.86275C11.3645 8.90007 11.3372 8.93025 11.3001 8.9533C11.263 8.97611 11.2164 8.98916 11.1604 8.99246L10.98 9.00306L10.9738 8.89493L11.1365 8.88537C11.1691 8.88345 11.1955 8.87621 11.2156 8.86364C11.2358 8.85107 11.2502 8.83457 11.259 8.81413C11.268 8.79368 11.2718 8.77058 11.2703 8.74482C11.2688 8.71905 11.2624 8.69666 11.2511 8.67764C11.2401 8.65861 11.2237 8.64427 11.2021 8.63464C11.1806 8.62475 11.1535 8.62077 11.1206 8.6227L11.0001 8.62979L11.0356 9.24596L10.9041 9.25369ZM11.4791 8.60199L11.4728 8.49173L12.052 8.45769L12.0584 8.56794L11.834 8.58113L11.8695 9.19694L11.739 9.20461L11.7035 8.5888L11.4791 8.60199ZM12.2952 8.44339L12.3371 9.16946L12.2055 9.17719L12.1637 8.45112L12.2952 8.44339ZM13.1073 8.75993C13.1118 8.83816 13.101 8.90602 13.0749 8.96353C13.0491 9.02078 13.0118 9.06565 12.9632 9.09816C12.9148 9.13064 12.8588 9.14876 12.7952 9.15249C12.7316 9.15623 12.6738 9.14481 12.6218 9.11822C12.57 9.09139 12.5278 9.05106 12.4953 8.99724C12.463 8.94317 12.4446 8.87714 12.4401 8.79914C12.4356 8.72091 12.4463 8.65317 12.4722 8.59591C12.4983 8.53841 12.5355 8.49342 12.5839 8.46093C12.6326 8.42843 12.6887 8.41031 12.7522 8.40657C12.8158 8.40283 12.8735 8.41427 12.9253 8.44086C12.9773 8.46745 13.0195 8.50778 13.0518 8.56185C13.0843 8.61567 13.1028 8.68169 13.1073 8.75993ZM12.9751 8.7677C12.9719 8.71263 12.9606 8.66669 12.9412 8.62989C12.922 8.59284 12.8967 8.56551 12.8653 8.54791C12.8339 8.53007 12.7985 8.52231 12.759 8.52463C12.7196 8.52695 12.6853 8.53881 12.6562 8.5602C12.627 8.58136 12.6049 8.61147 12.5899 8.65054C12.575 8.68935 12.5692 8.7363 12.5724 8.79137C12.5755 8.84644 12.5867 8.8925 12.6059 8.92955C12.6254 8.96635 12.6508 8.99367 12.6822 9.01151C12.7135 9.02912 12.7489 9.03676 12.7884 9.03444C12.8279 9.03212 12.8622 9.02038 12.8913 8.99922C12.9204 8.97782 12.9424 8.94772 12.9572 8.9089C12.9723 8.86984 12.9782 8.82277 12.9751 8.7677ZM13.8074 8.35452L13.8492 9.08059L13.7322 9.08746L13.3616 8.613L13.3556 8.61336L13.3841 9.10792L13.2526 9.11565L13.2107 8.38958L13.3284 8.38267L13.6987 8.8575L13.7051 8.85712L13.6766 8.3622L13.8074 8.35452Z" fill="white"/>
</g>
<defs>
<radialGradient id="paint0_radial_249_1153" cx="0" cy="0" r="1" gradientUnits="userSpaceOnUse" gradientTransform="translate(12.566 16.8928) scale(11.0507 11.1628)">
<stop stop-color="#5178FE"/>
<stop offset="0.99" stop-color="#713592"/>
</radialGradient>
<linearGradient id="paint1_linear_249_1153" x1="19.0551" y1="16.8954" x2="21.6619" y2="16.8954" gradientUnits="userSpaceOnUse">
<stop stop-color="#60309D"/>
<stop offset="0.99" stop-color="#530E68"/>
</linearGradient>
<linearGradient id="paint2_linear_249_1153" x1="16.2568" y1="29.7447" x2="7.2034" y2="4.85315" gradientUnits="userSpaceOnUse">
<stop offset="0.02" stop-color="#E2DCEB"/>
<stop offset="1" stop-color="white"/>
</linearGradient>
<linearGradient id="paint3_linear_249_1153" x1="6.87008" y1="6.02695" x2="16.5945" y2="6.02695" gradientUnits="userSpaceOnUse">
<stop stop-color="#D9D4FF"/>
<stop offset="0.99" stop-color="#530E68"/>
</linearGradient>
<linearGradient id="paint4_linear_249_1153" x1="6.86353" y1="5.59509" x2="16.5506" y2="5.59509" gradientUnits="userSpaceOnUse">
<stop stop-color="#B2C9FF"/>
<stop offset="0.21" stop-color="#8E7BBB"/>
<stop offset="1" stop-color="#F6ECF2"/>
</linearGradient>
<linearGradient id="paint5_linear_249_1153" x1="7.75251" y1="4.79921" x2="15.9693" y2="4.79921" gradientUnits="userSpaceOnUse">
<stop stop-color="#B2C9FF"/>
<stop offset="0.21" stop-color="#8E7BBB"/>
<stop offset="1" stop-color="#F6ECF2"/>
</linearGradient>
<radialGradient id="paint6_radial_249_1153" cx="0" cy="0" r="1" gradientUnits="userSpaceOnUse" gradientTransform="translate(11.841 4.62277) scale(2.87432 2.90347)">
<stop stop-color="white"/>
<stop offset="1"/>
</radialGradient>
<linearGradient id="paint7_linear_249_1153" x1="15.562" y1="6.68217" x2="15.562" y2="5.11138" gradientUnits="userSpaceOnUse">
<stop stop-color="#530E68"/>
<stop offset="1" stop-color="#60309D"/>
</linearGradient>
<linearGradient id="paint8_linear_249_1153" x1="7.66756" y1="7.0057" x2="7.66756" y2="5.65" gradientUnits="userSpaceOnUse">
<stop stop-color="#530E68"/>
<stop offset="1" stop-color="#60309D"/>
</linearGradient>
<radialGradient id="paint9_radial_249_1153" cx="0" cy="0" r="1" gradientUnits="userSpaceOnUse" gradientTransform="translate(8.47226 6.74753) scale(0.163025 0.164679)">
<stop stop-color="#5178FE"/>
<stop offset="0.99" stop-color="#713592"/>
</radialGradient>
<radialGradient id="paint10_radial_249_1153" cx="0" cy="0" r="1" gradientUnits="userSpaceOnUse" gradientTransform="translate(10.8926 6.17473) scale(0.684093 0.691033)">
<stop stop-color="white"/>
<stop offset="1"/>
</radialGradient>
<radialGradient id="paint11_radial_249_1153" cx="0" cy="0" r="1" gradientUnits="userSpaceOnUse" gradientTransform="translate(21.4129 4.13993) scale(6.02888 6.09003)">
<stop stop-color="#9281A4"/>
<stop offset="1"/>
</radialGradient>
<linearGradient id="paint12_linear_249_1153" x1="11.1561" y1="29.2703" x2="11.1561" y2="4.81422" gradientUnits="userSpaceOnUse">
<stop offset="0.02" stop-color="#AB9CE3"/>
<stop offset="1" stop-color="#AEB3F3"/>
</linearGradient>
<linearGradient id="paint13_linear_249_1153" x1="18.6328" y1="29.1392" x2="18.6328" y2="5.49041e-06" gradientUnits="userSpaceOnUse">
<stop offset="0.02" stop-color="#AB9CE3"/>
<stop offset="1" stop-color="#AEB3F3"/>
</linearGradient>
<linearGradient id="paint14_linear_249_1153" x1="3.90271" y1="15.6346" x2="5.52554" y2="15.6346" gradientUnits="userSpaceOnUse">
<stop stop-color="#FF6E27"/>
<stop offset="1" stop-color="#E03347"/>
</linearGradient>
<linearGradient id="paint15_linear_249_1153" x1="3.70642" y1="17.7093" x2="5.329" y2="17.7093" gradientUnits="userSpaceOnUse">
<stop stop-color="#FF6E27"/>
<stop offset="1" stop-color="#E03347"/>
</linearGradient>
<linearGradient id="paint16_linear_249_1153" x1="3.57483" y1="22.1083" x2="5.19766" y2="22.1083" gradientUnits="userSpaceOnUse">
<stop stop-color="#FF6E27"/>
<stop offset="1" stop-color="#E03347"/>
</linearGradient>
<radialGradient id="paint17_radial_249_1153" cx="0" cy="0" r="1" gradientUnits="userSpaceOnUse" gradientTransform="translate(19.308 25.0998) scale(5.93751 5.99774)">
<stop stop-color="#9281A4"/>
<stop offset="1"/>
</radialGradient>
<linearGradient id="paint18_linear_249_1153" x1="3.57481" y1="26.21" x2="0.965118" y2="22.2326" gradientUnits="userSpaceOnUse">
<stop stop-color="#FF5C1B"/>
<stop offset="1" stop-color="#E03347"/>
</linearGradient>
<linearGradient id="paint19_linear_249_1153" x1="0.480359" y1="22.8051" x2="2.02392" y2="21.9497" gradientUnits="userSpaceOnUse">
<stop offset="0.02" stop-color="#D697E3"/>
<stop offset="1" stop-color="#EDE5F3"/>
</linearGradient>
<radialGradient id="paint20_radial_249_1153" cx="0" cy="0" r="1" gradientUnits="userSpaceOnUse" gradientTransform="translate(1.10874 22.0654) rotate(-29.4871) scale(0.813003 0.817274)">
<stop stop-color="#00E0FF"/>
<stop offset="0.99" stop-color="#1F84FF"/>
</radialGradient>
<radialGradient id="paint21_radial_249_1153" cx="0" cy="0" r="1" gradientUnits="userSpaceOnUse" gradientTransform="translate(0.95282 21.7539) rotate(-29.4871) scale(0.702944 0.706636)">
<stop stop-color="#00E0FF"/>
<stop offset="0.99" stop-color="#1F84FF"/>
</radialGradient>
<linearGradient id="paint22_linear_249_1153" x1="2.6895" y1="26.5125" x2="0.607752" y2="22.8311" gradientUnits="userSpaceOnUse">
<stop/>
<stop offset="1" stop-color="#C7AC75"/>
</linearGradient>
<linearGradient id="paint23_linear_249_1153" x1="1.72522" y1="25.3657" x2="3.59305" y2="23.7433" gradientUnits="userSpaceOnUse">
<stop stop-color="#EDEDFF"/>
<stop offset="0.98" stop-color="#D1D1EB"/>
</linearGradient>
<linearGradient id="paint24_linear_249_1153" x1="3.25608" y1="24.1587" x2="3.54419" y2="23.999" gradientUnits="userSpaceOnUse">
<stop/>
<stop offset="1" stop-color="#C7AC75"/>
</linearGradient>
<radialGradient id="paint25_radial_249_1153" cx="0" cy="0" r="1" gradientUnits="userSpaceOnUse" gradientTransform="translate(21.266 5.84732) rotate(-12.9053) scale(4.51578 4.55704)">
<stop stop-color="#B3819D"/>
<stop offset="1" stop-color="#785CA6"/>
</radialGradient>
<linearGradient id="paint26_linear_249_1153" x1="23.8908" y1="10.8999" x2="18.6326" y2="0.586186" gradientUnits="userSpaceOnUse">
<stop stop-color="#B2C9FF"/>
<stop offset="0.21" stop-color="#8E7BBB"/>
<stop offset="1" stop-color="#F6ECF2"/>
</linearGradient>
<linearGradient id="paint27_linear_249_1153" x1="21.0163" y1="5.70341" x2="21.4418" y2="5.62322" gradientUnits="userSpaceOnUse">
<stop stop-color="#F6ECF2"/>
<stop offset="1" stop-color="#AA9CCC"/>
</linearGradient>
<linearGradient id="paint28_linear_249_1153" x1="21.0584" y1="5.50611" x2="21.2585" y2="5.46845" gradientUnits="userSpaceOnUse">
<stop offset="0.36"/>
<stop offset="1" stop-color="#E5EFE5"/>
</linearGradient>
<linearGradient id="paint29_linear_249_1153" x1="17.2629" y1="3.06275" x2="19.8017" y2="2.49267" gradientUnits="userSpaceOnUse">
<stop stop-color="#E5EFE5"/>
<stop offset="1" stop-color="#603157"/>
</linearGradient>
<radialGradient id="paint30_radial_249_1153" cx="0" cy="0" r="1" gradientUnits="userSpaceOnUse" gradientTransform="translate(17.6464 2.73032) scale(0.863242 0.871999)">
<stop stop-color="#00FFFF"/>
<stop offset="0.99" stop-color="#26A9FF"/>
</radialGradient>
<linearGradient id="paint31_linear_249_1153" x1="17.7652" y1="5.29814" x2="20.3037" y2="4.72812" gradientUnits="userSpaceOnUse">
<stop stop-color="#E5EFE5"/>
<stop offset="1" stop-color="#603157"/>
</linearGradient>
<radialGradient id="paint32_radial_249_1153" cx="0" cy="0" r="1" gradientUnits="userSpaceOnUse" gradientTransform="translate(18.176 4.93765) scale(0.863242 0.871999)">
<stop stop-color="#00FFFF"/>
<stop offset="0.99" stop-color="#26A9FF"/>
</radialGradient>
<linearGradient id="paint33_linear_249_1153" x1="18.2607" y1="7.50497" x2="20.7993" y2="6.93495" gradientUnits="userSpaceOnUse">
<stop stop-color="#E5EFE5"/>
<stop offset="1" stop-color="#603157"/>
</linearGradient>
<radialGradient id="paint34_radial_249_1153" cx="0" cy="0" r="1" gradientUnits="userSpaceOnUse" gradientTransform="translate(18.5742 7.2143) scale(0.863242 0.871999)">
<stop stop-color="#00FFFF"/>
<stop offset="0.99" stop-color="#26A9FF"/>
</radialGradient>
<linearGradient id="paint35_linear_249_1153" x1="18.8007" y1="9.91016" x2="21.3395" y2="9.34008" gradientUnits="userSpaceOnUse">
<stop stop-color="#E5EFE5"/>
<stop offset="1" stop-color="#603157"/>
</linearGradient>
<radialGradient id="paint36_radial_249_1153" cx="0" cy="0" r="1" gradientUnits="userSpaceOnUse" gradientTransform="translate(19.2116 9.52109) scale(0.863241 0.871999)">
<stop stop-color="#00FFFF"/>
<stop offset="0.99" stop-color="#26A9FF"/>
</radialGradient>
<linearGradient id="paint37_linear_249_1153" x1="20.9443" y1="2.21929" x2="23.4828" y2="1.64926" gradientUnits="userSpaceOnUse">
<stop stop-color="#E5EFE5"/>
<stop offset="1" stop-color="#603157"/>
</linearGradient>
<radialGradient id="paint38_radial_249_1153" cx="0" cy="0" r="1" gradientUnits="userSpaceOnUse" gradientTransform="translate(21.3272 1.85863) scale(0.863498 0.872257)">
<stop stop-color="#00FFFF"/>
<stop offset="0.99" stop-color="#26A9FF"/>
</radialGradient>
<linearGradient id="paint39_linear_249_1153" x1="21.4464" y1="4.45474" x2="23.9851" y2="3.88466" gradientUnits="userSpaceOnUse">
<stop stop-color="#E5EFE5"/>
<stop offset="1" stop-color="#603157"/>
</linearGradient>
<radialGradient id="paint40_radial_249_1153" cx="0" cy="0" r="1" gradientUnits="userSpaceOnUse" gradientTransform="translate(21.899 4.08701) scale(0.863242 0.871999)">
<stop stop-color="#00FFFF"/>
<stop offset="0.99" stop-color="#26A9FF"/>
</radialGradient>
<linearGradient id="paint41_linear_249_1153" x1="21.942" y1="6.66126" x2="24.4805" y2="6.09123" gradientUnits="userSpaceOnUse">
<stop stop-color="#E5EFE5"/>
<stop offset="0.48" stop-color="#603157"/>
<stop offset="0.98" stop-color="#91708A"/>
</linearGradient>
<radialGradient id="paint42_radial_249_1153" cx="0" cy="0" r="1" gradientUnits="userSpaceOnUse" gradientTransform="translate(22.2692 6.32867) scale(0.863242 0.871999)">
<stop stop-color="#00FFFF"/>
<stop offset="0.99" stop-color="#26A9FF"/>
</radialGradient>
<linearGradient id="paint43_linear_249_1153" x1="22.4821" y1="9.0667" x2="25.0207" y2="8.49667" gradientUnits="userSpaceOnUse">
<stop stop-color="#E5EFE5"/>
<stop offset="0.48" stop-color="#603157"/>
<stop offset="0.98" stop-color="#91708A"/>
</linearGradient>
<radialGradient id="paint44_radial_249_1153" cx="0" cy="0" r="1" gradientUnits="userSpaceOnUse" gradientTransform="translate(22.8374 8.74814) scale(0.863242 0.871999)">
<stop stop-color="#00FFFF"/>
<stop offset="0.99" stop-color="#26A9FF"/>
</radialGradient>
<radialGradient id="paint45_radial_249_1153" cx="0" cy="0" r="1" gradientUnits="userSpaceOnUse" gradientTransform="translate(18.9389 2.47827) scale(0.579419 0.585297)">
<stop stop-color="#7C65E0"/>
<stop offset="0.99" stop-color="#954CB8"/>
</radialGradient>
<radialGradient id="paint46_radial_249_1153" cx="0" cy="0" r="1" gradientUnits="userSpaceOnUse" gradientTransform="translate(19.4591 4.70938) scale(0.566878 0.572629)">
<stop stop-color="#7C65E0"/>
<stop offset="0.99" stop-color="#954CB8"/>
</radialGradient>
<radialGradient id="paint47_radial_249_1153" cx="0" cy="0" r="1" gradientUnits="userSpaceOnUse" gradientTransform="translate(19.9736 6.91133) scale(0.554595 0.56022)">
<stop stop-color="#7C65E0"/>
<stop offset="0.99" stop-color="#954CB8"/>
</radialGradient>
<radialGradient id="paint48_radial_249_1153" cx="0" cy="0" r="1" gradientUnits="userSpaceOnUse" gradientTransform="translate(20.534 9.31195) scale(0.541285 0.546776)">
<stop stop-color="#7C65E0"/>
<stop offset="0.99" stop-color="#954CB8"/>
</radialGradient>
<radialGradient id="paint49_radial_249_1153" cx="0" cy="0" r="1" gradientUnits="userSpaceOnUse" gradientTransform="translate(22.6513 1.6283) scale(0.558944 0.564615)">
<stop stop-color="#7C65E0"/>
<stop offset="0.99" stop-color="#954CB8"/>
</radialGradient>
<radialGradient id="paint50_radial_249_1153" cx="0" cy="0" r="1" gradientUnits="userSpaceOnUse" gradientTransform="translate(23.1627 3.86159) scale(0.552546 0.558152)">
<stop stop-color="#7C65E0"/>
<stop offset="0.99" stop-color="#954CB8"/>
</radialGradient>
<radialGradient id="paint51_radial_249_1153" cx="0" cy="0" r="1" gradientUnits="userSpaceOnUse" gradientTransform="translate(23.6677 6.06601) scale(0.546659 0.552206)">
<stop stop-color="#7C65E0"/>
<stop offset="0.99" stop-color="#954CB8"/>
</radialGradient>
<radialGradient id="paint52_radial_249_1153" cx="0" cy="0" r="1" gradientUnits="userSpaceOnUse" gradientTransform="translate(24.2181 8.46869) scale(0.53975 0.545225)">
<stop stop-color="#7C65E0"/>
<stop offset="0.99" stop-color="#954CB8"/>
</radialGradient>
<linearGradient id="paint53_linear_249_1153" x1="17.2313" y1="2.63546" x2="19.3074" y2="2.16928" gradientUnits="userSpaceOnUse">
<stop stop-color="white"/>
<stop offset="1"/>
</linearGradient>
<linearGradient id="paint54_linear_249_1153" x1="21.4146" y1="4.02719" x2="23.4907" y2="3.561" gradientUnits="userSpaceOnUse">
<stop stop-color="white"/>
<stop offset="1"/>
</linearGradient>
<linearGradient id="paint55_linear_249_1153" x1="20.9393" y1="1.75748" x2="23.0151" y2="1.29135" gradientUnits="userSpaceOnUse">
<stop stop-color="white"/>
<stop offset="1"/>
</linearGradient>
<linearGradient id="paint56_linear_249_1153" x1="17.7335" y1="4.87084" x2="19.8094" y2="4.40472" gradientUnits="userSpaceOnUse">
<stop stop-color="white"/>
<stop offset="1"/>
</linearGradient>
<linearGradient id="paint57_linear_249_1153" x1="18.229" y1="7.07742" x2="20.3048" y2="6.61129" gradientUnits="userSpaceOnUse">
<stop stop-color="white"/>
<stop offset="1"/>
</linearGradient>
<linearGradient id="paint58_linear_249_1153" x1="18.7692" y1="9.48286" x2="20.8453" y2="9.01667" gradientUnits="userSpaceOnUse">
<stop stop-color="white"/>
<stop offset="1"/>
</linearGradient>
<linearGradient id="paint59_linear_249_1153" x1="22.4394" y1="8.60156" x2="24.5152" y2="8.13543" gradientUnits="userSpaceOnUse">
<stop stop-color="white"/>
<stop offset="1"/>
</linearGradient>
<linearGradient id="paint60_linear_249_1153" x1="21.9167" y1="6.23185" x2="23.9928" y2="5.76566" gradientUnits="userSpaceOnUse">
<stop stop-color="white"/>
<stop offset="1"/>
</linearGradient>
<linearGradient id="paint61_linear_249_1153" x1="6.84397" y1="31.9475" x2="7.44185" y2="25.1055" gradientUnits="userSpaceOnUse">
<stop stop-color="#FFB934"/>
<stop offset="1" stop-color="#FF8647"/>
</linearGradient>
<linearGradient id="paint62_linear_249_1153" x1="5.99666" y1="25.3567" x2="9.0697" y2="25.8227" gradientUnits="userSpaceOnUse">
<stop offset="0.02" stop-color="#D697E3"/>
<stop offset="1" stop-color="#EDE5F3"/>
</linearGradient>
<linearGradient id="paint63_linear_249_1153" x1="5.75784" y1="25.0468" x2="9.67851" y2="24.7802" gradientUnits="userSpaceOnUse">
<stop stop-color="#EDE5F3"/>
<stop offset="0.98" stop-color="#C7B5E3"/>
</linearGradient>
<linearGradient id="paint64_linear_249_1153" x1="7.46932" y1="25.0631" x2="8.02344" y2="23.9732" gradientUnits="userSpaceOnUse">
<stop stop-color="#FFF3FF"/>
<stop offset="0.98" stop-color="#E7E2EE"/>
</linearGradient>
<linearGradient id="paint65_linear_249_1153" x1="7.50333" y1="24.902" x2="8.08192" y2="23.7646" gradientUnits="userSpaceOnUse">
<stop stop-color="#FFF3FF"/>
<stop offset="0.98" stop-color="#E7E2EE"/>
</linearGradient>
<linearGradient id="paint66_linear_249_1153" x1="6.11984" y1="24.478" x2="9.51479" y2="24.247" gradientUnits="userSpaceOnUse">
<stop stop-color="#EDE5F3"/>
<stop offset="0.98" stop-color="#C7B5E3"/>
</linearGradient>
<linearGradient id="paint67_linear_249_1153" x1="4.51956" y1="29.3571" x2="7.49883" y2="29.1863" gradientUnits="userSpaceOnUse">
<stop stop-color="#EDEDFF"/>
<stop offset="0.98" stop-color="#D1D1EB"/>
</linearGradient>
<linearGradient id="paint68_linear_249_1153" x1="7.88547" y1="29.6623" x2="9.62591" y2="29.5625" gradientUnits="userSpaceOnUse">
<stop stop-color="#E3E3FF"/>
<stop offset="0.98" stop-color="#E0D1EB"/>
</linearGradient>
<linearGradient id="paint69_linear_249_1153" x1="8.55426" y1="29.5189" x2="9.09613" y2="29.6011" gradientUnits="userSpaceOnUse">
<stop/>
<stop offset="1" stop-color="#C7AC75"/>
</linearGradient>
<linearGradient id="paint70_linear_249_1153" x1="5.32127" y1="31.398" x2="6.22704" y2="25.545" gradientUnits="userSpaceOnUse">
<stop/>
<stop offset="1" stop-color="#C7AC75"/>
</linearGradient>
<radialGradient id="paint71_radial_249_1153" cx="0" cy="0" r="1" gradientUnits="userSpaceOnUse" gradientTransform="translate(17.727 17.3953) rotate(-11.2703) scale(1.65187 1.66735)">
<stop stop-color="#00FFFF"/>
<stop offset="0.99" stop-color="#26A9FF"/>
</radialGradient>
<radialGradient id="paint72_radial_249_1153" cx="0" cy="0" r="1" gradientUnits="userSpaceOnUse" gradientTransform="translate(15.8634 17.5326) rotate(-11.2703) scale(1.18795 1.19909)">
<stop stop-color="#7C65E0"/>
<stop offset="0.99" stop-color="#954CB8"/>
</radialGradient>
<linearGradient id="paint73_linear_249_1153" x1="16.3835" y1="17.6311" x2="16.2978" y2="17.201" gradientUnits="userSpaceOnUse">
<stop offset="0.36"/>
<stop offset="1" stop-color="#E5EFE5"/>
</linearGradient>
<linearGradient id="paint74_linear_249_1153" x1="15.4533" y1="18.6303" x2="17.3655" y2="18.2569" gradientUnits="userSpaceOnUse">
<stop/>
<stop offset="1" stop-color="#E5EFE5"/>
</linearGradient>
<radialGradient id="paint75_radial_249_1153" cx="0" cy="0" r="1" gradientUnits="userSpaceOnUse" gradientTransform="translate(4.36375 6.39196) rotate(-11.2703) scale(1.63702 1.65237)">
<stop stop-color="#00FFFF"/>
<stop offset="0.99" stop-color="#26A9FF"/>
</radialGradient>
<radialGradient id="paint76_radial_249_1153" cx="0" cy="0" r="1" gradientUnits="userSpaceOnUse" gradientTransform="translate(2.51684 6.52824) rotate(-11.2703) scale(1.17746 1.18849)">
<stop stop-color="#7C65E0"/>
<stop offset="0.99" stop-color="#954CB8"/>
</radialGradient>
<linearGradient id="paint77_linear_249_1153" x1="3.03229" y1="6.6256" x2="2.94739" y2="6.19957" gradientUnits="userSpaceOnUse">
<stop offset="0.36"/>
<stop offset="1" stop-color="#E5EFE5"/>
</linearGradient>
<linearGradient id="paint78_linear_249_1153" x1="2.11033" y1="7.61605" x2="4.00545" y2="7.24593" gradientUnits="userSpaceOnUse">
<stop/>
<stop offset="1" stop-color="#E5EFE5"/>
</linearGradient>
<linearGradient id="paint79_linear_249_1153" x1="17.8678" y1="23.8412" x2="15.8065" y2="22.0785" gradientUnits="userSpaceOnUse">
<stop stop-color="#FF6E27"/>
<stop offset="1" stop-color="#E03347"/>
</linearGradient>
<linearGradient id="paint80_linear_249_1153" x1="17.8618" y1="23.8481" x2="16.9378" y2="23.058" gradientUnits="userSpaceOnUse">
<stop stop-color="#FFCB34"/>
<stop offset="1" stop-color="#FF9A47"/>
</linearGradient>
<linearGradient id="paint81_linear_249_1153" x1="16.7175" y1="23.0821" x2="16.5035" y2="23.3273" gradientUnits="userSpaceOnUse">
<stop offset="0.36"/>
<stop offset="1" stop-color="#E5EFE5"/>
</linearGradient>
<linearGradient id="paint82_linear_249_1153" x1="17.7252" y1="23.175" x2="16.6176" y2="22.2278" gradientUnits="userSpaceOnUse">
<stop/>
<stop offset="1" stop-color="#E5EFE5"/>
</linearGradient>
<radialGradient id="paint83_radial_249_1153" cx="0" cy="0" r="1" gradientUnits="userSpaceOnUse" gradientTransform="translate(15.4018 20.9326) rotate(-4.63632) scale(0.778836 0.786634)">
<stop stop-color="#FFE534"/>
<stop offset="0.8" stop-color="#FF9A47"/>
<stop offset="0.98" stop-color="#FFB83D"/>
</radialGradient>
<radialGradient id="paint84_radial_249_1153" cx="0" cy="0" r="1" gradientUnits="userSpaceOnUse" gradientTransform="translate(15.4535 27.7979) rotate(-4.63638) scale(0.523916 0.529165)">
<stop stop-color="#FFE534"/>
<stop offset="0.8" stop-color="#FF9A47"/>
<stop offset="0.98" stop-color="#FFB83D"/>
</radialGradient>
<radialGradient id="paint85_radial_249_1153" cx="0" cy="0" r="1" gradientUnits="userSpaceOnUse" gradientTransform="translate(18.2724 22.0771) rotate(-4.63636) scale(0.694631 0.701586)">
<stop stop-color="#FFE534"/>
<stop offset="0.8" stop-color="#FF9A47"/>
<stop offset="0.98" stop-color="#FFB83D"/>
</radialGradient>
<radialGradient id="paint86_radial_249_1153" cx="0" cy="0" r="1" gradientUnits="userSpaceOnUse" gradientTransform="translate(21.7579 18.982) rotate(-28.2806) scale(1.01498 1.02068)">
<stop stop-color="#EBD7E3"/>
<stop offset="0.38" stop-color="#D7C6DB"/>
<stop offset="0.98" stop-color="#BDAFD2"/>
</radialGradient>
<linearGradient id="paint87_linear_249_1153" x1="22.248" y1="19.3481" x2="21.0877" y2="18.3079" gradientUnits="userSpaceOnUse">
<stop offset="0.02" stop-color="#D6CEE3"/>
<stop offset="1" stop-color="#F4EFFF"/>
</linearGradient>
<linearGradient id="paint88_linear_249_1153" x1="22.2193" y1="19.3218" x2="21.117" y2="18.3339" gradientUnits="userSpaceOnUse">
<stop offset="0.02" stop-color="#E2DCEB"/>
<stop offset="1" stop-color="white"/>
</linearGradient>
<linearGradient id="paint89_linear_249_1153" x1="21.9134" y1="19.135" x2="21.3018" y2="18.5868" gradientUnits="userSpaceOnUse">
<stop offset="0.02" stop-color="#D6CEE3"/>
<stop offset="1" stop-color="#F4EFFF"/>
</linearGradient>
<radialGradient id="paint90_radial_249_1153" cx="0" cy="0" r="1" gradientUnits="userSpaceOnUse" gradientTransform="translate(2.56323 15.7147) rotate(-28.2806) scale(1.01498 1.02068)">
<stop stop-color="#EBD7E3"/>
<stop offset="0.38" stop-color="#D7C6DB"/>
<stop offset="0.98" stop-color="#BDAFD2"/>
</radialGradient>
<linearGradient id="paint91_linear_249_1153" x1="3.05336" y1="16.0806" x2="1.89317" y2="15.0407" gradientUnits="userSpaceOnUse">
<stop offset="0.02" stop-color="#D6CEE3"/>
<stop offset="1" stop-color="#F4EFFF"/>
</linearGradient>
<linearGradient id="paint92_linear_249_1153" x1="3.02476" y1="16.0545" x2="1.92253" y2="15.0663" gradientUnits="userSpaceOnUse">
<stop offset="0.02" stop-color="#E2DCEB"/>
<stop offset="1" stop-color="white"/>
</linearGradient>
<linearGradient id="paint93_linear_249_1153" x1="2.71904" y1="15.8676" x2="2.10725" y2="15.3195" gradientUnits="userSpaceOnUse">
<stop offset="0.02" stop-color="#D6CEE3"/>
<stop offset="1" stop-color="#F4EFFF"/>
</linearGradient>
<clipPath id="clip0_249_1153">
<rect width="25.8246" height="32" fill="white"/>
</clipPath>
</defs>
</svg>
