<svg width="18" height="13" viewBox="0 0 18 13" fill="none" xmlns="http://www.w3.org/2000/svg">
<g clip-path="url(#clip0_3395_3701)">
<path d="M0 4.91184V8.08998C0 9.34695 0.880168 10.6021 2.63861 11.5609C6.15173 13.4803 11.8502 13.4803 15.3671 11.5609C16.2472 11.0806 16.9064 10.5271 17.3446 9.93794C17.7828 9.34516 18.0019 8.71846 18.0019 8.08998V4.91184C18.0019 4.67794 17.9698 4.44048 17.9074 4.20658C17.8886 4.1298 17.864 4.05303 17.8357 3.97268C17.507 3.04603 16.6816 2.16043 15.3671 1.44089C12.0674 -0.36065 6.83924 -0.473134 3.30535 1.10879V2.50146L2.03232 3.19958V1.80512C1.4128 2.21935 0.933053 2.67286 0.596852 3.15315C0.511857 3.27099 0.438195 3.39241 0.372088 3.51382C0.290871 3.66558 0.220986 3.81913 0.168101 3.97268C0.0547744 4.27978 0 4.5976 0 4.91184Z" fill="#4CBC68"/>
<path opacity="0.75" d="M0 4.91184V8.08998C0 9.34695 0.880168 10.6021 2.63861 11.5609C6.15173 13.4803 11.8502 13.4803 15.3671 11.5609C16.2472 11.0806 16.9064 10.5271 17.3446 9.93794C17.7828 9.34516 18.0019 8.71846 18.0019 8.08998V4.91184C18.0019 4.67794 17.9698 4.44048 17.9074 4.20658C17.8886 4.1298 17.864 4.05303 17.8357 3.97268C17.507 3.04603 16.6816 2.16043 15.3671 1.44089C12.0674 -0.36065 6.83924 -0.473134 3.30535 1.10879V2.50146L2.03232 3.19958V1.80512C1.4128 2.21935 0.933053 2.67286 0.596852 3.15315C0.511857 3.27099 0.438195 3.39241 0.372088 3.51382C0.290871 3.66558 0.220986 3.81913 0.168101 3.97268C0.0547744 4.27978 0 4.5976 0 4.91184Z" fill="white"/>
<path opacity="0.2" d="M6.18006 0.246399C5.15446 0.430302 4.17796 0.715977 3.30535 1.107V2.49966L2.03232 3.19778V1.80333C1.4128 2.21756 0.933053 2.67107 0.596852 3.15136C0.511857 3.2692 0.438195 3.39061 0.372088 3.51202C0.290871 3.66379 0.220986 3.81734 0.168101 3.97089C0.0566632 4.27977 0 4.59759 0 4.91183V8.08997C0 9.34515 0.880168 10.6021 2.63861 11.5609C3.668 12.1233 4.88625 12.5161 6.18006 12.7483V0.246399Z" fill="#4CBC68"/>
<path d="M15.3652 1.43911C18.6648 3.24064 18.8669 6.09204 15.9696 8.02034L3.30535 1.10879C6.84113 -0.471345 12.0636 -0.362431 15.3652 1.43911Z" fill="#4CBC68"/>
<path opacity="0.9" d="M15.3652 1.43911C18.6648 3.24064 18.8669 6.09204 15.9696 8.02034L3.30535 1.10879C6.84113 -0.471345 12.0636 -0.362431 15.3652 1.43911Z" fill="white"/>
<path d="M15.9715 7.29186C15.9715 7.29186 19.4714 4.75471 15.5805 1.56229C18.6705 3.3674 18.8008 6.13488 15.9696 8.02033L3.30535 1.10878L15.9696 7.29186H15.9715Z" fill="white"/>
<path d="M2.03232 1.80333L14.6965 8.71488C11.1608 10.295 5.9383 10.1861 2.63673 8.38457C-0.662959 6.58482 -0.865058 3.73342 2.03232 1.80333Z" fill="#4CBC68"/>
<path opacity="0.9" d="M2.03232 1.80333L14.6965 8.71488C11.1608 10.295 5.9383 10.1861 2.63673 8.38457C-0.662959 6.58482 -0.865058 3.73342 2.03232 1.80333Z" fill="white"/>
<path d="M14.6965 8.71488C11.1608 10.295 5.9383 10.1861 2.63673 8.38457C2.24575 8.17031 1.89822 7.94177 1.59412 7.70252C8.06883 10.7682 13.2781 8.60775 13.2781 8.60775L2.03232 1.80333L14.6965 8.71488Z" fill="white"/>
<path d="M3.30535 2.49966L15.9715 9.44514L15.9696 8.02033L3.30535 1.10878V2.49966Z" fill="#4CBC68"/>
<path opacity="0.4" d="M3.30535 2.49966L15.9715 9.44514L15.9696 8.02033L3.30535 1.10878V2.49966Z" fill="white"/>
<path opacity="0.2" d="M14.6965 8.71487L14.6946 10.1397L15.9715 9.44513L14.6965 8.71487Z" fill="#4CBC68"/>
</g>
<defs>
<clipPath id="clip0_3395_3701">
<rect width="18" height="13" fill="white"/>
</clipPath>
</defs>
</svg>
