<svg width="64" height="49" viewBox="0 0 64 49" fill="none" xmlns="http://www.w3.org/2000/svg">
<path d="M70.6286 -10.6819L59.6807 -21.6299C58.7154 -22.5951 57.4485 -23.0784 56.1829 -23.0784C54.9172 -23.0784 53.6503 -22.5951 52.6851 -21.6299L13.3538 17.7027C11.422 19.6345 11.422 22.7665 13.3538 24.6983L17.9814 29.3259L0.35135 46.9559C-0.116242 47.4235 -0.116242 48.1811 0.35135 48.6487C0.585146 48.8825 0.892085 49 1.19772 49C1.50335 49 1.81029 48.8825 2.04408 48.6487L19.6741 31.0186L24.3017 35.6462C25.2669 36.6127 26.5339 37.0947 27.7995 37.0947C29.0651 37.0947 30.3321 36.6114 31.2973 35.6462L37.4047 29.5388L39.0975 27.8461L70.6299 -3.68635C72.5616 -5.61811 72.5616 -8.75019 70.6299 -10.6819H70.6286ZM68.9358 -5.37909L66.8382 -3.28146L59.5605 -10.5579L57.8678 -8.86513L65.1455 -1.58872L62.4536 1.1032L59.6611 -1.68929L57.9683 0.00344086L60.7608 2.79593L58.479 5.07773L51.2013 -2.19868L49.5086 -0.505945L56.7863 6.77046L54.1048 9.45193L51.3123 6.65944L49.6196 8.35218L52.4121 11.1447L50.1198 13.4369L42.8421 6.1605L41.1494 7.85324L48.4271 15.1296L45.7561 17.8007L42.9636 15.0082L41.2709 16.7009L44.0634 19.4934L41.3923 22.1644L34.1146 14.888L32.4219 16.5807L39.6996 23.8572L37.4074 26.1494L34.6162 23.3582L32.9234 25.051L35.7146 27.8421L33.4015 30.1553L26.1238 22.8789L24.431 24.5716L31.7087 31.848L29.6072 33.9496C29.1252 34.4315 28.4839 34.6967 27.8021 34.6967C27.1203 34.6967 26.4803 34.4315 25.9971 33.9496L15.0491 23.0016C14.0539 22.0064 14.0539 20.3881 15.0491 19.3928L54.3791 -19.9358C54.8611 -20.4178 55.5024 -20.6829 56.1842 -20.6829C56.866 -20.6829 57.506 -20.4178 57.9879 -19.9358L68.9358 -8.98791C69.4178 -8.50595 69.6829 -7.86464 69.6829 -7.18284C69.6829 -6.50105 69.4178 -5.85974 68.9358 -5.37778V-5.37909Z" fill="#F8F8F8"/>
</svg>
