<svg version="1.1" id="Layer_1" xmlns="http://www.w3.org/2000/svg" xmlns:xlink="http://www.w3.org/1999/xlink" x="0px" y="0px" viewBox="0 0 69.3 55.4" style="enable-background:new 0 0 69.3 55.4;" xml:space="preserve">
 <style type="text/css">
  .st0{fill:#009AD9;}
 </style>
 <g>
  <path class="st0" d="M60.1,0H0v9.2h57.1v0c1.7,0,3,1.3,3,3v31l0,0c0,1.6-1.3,3-3,3H12.2c-1.6,0-3-1.3-3-3V30.7c0-1.6,1.3-3,3-3
		h38.6v-9.2H9.2c-5.1,0-9.2,4.1-9.2,9.2v18.5c0,5.1,4.1,9.2,9.2,9.2h50.9c5.1,0,9.2-4.1,9.2-9.2v-37C69.3,4.1,65.1,0,60.1,0">
  </path>
 </g>
</svg>