<?xml version="1.0" encoding="UTF-8"?>
<svg version="1.1" xmlns="http://www.w3.org/2000/svg" width="820" height="284">
<path d="M0 0 C18.26556612 15.67163957 31.81555007 35.12720338 38.1875 58.5625 C38.21899521 60.22886906 38.2240787 61.89623478 38.1875 63.5625 C29.83380622 63.79473282 21.48147117 63.9721369 13.12534237 64.08062172 C9.24458866 64.13270536 5.36605054 64.20326793 1.48657227 64.31689453 C-2.26134721 64.42597433 -6.00714412 64.48542256 -9.75652885 64.51127243 C-11.18291081 64.52967824 -12.60918291 64.56562786 -14.03465462 64.61980057 C-25.2206243 65.02779502 -25.2206243 65.02779502 -29.13864136 61.42132568 C-30.97436523 58.77099609 -30.97436523 58.77099609 -32.38401794 56.1368103 C-37.18053564 47.49286208 -46.79362885 42.44244968 -55.9140625 39.59375 C-71.3660424 35.61090076 -86.53767448 37.00313895 -100.5078125 44.96484375 C-102.90626081 46.52460949 -102.90626081 46.52460949 -104.9921875 48.75390625 C-106.8125 50.5625 -106.8125 50.5625 -108.8125 50.5625 C-109.07289062 51.12839844 -109.33328125 51.69429688 -109.6015625 52.27734375 C-110.92236116 54.76981863 -112.48906208 56.8740135 -114.1875 59.125 C-122.92606666 71.43181472 -124.86934874 86.98617519 -122.46240234 101.703125 C-119.43677089 115.02508192 -111.89785816 126.4531709 -100.50390625 133.98046875 C-87.69505143 141.50962144 -73.02460093 143.70731198 -58.40234375 140.91015625 C-49.11848299 138.11900843 -41.28290456 132.7518384 -34.8125 125.5625 C-34.30976563 125.005625 -33.80703125 124.44875 -33.2890625 123.875 C-30.04450235 120.20933111 -30.04450235 120.20933111 -27.61161804 115.98274231 C-25.8125 113.5625 -25.8125 113.5625 -23.02204895 112.96122742 C-21.89175766 112.97233047 -20.76146637 112.98343353 -19.59692383 112.99487305 C-17.67527153 112.99543953 -17.67527153 112.99543953 -15.71479797 112.99601746 C-14.31636589 113.02155083 -12.91794369 113.04763081 -11.51953125 113.07421875 C-10.08893569 113.08354548 -8.65832415 113.09066226 -7.22770691 113.09565735 C-3.4642011 113.11473886 0.29833821 113.16384745 4.0614624 113.21917725 C7.90217005 113.27034615 11.74303404 113.29316621 15.58398438 113.31835938 C23.11892998 113.37196691 30.65307952 113.45729132 38.1875 113.5625 C38.04814791 115.15185209 37.90317257 116.74071173 37.75585938 118.3293457 C37.67573608 119.21419144 37.59561279 120.09903717 37.51306152 121.01069641 C34.6546565 143.41533478 13.80258993 167.60965545 -2.94921875 181.1484375 C-26.8908504 199.63353855 -56.03070141 205.97383451 -85.75 202.875 C-107.64344686 199.94957089 -127.57270807 191.31041051 -144.8125 177.5625 C-146.12927734 176.53769531 -146.12927734 176.53769531 -147.47265625 175.4921875 C-168.00187116 158.379086 -181.44487713 130.74619517 -184.8125 104.5625 C-186.59428549 71.71620619 -180.30482092 40.88036782 -158.2734375 15.27734375 C-157.46132812 14.38144531 -156.64921875 13.48554687 -155.8125 12.5625 C-155.37454102 12.07539551 -154.93658203 11.58829102 -154.48535156 11.08642578 C-138.48507023 -6.48904203 -117.69618036 -16.81283093 -94.8125 -22.4375 C-93.38164062 -22.80681641 -93.38164062 -22.80681641 -91.921875 -23.18359375 C-60.02317392 -29.9457453 -25.20169909 -19.98512362 0 0 Z " fill="#223E8C" transform="translate(192.8125,32.4375)"/>
<path d="M0 0 C1.04542969 0.36222656 2.09085938 0.72445312 3.16796875 1.09765625 C24.49688522 9.23741092 41.44864791 26.54171773 51.11132812 46.96191406 C60.26536429 67.95584095 60.52419019 91.37536038 52.6875 112.8125 C51.82082525 114.88742132 50.92608457 116.95090484 50 119 C49.59265625 119.91007812 49.1853125 120.82015625 48.765625 121.7578125 C39.67358713 140.10233596 22.04005821 155.80449502 2.7265625 162.57421875 C-15.0859663 168.3985883 -32.96376893 170.71352827 -50.25 162.3125 C-50.8996875 161.99804932 -51.549375 161.68359863 -52.21875 161.35961914 C-57.77137743 158.48102761 -61.01838039 155.35891716 -66 151 C-66.33 170.47 -66.66 189.94 -67 210 C-86.8 210 -106.6 210 -127 210 C-127 140.04 -127 70.08 -127 -2 C-107.2 -2 -87.4 -2 -67 -2 C-66.505 4.93 -66.505 4.93 -66 12 C-64.411875 10.618125 -62.82375 9.23625 -61.1875 7.8125 C-43.69791982 -6.46654107 -20.73617234 -7.29473191 0 0 Z M-61.8125 63.1875 C-67.28136434 71.6596051 -67.9530772 81.29489418 -66 91 C-62.89232218 100.20745865 -57.34644753 106.48292856 -48.75 110.875 C-40.96485484 114.52579789 -32.82436379 115.43024318 -24.359375 113.3515625 C-14.8127466 109.44612361 -8.32666738 102.22076655 -4 93 C-0.77626514 84.2944303 -1.7146996 76.23420505 -5.5 67.875 C-9.95038845 59.6311852 -16.28060782 53.73542656 -25.1953125 50.625 C-39.41238678 47.45684974 -52.65066558 51.75571854 -61.8125 63.1875 Z " fill="#223E8C" transform="translate(467,66)"/>
<path d="M0 0 C1.60944391 1.37257011 3.15742631 2.81681887 4.6875 4.27734375 C5.0175 -0.34265625 5.3475 -4.96265625 5.6875 -9.72265625 C25.8175 -9.72265625 45.9475 -9.72265625 66.6875 -9.72265625 C66.6875 45.71734375 66.6875 101.15734375 66.6875 158.27734375 C46.5575 158.27734375 26.4275 158.27734375 5.6875 158.27734375 C5.3575 153.98734375 5.0275 149.69734375 4.6875 145.27734375 C3.85347656 145.880625 3.01945313 146.48390625 2.16015625 147.10546875 C-14.59461196 159.07208987 -29.05829341 162.32747499 -49.70703125 159.02734375 C-65.45054692 155.75241958 -79.30516802 148.94580508 -91.3125 138.27734375 C-91.94800781 137.71273437 -92.58351563 137.148125 -93.23828125 136.56640625 C-106.04724645 124.46747238 -117.34247375 103.52439269 -118.47363281 85.74462891 C-118.90587425 58.17667203 -113.92027077 34.92311348 -94.47265625 14.44140625 C-93.40337891 13.37019531 -93.40337891 13.37019531 -92.3125 12.27734375 C-91.71308594 11.66632813 -91.11367188 11.0553125 -90.49609375 10.42578125 C-67.24682576 -11.5681267 -26.90621173 -20.04330975 0 0 Z M-55.3125 58.27734375 C-59.75590745 65.78292349 -60.53406148 73.71694395 -59.3125 82.27734375 C-56.06783014 92.56233502 -49.48358055 99.75229974 -40 104.71484375 C-32.31499379 108.30762443 -24.5312509 108.29955586 -16.5625 105.52734375 C-7.80567759 101.98525828 -0.39078601 96.42206323 3.5625 87.58984375 C6.73318457 78.25393919 6.59622117 69.4075264 2.6875 60.27734375 C-2.38874957 51.37413968 -9.96383131 46.12395056 -19.58984375 42.97265625 C-33.6661013 39.37785877 -47.17518544 46.92844984 -55.3125 58.27734375 Z " fill="#223E8C" transform="translate(745.3125,73.72265625)"/>
<path d="M0 0 C19.8 0 39.6 0 60 0 C60 73.59 60 147.18 60 223 C40.2 223 20.4 223 0 223 C0 149.41 0 75.82 0 0 Z " fill="#223E8B" transform="translate(546,9)"/>
<path d="M0 0 C19.8 0 39.6 0 60 0 C60 55.44 60 110.88 60 168 C40.2 168 20.4 168 0 168 C0 112.56 0 57.12 0 0 Z " fill="#223E8C" transform="translate(253,64)"/>
<path d="M0 0 C19.8 0 39.6 0 60 0 C60 12.87 60 25.74 60 39 C40.2 39 20.4 39 0 39 C0 26.13 0 13.26 0 0 Z " fill="#233E8B" transform="translate(253,9)"/>
</svg>
