<svg xmlns="http://www.w3.org/2000/svg" height="800" width="1200" viewBox="-44.38875 -65.9705 384.7025 395.823"><defs><clipPath id="a" clipPathUnits="userSpaceOnUse"><path d="M228.02 618.04H394.7V454.72H228.02z"/></clipPath></defs><path d="M174.54 220.637l-.003-.004c-1.977-2.158-4.944-2.402-7.758-2.402-2.967 0-5.735.434-9.514 2.992 4.73-11.777 12.205-27.874 12.28-28.045l.37-.783-.866.083c-.044.002-4.562.468-13.669 2.612l-.255.066-.672 1.826-18.99 49.49s-1.392 2.995-5.539 5.402c-2.169 1.256-3.39 1.409-4.112 1.515a.649.649 0 01-.802-.767c.55-1.514 2.091-5.724 2.091-5.724 4.602-12.887 7.462-20.65 8.74-23.732l1.67-4.03h-12.538s-.218.405-.3.548c-1.444-.868-3.138-1.37-5.12-1.37-2.782 0-6.364 1.587-11.269 5-5.042 3.542-9.375 7.659-12.906 12.253-4.4 5.813-6.629 11.624-6.629 17.27 0 2.6.604 4.862 1.802 6.727.987 1.564 2.943 3.433 6.623 3.433 4.77 0 9.382-1.777 13.732-5.179.336 1.165 1.056 2.24 2.425 3.21 1.788 1.285 4.3 1.907 5.31 1.956 1.013.046 4.746-.131 8.054-1.833 2.805-1.444 4.542-3.306 6.113-5.72.812 1.97 1.881 3.641 3.21 4.956 1.732 1.732 3.914 2.61 6.477 2.61 7.181 0 14.717-3.54 22.394-10.507 8.289-7.506 12.501-15.648 12.501-24.205 0-2.981-.96-5.552-2.85-7.648zm-16.989 25.781c-4.892 7.266-6.504 7.698-8.232 7.831-.991.083-1.718-.23-2.28-.723a1.968 1.968 0 01-.64-1.63s.108-.944.202-1.32c.101-.378 1.446-5.135 3.679-10.175 2.231-5.05 3.123-6.323 4.84-8.343 2.877-3.39 6.048-4.805 7.633-3.924 3.114 1.727-1.462 12.716-5.202 18.284zm-54.303 7.032c-2.57-1.25-.565-6.846 3.869-14.847 3.612-6.53 7.207-9.817 10.606-9.817.421 0 .895.094 1.487.755.545.61.794 1.197.794 1.844 0 1.796-.957 5.447-5.543 12.596-4.033 6.283-9.113 10.486-11.213 9.469m154.867-31.584c-1.72-1.83-4.145-2.757-7.21-2.757-2.313 0-4.66 1.04-7.1 2.78.279-.787.797-2.238.797-2.238l-13.064-.015-10.066 30.019c-1.413 1.489-3.163 2.835-3.923 3.288-1.636.952-3.965 1.83-5.93 1.036 0 0-.949-.48-.736-1.05l3.697-10.88c2.688-7.94 5.062-14.539 6.874-19.09l1.583-3.985h-13.223l-.72 1.885c-2.334 6.187-4.274 10.856-5.93 14.285-2.595 5.458-5.194 9.67-7.719 12.526-2.322 2.585-4.399 4.664-7.031 4.653-.21 0-.448.002-.643-.044-.366-.087-.65-.54-.514-.835 1.986-5.248 12.658-32.47 12.658-32.47h-13.509s-12.915 32.784-13.132 35.687c-.174 2.39 1.066 4.404 2.725 5.985 1.645 1.564 3.66 2.35 5.985 2.35 4.292 0 9.167-2.524 14.792-7.466-.005.02-.046.12-.046.12 0 .013-.258 1.331-.258 1.331 0 1.258.7 3.063 4.027 4.57 2.152.959 4.179 1.446 6.014 1.446 3.185 0 5.833-.459 9.196-2.747 1.446-.982 2.448-1.982 3.219-2.986l-1.924 5.733h13.025l.622-2.08c1.59-5.36 3.166-10.004 4.692-13.797 2.142-5.458 4.305-9.862 6.433-13.1 2.446-3.694 3.79-4.223 4.965-4.692 0 0 .887-.434 2.573-.603 1.423-.144 2.851.954 3.261 1.804.452.927-.119 2.508-.644 3.812-.475 1.178-.812 2.027-.445 2.578.114.174.352.38.802.38 2.58 0 4.745-.968 6.262-2.786 1.4-1.705 2.109-3.74 2.109-6.052 0-2.603-.857-4.82-2.544-6.595M69.511 190.842l.02.016c-.125-.082-12.788-7.69-25.021-8.362C30.008 181.7 4.32 188.149 0 217.354l.968.197c3.406-13.003 15.678-25.312 29.176-29.27 8.162-2.383 17.304-1.46 25.736 2.61 10.106 5.087 18.303 17.065 19.483 28.474.684 6.632-.615 16.225-10.69 24.25-8.41 6.814-22.919 9.438-28.224 5.105-2.476-2.025-1.789-5.224-.284-9.84l16.59-42.22-.159-.218c-.32-.446-7.89-10.9-15.125-7.543-2.322 1.08-17.801 52.32-22.491 67.999l-.132.442.43.16c22.18 8.195 41.474 8.503 57.354.895 11.882-4.945 20.335-17.241 21.008-30.585.74-14.805-8.053-28.275-24.129-36.968M32.678 95.687c-.729-1.526-3.953-7.192-9.352-8.721-5.518-1.56-10.569.664-12.995 2.432l22.347 6.289" fill="#1b5c29"/><path d="M20.496 98.19c5.035 1.448 10.368-1.293 12.182-2.503l-22.347-6.29c1.606 2.703 3.883 6.986 10.165 8.793" fill="#52b12f"/><path d="M36.958 84.034c.254-2.032.387-8.294-3.253-12.436-3.877-4.405-9.13-5.278-12.125-5.022l15.378 17.458" fill="#1b5c29"/><path d="M25.424 79.582c3.559 3.85 9.35 4.545 11.534 4.452L21.58 66.576c-.027 3.141-.592 8.206 3.844 13.006m28.164 61.922c-2.317-.851-10.947-2.423-16.447 1.44-5.653 3.962-7.368 10.612-7.73 14.144l24.177-15.584" fill="#52b12f"/><path d="M45.831 155.498c5.735-3.726 7.64-11.143 7.757-13.994L29.41 157.088c4.288 1.24 10.881 2.004 16.42-1.59" fill="#1b5c29"/><path d="M52.186 133.591c-1.43-2.238-8.998-10.235-17.375-10.965-8.081-.696-15.308 2.768-18.472 5.413l35.847 5.552" fill="#52b12f"/><path d="M32.815 138.8c8.246 1.487 16.538-2.898 19.371-5.209L16.34 128.04c3.587 4.461 8.65 9.349 16.476 10.761" fill="#1b5c29"/><path d="M113.88 64.137c-.938-2.208-5.528-10.12-12.873-12.91-8.063-3.067-15.653-.865-19.126 1.131l32 11.779" fill="#52b12f"/><path d="M94.958 65.306c7.254 2.958 15.737.425 18.922-1.169L81.881 52.358c2.496 4.723 6.199 10.141 13.077 12.948" fill="#1b5c29"/><path d="M71.993 152.915c.169-2.582-.041-8.27-3.733-12.518-3.98-4.576-9.303-5.482-12.144-5.648l15.877 18.166" fill="#52b12f"/><path d="M60.127 147.576c3.688 4.264 9.524 5.566 11.866 5.339l-15.877-18.166c-.267 3.132.444 8.71 4.011 12.827" fill="#1b5c29"/><path d="M73.856 130.342c-.78-2.033-3.508-7.533-8.673-9.746-5.567-2.393-10.721-1.043-13.361.01l22.034 9.736" fill="#52b12f"/><path d="M60.284 130.24c5.58 2.77 11.544 1.303 13.572.102l-22.034-9.736c1.212 2.898 3.6 7.215 8.462 9.635m-9.013-19.507c-1.334-1.684-5.724-6.449-11.727-6.891-6.438-.476-10.966 3.326-13.095 5.424l24.822 1.467" fill="#1b5c29"/><path d="M38.947 116.218c5.689.316 10.805-3.917 12.324-5.484l-24.822-1.467c2.14 2.297 5.978 6.587 12.498 6.951" fill="#52b12f"/><path d="M129.146 38.752c1.28-2.175 4.609-8.897 2.542-15.61-2.224-7.201-8.25-10.468-11.462-11.88l8.92 27.49" fill="#1b5c29"/><g clip-path="url(#a)" transform="matrix(1.77655 0 0 -1.77655 -405.197 1097.978)"><path d="M294.572 602.396c1.169-3.554 4.874-5.617 6.204-6.169l-5.021 15.474c-.905-1.865-2.523-5.229-1.183-9.305m20.525 1.062c.819 1.073 2.965 4.445 2.267 8.107-.746 3.927-3.707 6.074-5.334 7.002l3.067-15.109" fill="#52b12f"/><path d="M309.866 610.018c.858-3.839 4.299-5.908 5.231-6.56l-3.067 15.109c-1.091-1.51-3.035-4.641-2.164-8.549" fill="#1b5c29"/></g><path d="M157.068 58.01c1.855-1.466 6.77-7.133 6.462-13.458-.287-5.87-5.332-10.998-8.102-12.913l1.64 26.37" fill="#52b12f"/><path d="M149.301 45.556c.602 6.66 6.211 11.153 7.767 12.454l-1.64-26.371c-2.398 2.313-6.743 7.134-6.127 13.917" fill="#1b5c29"/><path d="M166.175 74.686c2.089-.941 7.888-4.361 9.307-11.187 1.167-5.633-2.256-11.725-4.358-14.21l-4.95 25.397" fill="#52b12f"/><path d="M162.023 60.989c-1.034 6.035 3.029 12.086 4.152 13.697l4.95-25.397c-2.793 1.61-7.972 5.125-9.102 11.7" fill="#1b5c29"/><path d="M190.746 106.888c2.344.261 9.286.217 14.044-5.08 3.924-4.366 4.034-11.59 3.43-14.892l-17.474 19.972" fill="#52b12f"/><path d="M194.044 92.542c-3.944 4.85-3.483 12.331-3.298 14.346l17.474-19.972c-2.831-.25-9.56-.055-14.176 5.626" fill="#1b5c29"/><path d="M239.711 92.397c2.402.172 9.36-.308 14.504-5.488 4.28-4.319 4.774-11.78 4.404-15.108l-18.908 20.596" fill="#52b12f"/><path d="M243.742 77.644c-4.475 5.038-4.178 12.663-4.03 14.753L258.618 71.8c-2.926-.322-10.414.824-14.877 5.843" fill="#1b5c29"/><path d="M197.89 66.931c2.185-.511 8.769-2.956 11.517-8.543 2.612-5.305 1.304-11.741-.053-14.656l-11.464 23.2" fill="#52b12f"/><path d="M197.662 52.804c-2.727 5.7-.426 12.303.228 14.127l11.464-23.2c-3.077.814-8.85 3.138-11.692 9.073" fill="#1b5c29"/><path d="M192.292 42.145c2.24-.28 9.153-2.015 12.58-7.355 3.249-5.068 2.554-11.61 1.767-14.804l-14.347 22.16" fill="#52b12f"/><path d="M193.779 27.783c-3.418 5.456-1.922 12.454-1.487 14.362l14.347-22.159c-3.173.498-9.302 2.114-12.86 7.797" fill="#1b5c29"/><path d="M216.599 53.837c1.876.353 7.87.755 11.943-2.651 3.859-3.232 4.898-8.673 5.046-11.443l-16.99 14.094" fill="#52b12f"/><path d="M221.314 42.674c-4.088 3.499-4.598 9.516-4.715 11.163l16.989-14.094c-2.674-.43-8.009-.718-12.274 2.931" fill="#1b5c29"/><path d="M239.061 69.065c1.96-.437 8.007-2.006 10.777-7.557 2.707-5.426 1.368-10.57.442-13.342l-11.219 20.9" fill="#52b12f"/><path d="M239.306 56.091c-2.629 5.129-.945 10.87-.245 12.974l11.22-20.9c-2.767.697-8.233 2.584-10.975 7.926" fill="#1b5c29"/><path d="M222.747 97.888c2.013-.478 8.213-2.194 10.974-7.956 2.693-5.626 1.235-10.897.234-13.736l-11.208 21.692" fill="#52b12f"/><path d="M222.792 84.537c-2.623 5.323-.793 11.2-.045 13.35l11.208-21.69c-2.837.761-8.431 2.792-11.163 8.34" fill="#1b5c29"/><path d="M258.683 87.351c1.734.59 7.183 2.214 11.985-.803 4.692-2.947 6.102-7.577 6.706-10.172l-18.69 10.975" fill="#52b12f"/><path d="M265.061 77.378c-4.493 2.751-5.914 8.008-6.378 9.973l18.691-10.975c-2.485-.759-7.635-1.866-12.313 1.002" fill="#1b5c29"/><path d="M250.14 106.27c1.574 1.055 6.538 3.977 12.208 2.439 5.657-1.532 7.814-5.873 9.46-8.36l-21.668 5.92" fill="#52b12f"/><path d="M259.214 98.016c-5.239 1.536-8.081 6.413-9.074 8.254l21.668-5.922c-2.282-1.435-7.138-3.938-12.594-2.332m9.853 12.448c1.516 1.698 6.467 6.508 13.463 6.424 7.16-.083 11.077-4.11 13.395-6.989l-26.858.565" fill="#1b5c29"/><path d="M281.97 103.418c-6.493.277-11.228 5.172-12.903 7.046l26.858-.565c-2.226-2.347-7.191-6.765-13.955-6.48" fill="#52b12f"/><path d="M248.88 109.682c-.137 1.89-.067 7.854 4.106 11.997 4.088 4.062 9.249 3.868 12.016 3.902l-16.122-15.899" fill="#1b5c29"/><path d="M260.774 113.495c-3.93-3.791-9.803-3.862-11.894-3.813l16.122 15.899c.116-2.69-.131-8.139-4.228-12.086M208.14 129.76c1.83-.573 7.39-2.8 9.576-8.296 2.135-5.367.387-9.99-.712-12.55l-8.864 20.847" fill="#52b12f"/><path d="M207.282 117.169c-2.089 5.079.029 10.647.858 12.592l8.864-20.848c-2.573.885-7.545 2.958-9.722 8.256" fill="#1b5c29"/><path d="M236.853 137.976c.737-1.915 1.428-8.224-1.554-12.543-3.113-4.518-8.235-5.829-10.946-6.303l12.5 18.846" fill="#52b12f"/><path d="M226.245 132.161c2.956 4.104 8.554 5.45 10.608 5.815l-12.5-18.846c-.746 2.477-1.469 8.368 1.892 13.031" fill="#1b5c29"/><path d="M213.666 42.587c2.181-.44 8.593-2.616 11.64-8.115 2.876-5.19 1.632-11.63.627-14.706l-12.267 22.821" fill="#52b12f"/><path d="M213.998 28.382c-2.967 5.609-1.018 12.209-.332 14.205l12.267-22.821c-3.085.71-8.848 2.77-11.935 8.616m-107.039-4.715c1.114-2.16 2.87-7.397 1.076-12.173-2.03-5.404-7.035-7.834-9.694-8.747l8.618 20.92" fill="#1b5c29"/><path d="M97.692 15.861c2.026 4.52 7.224 7.023 9.267 7.806L98.34 2.747c-1.18 2.801-3.171 7.48-.649 13.114" fill="#52b12f"/><path d="M142.975 45.885c1.755-1.846 4.99-6.558 4.557-11.853-.487-5.993-4.891-9.851-7.33-11.528l2.773 23.38" fill="#1b5c29"/><path d="M135.755 35.47c.739 5.101 5.372 9.052 7.22 10.415l-2.773-23.381c-2.011 2.47-5.37 6.6-4.447 12.967m32.317 3.741c2.025-1.306 6.053-4.981 6.872-9.98.933-5.66-2.182-10.312-4.017-12.42l-2.855 22.4" fill="#52b12f"/><path d="M163.894 27.86c-.5 4.892 2.812 9.668 4.178 11.352l2.855-22.4c-2.404 1.826-6.415 4.938-7.033 11.048" fill="#1b5c29"/><path d="M177.273 49.576c1.833-.742 5.696-3.153 7.168-7.04 1.764-4.655-.208-8.902-1.364-10.889l-5.804 17.93" fill="#52b12f"/><path d="M175.608 39.812c-1.09 3.886.821 8.197 1.665 9.764l5.804-17.929c-2.22 1.105-6.044 3.056-7.469 8.165" fill="#1b5c29"/><path d="M183.082 74.203c2.033-.805 6.362-3.322 7.98-7.582 1.935-5.096-.158-9.812-1.456-11.992l-6.524 19.574" fill="#52b12f"/><path d="M181.236 63.588c-1.19 4.262.905 8.89 1.846 10.615l6.524-19.574c-2.455 1.199-6.81 3.363-8.37 8.959M109.19 49.26c.794-5.735-.515-11.036-3.695-14.846-4.006-4.802-11.043-6.249-14.12-6.014l17.815 20.86" fill="#1b5c29"/><path d="M95.058 43.088c3.318 3.673 7.33 5.753 14.132 6.172L91.375 28.4c-.37 2.985-.458 10.11 3.683 14.688" fill="#52b12f"/><path d="M126.714 94.088c2.374-5.007 3.11-10.567 1.233-14.929-2.81-6.514-8.869-8.925-11.745-9.595l10.512 24.524" fill="#1b5c29"/><path d="M115.286 84.104c1.972 4.304 5.336 7.64 11.428 9.984l-10.512-24.524c-1.195 2.615-3.379 9.166-.916 14.54" fill="#52b12f"/><path d="M183.118 26.787c4.57-1.844 8.316-4.768 9.892-8.881 1.96-5.1-.265-11.51-1.81-13.816l-8.082 22.697" fill="#1b5c29"/><path d="M181.2 13.075c-1.584 4.138-.788 8.245 1.918 13.712l8.081-22.697c-2.816.867-8.047 3.862-9.998 8.985" fill="#52b12f"/><path d="M143.309 78.47c2.988-4.852 4.89-10.581 3.71-15.16-1.98-7.658-8.477-10.928-11.257-12.101l7.547 27.261" fill="#1b5c29"/><path d="M132.32 67.324c1.433 4.823 5.5 8.69 10.989 11.146l-7.547-27.261c-2.41 3.46-5.228 10.093-3.441 16.115m67.773 13.416c5.984 2.333 12.982 2.593 18 .28 8.062-3.72 10.619-11.909 11.788-15.1l-29.788 14.82" fill="#52b12f"/><path d="M210.807 66.187c-5.212 2.73-8.767 8.242-10.713 14.554l29.788-14.82c-4.383-1.727-12.1-3.388-19.075.266" fill="#1b5c29"/><path d="M221.132 115.756c6.01 1.653 13.022 1.253 17.704-1.364 7.507-4.205 9.38-11.94 10.227-15.177l-27.93 16.541" fill="#52b12f"/><path d="M230.25 101.162c-4.845 3.017-7.789 8.222-9.118 14.594l27.931-16.541c-4.478-1.21-12.55-1.954-18.813 1.947" fill="#1b5c29"/><path d="M262.066 148.615c1.645-6.521.714-12.906-2.077-17.06-4.386-6.527-11.95-8.266-15.13-8.852l17.207 25.912" fill="#52b12f"/><path d="M247.493 140.736c3.075 4.241 8.42 6.662 14.573 7.88l-17.206-25.913c-1.347 4.503-1.73 12.006 2.633 18.033M123.34 61.806c2.585-4.686 3.388-10.19 1.802-14.447-2.267-6.08-7.776-9.119-10.532-10.115l8.73 24.562" fill="#1b5c29"/><path d="M112.777 51.4c1.691 4.615 4.667 7.702 10.563 10.406l-8.73-24.562c-1.35 2.524-3.855 8.635-1.833 14.155M58.415 77.763c.186-2.011.378-8.335-3.34-12.167-3.953-4.08-9.153-4.607-12.09-4.163l15.43 16.33" fill="#52b12f"/><path d="M47.203 73.983c3.628 3.544 9.071 4.015 11.212 3.78l-15.43-16.33c-.19 2.55-.307 8.119 4.218 12.55m36.661-8.874c-.68-1.992-2.297-7.613-8.283-10.734-4.933-2.574-11.472-1.237-14.212.183l22.495 10.55" fill="#1b5c29"/><path d="M70.643 65.76c4.88 2.13 11.183.294 13.22-.651L61.37 54.558c.913 2.507 3.168 8.534 9.274 11.203m17.292-22.243c-.143-2.476-.73-9.025-6.762-14.813-4.514-4.338-10.737-4.254-13.758-3.641l20.52 18.454" fill="#52b12f"/><path d="M73.455 38.807c4.097 3.647 9.655 5.054 14.48 4.711L67.417 25.064c.194 2.66.825 9.099 6.039 13.743m15.171 41.386c-.999-1.858-4.278-7.79-9.963-9.298-6.046-1.608-11.487.703-13.955 2.553l23.918 6.745" fill="#1b5c29"/><path d="M75.821 82.965c5.431 1.306 10.947-1.507 12.806-2.772l-23.918-6.745c1.306 2.32 4.328 7.882 11.112 9.517" fill="#52b12f"/><path d="M111.297 89.646c-.291-1.902-2.185-8.072-6.184-10.63-4.4-2.807-9.902-1.81-12.367-.79l18.551 11.42" fill="#1b5c29"/><path d="M99.72 89.343c4.226 2.354 9.71 1.119 11.577.303l-18.55-11.42c.596 2.227 1.867 8.269 6.972 11.117m-35.907 20.954c.915-3.12 1.34-11.512-1.882-17.202-5.022-8.865-13.489-11.145-16.433-11.653l18.315 28.855" fill="#52b12f"/><path d="M48.232 99.92c4.13 6.89 12.846 10.103 15.58 10.377L45.497 81.442c-.819 3.589-1.527 11.365 2.735 18.478" fill="#1b5c29"/><path d="M101.277 106.806c-.412-3.242-3.379-11.443-8.664-15.463-8.223-6.264-17.124-5.035-20.053-4.356l28.717 19.82" fill="#52b12f"/><path d="M82.316 103.301c6.8 4.912 16.538 4.306 18.961 3.505L72.56 86.986c.463 3.549 3.19 11.57 9.756 16.315" fill="#1b5c29"/><path d="M165.306 130.631c-2.31 5.53-1.911 10.333.961 10.57 2.864.237 6.954-4.162 9.096-9.669 2.068-5.33 1.542-9.735-1.151-9.995-2.69-.257-6.65 3.747-8.906 9.094m-13.39-40.02c-2.682 4.417-3.064 8.547-.785 9.087 2.272.556 6.23-2.688 8.765-7.103 2.463-4.281 2.66-8.097.53-8.64-2.137-.542-5.914 2.385-8.51 6.656m-25.971 41.344c2.993-1.107 1.808-5.854-2.544-10.482-4.22-4.475-9.824-7.138-12.626-6.068-2.805 1.06-1.9 5.475 2.126 9.993 4.161 4.656 10.05 7.653 13.044 6.557" fill="#f4711f"/><path d="M135.167 125.419c-10.48-14.704-12.821-19.764-26.536-31.408 3.14 5.8 53.246 72.375 6.54 37.574 0 0-26.864-18.607-61.995-16.67 0 0 68.41 7.24 80.431 53.326.11.42.274 2.8.217 3.555-.467 6.195-2.61 11.391-4.443 14.82-1.503 2.812-4.342 6.335-5.213 7.252-4.317 4.542-11.931 6.278-14.834 7.642 3.313 2.361 14.518.365 19.551.011l18.664.787c.509-.03 2.361.092 3.298.092l2.952-8.408s8.325-1.702 11.523-2.26c3.193-.563 6.772-.945 6.772-.945l-5.34 11.919c5.89.787 23.648 2.755 26.91.735-3.705-1.518-14.446-2.673-18.827-8.925-.62-.627-5.011-15.79-4.86-21.148.003-.19.023-.68.04-.757 8.272-55.19 64.67-75.148 64.67-75.148-36.51 8.275-56.197 36.938-56.197 36.938-37.027 46.292-11.343-21.805-3.699-29.844-13.79 10.668-18.844 26.447-18.844 26.447 4.209-44.78 42.023-49.059 42.023-49.059-19.48-.542-34.474 15.742-34.474 15.742-31.985 34.536-20.04-14.937-6.45-21.994-1.216.647-26.534 11.376-21.88 49.726" fill="#f4711f"/></svg>