<svg width="40" height="40" viewBox="0 0 40 40" fill="none" xmlns="http://www.w3.org/2000/svg">
<rect width="40" height="40" rx="20" fill="#E8F4F7" fill-opacity="0.56"/>
<path d="M22 9V13C22 13.5304 22.2107 14.0391 22.5858 14.4142C22.9609 14.7893 23.4696 15 24 15H28M18 16H16M24 20H16M24 24H16M23 9H14C13.4696 9 12.9609 9.21071 12.5858 9.58579C12.2107 9.96086 12 10.4696 12 11V27C12 27.5304 12.2107 28.0391 12.5858 28.4142C12.9609 28.7893 13.4696 29 14 29H26C26.5304 29 27.0391 28.7893 27.4142 28.4142C27.7893 28.0391 28 27.5304 28 27V14L23 9Z" stroke="#F8F8F8" stroke-linecap="round" stroke-linejoin="round"/>
</svg>
