<svg width="21" height="21" viewBox="0 0 21 21" fill="none" xmlns="http://www.w3.org/2000/svg">
<path opacity="0.2" d="M19.1607 12.5498L13.4072 18.3032M2.56229 19.0673C4.41485 20.1369 6.78371 19.5022 7.85328 17.6496L11.1752 11.896C11.2583 11.7519 11.209 11.5677 11.0649 11.4845L4.87794 7.91243C4.73386 7.82925 4.54964 7.87861 4.46646 8.02268L1.14457 13.7764C0.0749996 15.6289 0.709733 17.9978 2.56229 19.0673ZM12.983 1.01818C14.6513 1.98137 15.2229 4.11462 14.2597 5.78292L11.1428 11.1816C11.0596 11.3257 10.8754 11.375 10.7313 11.2919L5.21157 8.10505C5.06749 8.02187 5.01813 7.83764 5.10131 7.69357L8.21824 2.29489C9.18143 0.626593 11.3147 0.0549892 12.983 1.01818ZM12.1219 15.4265C12.1219 17.7252 13.9853 19.5886 16.284 19.5886C18.5826 19.5886 20.446 17.7252 20.446 15.4265C20.446 13.1279 18.5826 11.2645 16.284 11.2645C13.9853 11.2645 12.1219 13.1279 12.1219 15.4265Z" stroke="#EB5757"/>
</svg>
