<svg width="26" height="30" viewBox="0 0 26 30" fill="none" xmlns="http://www.w3.org/2000/svg">
<g opacity="0.2">
<path d="M5.49623 0.526218C5.58367 0.635525 5.58367 1.85976 5.49623 3.21517L5.3432 5.66365L6.67674 6.07902C8.07587 6.49439 8.73172 6.97534 8.20704 7.17209C8.03215 7.21581 7.31072 7.30326 6.5893 7.32512L5.27761 7.3907L5.12458 10.2327C4.94969 13.3151 4.84039 14.0584 4.51246 14.0584C4.05338 14.0584 3.85662 13.0965 3.72545 10.2327L3.57242 7.23767L2.78541 6.93161C-0.0784321 5.81668 -0.318907 5.20456 2.10771 5.20456H3.74731L4.03151 3.89288C4.7748 0.591802 5.10272 -0.151486 5.49623 0.526218Z" fill="#EB5757"/>
<path d="M19.2252 9.8611C19.4001 10.0579 19.7062 10.7137 19.8811 11.304C20.69 13.7087 22.4826 15.5888 23.9692 15.5888C24.6687 15.5888 25.412 16.0916 25.1934 16.4195C25.1278 16.5507 24.5813 16.813 23.991 17.0098C22.2421 17.5782 21.8268 18.1466 20.8211 21.229C20.1653 23.1528 19.6625 23.7212 19.0941 23.131C18.8973 22.9561 18.7006 22.3877 18.6131 21.8849C18.2633 19.7862 17.1921 18.3433 15.2246 17.3377C14.1097 16.7693 14.0878 16.2228 15.1372 15.5669C16.4926 14.7362 16.9517 14.0366 17.6512 11.8286C18.3508 9.64249 18.6787 9.22712 19.2252 9.8611ZM17.6512 14.8018C17.3889 15.2172 16.9298 15.7418 16.6237 15.9604L16.0772 16.3539L17.214 17.2065C17.8261 17.6656 18.635 18.5401 19.0066 19.1303L19.7062 20.2453L20.2965 18.9117C20.6244 18.1903 21.1709 17.3158 21.5207 16.9879L22.1547 16.3539L21.1272 15.3483C20.5369 14.8018 19.8155 13.818 19.4876 13.1622L18.8973 12.0035L18.5038 13.0091C18.2852 13.5775 17.9136 14.3864 17.6512 14.8018Z" fill="#EB5757"/>
<path d="M5.75864 15.8511C5.86794 16.0041 6.15215 16.6162 6.3489 17.2284C7.3108 19.8955 8.51318 21.1416 10.4807 21.6006C11.9454 21.9286 12.0547 22.497 10.743 22.9561C8.79737 23.6119 8.16339 24.3552 7.46383 26.8474C6.89543 28.8149 6.54565 29.4052 5.97725 29.3177C5.58375 29.274 5.43072 28.9898 5.12466 27.8093C4.5344 25.4045 3.81297 24.4426 1.88917 23.4589C0.839819 22.9123 0.599344 22.3658 1.25519 21.9286C2.78549 20.9011 3.52877 19.8517 4.20648 17.7749C4.86232 15.7199 5.27769 15.2171 5.75864 15.8511ZM4.75301 19.655C4.38137 20.442 3.76925 21.382 3.37574 21.7537L2.67618 22.4095L3.31016 22.8686C4.29392 23.5682 5.34327 24.7268 5.80236 25.6231L6.21773 26.4102L6.43634 25.8636C7.00474 24.377 7.68244 23.1965 8.14153 22.8249L8.66621 22.4095L7.52941 21.229C6.89543 20.5732 6.17401 19.6331 5.95539 19.1303C5.71492 18.6275 5.51816 18.2121 5.47444 18.2121C5.45258 18.2121 5.12466 18.868 4.75301 19.655Z" fill="#EB5757"/>
</g>
</svg>
