<svg width="41" height="49" viewBox="0 0 41 49" fill="none" xmlns="http://www.w3.org/2000/svg">
<path opacity="0.2" d="M-6.24312 30.3241L7.99589 44.5631M34.8356 46.4541C30.2508 49.1012 24.3882 47.5303 21.7412 42.9455L13.52 28.7059C13.3141 28.3493 13.4363 27.8934 13.7928 27.6876L29.1047 18.8472C29.4613 18.6414 29.9172 18.7635 30.1231 19.1201L38.3443 33.3596C40.9913 37.9445 39.4205 43.8071 34.8356 46.4541ZM9.04586 1.78491C4.91705 4.16868 3.50242 9.44817 5.88619 13.577L13.6002 26.938C13.806 27.2945 14.262 27.4167 14.6185 27.2108L28.279 19.3239C28.6356 19.1181 28.7578 18.6621 28.5519 18.3056L20.8379 4.9446C18.4542 0.815786 13.1747 -0.598856 9.04586 1.78491ZM11.1769 37.4436C11.1769 43.1324 6.56518 47.7441 0.876347 47.7441C-4.81248 47.7441 -9.42419 43.1324 -9.42419 37.4436C-9.42419 31.7548 -4.81248 27.1431 0.876347 27.1431C6.56518 27.1431 11.1769 31.7548 11.1769 37.4436Z" stroke="#EB5757"/>
</svg>
