<svg width="26" height="25" viewBox="0 0 26 25" fill="none" xmlns="http://www.w3.org/2000/svg">
<path opacity="0.2" d="M2.89039 15.7282L9.73257 22.5703M22.6297 23.479C20.4266 24.751 17.6095 23.9961 16.3375 21.793L12.387 14.9506C12.2881 14.7793 12.3468 14.5602 12.5181 14.4612L19.8759 10.2133C20.0472 10.1143 20.2663 10.173 20.3652 10.3444L24.3157 17.1868C25.5876 19.3899 24.8328 22.207 22.6297 23.479ZM10.2371 2.01443C8.25312 3.15989 7.57335 5.69681 8.71881 7.6808L12.4255 14.1011C12.5245 14.2724 12.7436 14.3311 12.9149 14.2322L19.4791 10.4423C19.6504 10.3434 19.7091 10.1243 19.6102 9.953L15.9035 3.53273C14.758 1.54875 12.2211 0.868979 10.2371 2.01443ZM11.2611 19.1492C11.2611 21.8829 9.04508 24.0989 6.31146 24.0989C3.57785 24.0989 1.36182 21.8829 1.36182 19.1492C1.36182 16.4156 3.57785 14.1996 6.31146 14.1996C9.04508 14.1996 11.2611 16.4156 11.2611 19.1492Z" stroke="#EB5757"/>
</svg>
