<svg width="25" height="30" viewBox="0 0 25 30" fill="none" xmlns="http://www.w3.org/2000/svg">
<g opacity="0.2">
<path d="M19.8818 0.855808C19.7944 0.965115 19.7944 2.18935 19.8818 3.54476L20.0349 5.99324L18.7013 6.40861C17.3022 6.82398 16.6463 7.30493 17.171 7.50168C17.3459 7.5454 18.0673 7.63285 18.7888 7.65471L20.1004 7.72029L20.2535 10.5623C20.4284 13.6447 20.5377 14.388 20.8656 14.388C21.3247 14.388 21.5214 13.4261 21.6526 10.5623L21.8056 7.56726L22.5926 7.2612C25.4565 6.14627 25.697 5.53415 23.2703 5.53415H21.6307L21.3465 4.22247C20.6033 0.921392 20.2753 0.178104 19.8818 0.855808Z" fill="#EB5757"/>
<path d="M6.15281 10.1907C5.97792 10.3874 5.67186 11.0433 5.49696 11.6335C4.68809 14.0383 2.89546 15.9184 1.40888 15.9184C0.709315 15.9184 -0.0339731 16.4212 0.184641 16.7491C0.250225 16.8803 0.796761 17.1426 1.38702 17.3394C3.13593 17.9078 3.5513 18.4762 4.55692 21.5586C5.21277 23.4824 5.71558 24.0508 6.28398 23.4606C6.48073 23.2857 6.67748 22.7173 6.76493 22.2145C7.11471 20.1158 8.18592 18.6729 10.1534 17.6673C11.2684 17.0989 11.2902 16.5524 10.2409 15.8965C8.88548 15.0658 8.42639 14.3662 7.72683 12.1582C7.02726 9.97208 6.69934 9.55671 6.15281 10.1907ZM7.72683 15.1314C7.98917 15.5467 8.44826 16.0714 8.75432 16.29L9.30085 16.6835L8.16406 17.5361C7.55194 17.9952 6.74307 18.8697 6.37142 19.4599L5.67186 20.5749L5.0816 19.2413C4.75368 18.5199 4.20714 17.6454 3.85736 17.3175L3.22338 16.6835L4.25086 15.6779C4.84112 15.1314 5.56255 14.1476 5.89047 13.4918L6.48073 12.3331L6.87423 13.3387C7.09285 13.9071 7.46449 14.716 7.72683 15.1314Z" fill="#EB5757"/>
<path d="M19.6194 16.1807C19.5101 16.3337 19.2259 16.9458 19.0292 17.558C18.0673 20.225 16.8649 21.4711 14.8973 21.9302C13.4326 22.2582 13.3233 22.8266 14.635 23.2856C16.5807 23.9415 17.2147 24.6848 17.9142 27.177C18.4826 29.1445 18.8324 29.7348 19.4008 29.6473C19.7943 29.6036 19.9473 29.3194 20.2534 28.1389C20.8437 25.7341 21.5651 24.7722 23.4889 23.7885C24.5382 23.2419 24.7787 22.6954 24.1229 22.2582C22.5926 21.2307 21.8493 20.1813 21.1716 18.1045C20.5157 16.0495 20.1004 15.5467 19.6194 16.1807ZM20.625 19.9846C20.9967 20.7716 21.6088 21.7116 22.0023 22.0833L22.7019 22.7391L22.0679 23.1982C21.0841 23.8978 20.0348 25.0564 19.5757 25.9527L19.1603 26.7397L18.9417 26.1932C18.3733 24.7066 17.6956 23.5261 17.2365 23.1545L16.7118 22.7391L17.8486 21.5586C18.4826 20.9028 19.204 19.9627 19.4227 19.4599C19.6631 18.9571 19.8599 18.5417 19.9036 18.5417C19.9255 18.5417 20.2534 19.1976 20.625 19.9846Z" fill="#EB5757"/>
</g>
</svg>
