<svg width="45" height="55" viewBox="0 0 45 55" fill="none" xmlns="http://www.w3.org/2000/svg">
<path opacity="0.2" d="M52.9301 34.0763L36.892 50.1143M6.66112 52.2442C11.8252 55.2257 18.4285 53.4564 21.41 48.2923L30.67 32.2536C30.9018 31.852 30.7642 31.3385 30.3626 31.1066L13.1161 21.1493C12.7145 20.9174 12.201 21.055 11.9691 21.4566L2.70916 37.4953C-0.272336 42.6594 1.49702 49.2627 6.66112 52.2442ZM35.7094 1.93122C40.3598 4.61617 41.9532 10.5627 39.2683 15.2132L30.5796 30.2623C30.3478 30.6639 29.8342 30.8015 29.4326 30.5696L14.0461 21.6862C13.6445 21.4544 13.5069 20.9408 13.7388 20.5392L22.4274 5.49012C25.1123 0.839645 31.0589 -0.753733 35.7094 1.93122ZM33.3091 42.0953C33.3091 48.5029 38.5035 53.6973 44.9111 53.6973C51.3187 53.6973 56.5131 48.5029 56.5131 42.0953C56.5131 35.6877 51.3187 30.4933 44.9111 30.4933C38.5035 30.4933 33.3091 35.6877 33.3091 42.0953Z" stroke="#EB5757"/>
</svg>
