<svg width="133" height="150" viewBox="0 0 133 150" fill="none" xmlns="http://www.w3.org/2000/svg">
<g clip-path="url(#clip0_245_919)">
<path fill-rule="evenodd" clip-rule="evenodd" d="M6.70325 91.7438L26.4457 88.0388L23.5073 82.8434L114.214 66.999L92.2009 81.6361L101.934 84.8666C101.934 84.8666 62.5413 101.51 42.9408 103.009C23.332 104.508 6.7116 91.7522 6.7116 91.7522L6.70325 91.7438Z" fill="url(#paint0_linear_245_919)"/>
<path opacity="0.8" fill-rule="evenodd" clip-rule="evenodd" d="M106.818 80.5871C106.818 80.5871 104.631 82.0358 100.281 81.5529C96.116 81.0866 94.1208 79.1716 94.1208 79.1716C94.1208 79.1716 96.8088 48.8984 97.5601 47.3664C98.5452 45.3682 102.193 44.7937 102.585 43.3699C102.602 43.32 102.611 43.27 102.619 43.2201C102.769 41.8879 101.233 40.5557 101.008 38.6241V38.6075C100.974 38.3244 100.974 38.033 101.008 37.7249C101.258 35.2854 105.29 23.7955 105.983 23.2127C106.676 22.6299 106.918 22.6216 106.918 22.6216C106.918 22.6216 107.152 22.6799 107.694 23.4042C108.245 24.1286 109.623 36.2262 109.33 38.6574C109.289 38.9738 109.222 39.2652 109.122 39.5316C108.471 41.3717 106.676 42.3292 106.534 43.6613C106.526 43.7529 106.534 43.8445 106.542 43.9361C106.784 45.3682 110.048 46.717 110.541 48.8234C110.942 50.4886 106.851 80.6037 106.851 80.6037L106.818 80.5871Z" fill="url(#paint1_linear_245_919)"/>
<path fill-rule="evenodd" clip-rule="evenodd" d="M100.44 80.1457C97.9441 79.871 96.3496 79.0217 95.6067 78.5221C96.6084 67.2821 98.3114 49.7476 98.8623 47.9408C99.1962 47.3247 100.223 46.7918 101.125 46.3173C102.477 45.6096 103.871 44.8769 104.038 43.3782C104.163 42.2625 103.646 41.2967 103.195 40.4391C102.744 39.5982 102.318 38.7989 102.418 37.8664C102.619 35.9181 105.44 27.7836 106.642 24.9778C107.193 27.9835 108.145 36.5342 107.911 38.4825C107.803 39.4067 107.21 40.0894 106.584 40.8138C105.95 41.5465 105.232 42.3791 105.106 43.4948C104.939 44.9934 106.133 46.0175 107.294 47C108.07 47.6577 108.946 48.4071 109.138 49.0815C109.272 50.9632 107.043 68.4644 105.532 79.6462C104.739 79.9625 103.036 80.4288 100.457 80.1457H100.44Z" fill="url(#paint2_linear_245_919)"/>
<path fill-rule="evenodd" clip-rule="evenodd" d="M104.28 31.3388C104.28 31.3388 104.046 28.2498 105.824 26.5264C105.824 26.5264 106.158 29.174 104.28 31.3388Z" fill="white"/>
<g style="mix-blend-mode:multiply" opacity="0.5">
<path fill-rule="evenodd" clip-rule="evenodd" d="M106.492 43.6529C106.484 43.7445 106.492 43.8361 106.501 43.9277C105.674 43.9277 104.372 43.8278 102.577 43.3698C102.594 43.3199 102.602 43.2699 102.611 43.22C102.761 41.8878 101.225 40.5556 100.999 38.624C101.066 38.7739 101.676 39.9812 104.464 40.3975C107.26 40.8221 108.896 39.6648 109.08 39.5232C108.429 41.3633 106.634 42.3208 106.492 43.6529Z" fill="#811734"/>
</g>
<path style="mix-blend-mode:screen" opacity="0.5" fill-rule="evenodd" clip-rule="evenodd" d="M110.507 48.8068L107.177 48.4321L102.986 81.6112C102.986 81.6112 105.44 81.403 106.809 80.5787C106.809 80.5787 110.716 52.0456 110.499 48.7985L110.507 48.8068Z" fill="url(#paint3_linear_245_919)"/>
<g style="mix-blend-mode:multiply" opacity="0.5">
<path fill-rule="evenodd" clip-rule="evenodd" d="M97.0342 59.6223C97.0342 59.6223 102.853 60.6797 108.087 58.9895L105.515 79.6463C105.515 79.6463 101.659 81.5779 95.6067 78.5223L97.0342 59.614V59.6223Z" fill="#A70034"/>
</g>
<path fill-rule="evenodd" clip-rule="evenodd" d="M108.087 58.9895C108.087 58.9895 103.103 58.1153 97.0342 59.6223C97.0342 59.6223 102.502 61.4706 108.087 58.9895Z" fill="#FFA425"/>
<path fill-rule="evenodd" clip-rule="evenodd" d="M98.0442 48.6819C98.0442 48.6819 98.6954 45.9759 100.766 45.6262L103.353 46.1508C103.353 46.1508 102.101 47.4912 101.659 49.3146L98.0359 48.6735L98.0442 48.6819Z" fill="white"/>
<path style="mix-blend-mode:screen" opacity="0.5" fill-rule="evenodd" clip-rule="evenodd" d="M101.667 49.323L99.238 77.7396L95.3981 77.3149L98.0443 48.6819L101.667 49.323Z" fill="url(#paint4_linear_245_919)"/>
<path fill-rule="evenodd" clip-rule="evenodd" d="M86.3074 40.5892L87.1505 36.5261L75.856 35.8767L64.7368 35.2439L65.1125 39.3736C59.5946 39.8898 58.2423 45.3267 58.2423 45.3267L56.9901 91.694C56.9901 91.694 61.6315 93.8088 72.5169 94.4333C83.6194 95.0661 88.2608 93.4841 88.2608 93.4841L92.2761 47.2749C92.2761 47.2749 91.8754 41.8048 86.3074 40.5808V40.5892Z" fill="url(#paint5_radial_245_919)"/>
<g style="mix-blend-mode:multiply" opacity="0.5">
<path fill-rule="evenodd" clip-rule="evenodd" d="M65.1125 39.3735C65.1125 39.3735 72.158 41.863 86.3075 40.5891L86.7833 38.3078L64.595 37.0339L65.1125 39.3735Z" fill="#811734"/>
</g>
<path fill-rule="evenodd" clip-rule="evenodd" d="M61.6399 36.5177C61.6399 36.5177 73.5354 39.0821 89.9053 38.1329L90.7568 32.1382C90.7568 32.1382 78.3521 27.8587 61.5146 30.6978L61.6399 36.5177Z" fill="url(#paint6_linear_245_919)"/>
<path fill-rule="evenodd" clip-rule="evenodd" d="M61.5146 30.6979C61.5146 30.6979 75.7392 32.5713 90.7568 32.1383C90.7568 32.1383 77.7928 27.8255 61.5146 30.6979Z" fill="url(#paint7_linear_245_919)"/>
<path fill-rule="evenodd" clip-rule="evenodd" d="M88.8452 31.5888C88.8452 31.5888 77.342 32.2965 63.1675 30.4315L63.2009 29.832C63.2009 29.832 78.5273 31.4722 88.8785 30.9977L88.8452 31.5888Z" fill="url(#paint8_linear_245_919)"/>
<path fill-rule="evenodd" clip-rule="evenodd" d="M63.2009 29.832C63.2009 29.832 75.4554 28.4582 88.8786 30.9976C88.8786 30.9976 74.9963 31.622 63.2009 29.832Z" fill="url(#paint9_linear_245_919)"/>
<g style="mix-blend-mode:soft-light" opacity="0.5">
<path fill-rule="evenodd" clip-rule="evenodd" d="M58.2339 45.3267C58.2339 45.3267 66.565 48.4739 84.8967 48.2741C86.5161 48.2574 87.8017 49.6145 87.7098 51.2298L85.84 83.6844C85.7648 85.0582 84.688 86.1739 83.3106 86.3071C79.0783 86.7068 69.5285 87.0065 57.1821 83.751L58.2256 45.3267H58.2339Z" fill="#FBF9FA"/>
</g>
<g style="mix-blend-mode:soft-light" opacity="0.5">
<path fill-rule="evenodd" clip-rule="evenodd" d="M57.9 57.699C57.9 57.699 67.2161 60.3133 81.0817 60.1968L79.7544 76.3741C79.7544 76.3741 69.5034 77.0819 57.4659 73.9763L57.9084 57.699H57.9Z" fill="#FBF9FA"/>
</g>
<path style="mix-blend-mode:screen" opacity="0.5" fill-rule="evenodd" clip-rule="evenodd" d="M92.2761 47.275L88.2608 93.4842C88.2608 93.4842 84.8132 94.6498 79.1117 94.5666L83.2689 46.7588C83.2689 46.7588 89.7133 47.7579 92.2844 47.275H92.2761Z" fill="url(#paint10_linear_245_919)"/>
<g style="mix-blend-mode:soft-light" opacity="0.6">
<path fill-rule="evenodd" clip-rule="evenodd" d="M59.0604 44.9354C59.0604 44.9354 60.1038 42.371 62.9087 40.9639L64.8453 41.6799C64.8453 41.6799 63.1925 44.4358 62.6499 45.8512L59.052 44.9354H59.0604Z" fill="#FBF9FA"/>
</g>
<path style="mix-blend-mode:screen" opacity="0.5" fill-rule="evenodd" clip-rule="evenodd" d="M59.0604 44.9353L59.2274 90.6949C59.2274 90.6949 59.9536 91.3859 64.6534 91.7773L67.0325 47.0251C67.0325 47.0251 67.2412 43.395 68.7355 41.2969L64.4113 40.2561C64.4113 40.2561 61.0138 41.3135 59.0604 44.9353Z" fill="url(#paint11_linear_245_919)"/>
<path fill-rule="evenodd" clip-rule="evenodd" d="M102.051 61.6455L102.293 59.7056L94.7053 58.7731L87.1172 57.8406L86.8751 59.7805C83.6946 61.6289 82.7763 64.7928 82.7763 64.7928L79.6793 95.7571C79.6793 95.7571 82.4842 97.9884 89.5964 98.8627C97.2764 99.8035 100.19 98.3048 100.19 98.3048L104.798 67.4904C104.798 67.4904 104.681 64.1933 102.043 61.6372L102.051 61.6455Z" fill="url(#paint12_linear_245_919)"/>
<path style="mix-blend-mode:multiply" fill-rule="evenodd" clip-rule="evenodd" d="M86.8751 59.7889C86.8751 59.7889 89.8135 61.0711 94.5717 61.6539C99.33 62.2367 102.051 61.6456 102.051 61.6456L102.185 60.5799L87.0254 58.6316L86.8835 59.7889H86.8751Z" fill="url(#paint13_linear_245_919)"/>
<path fill-rule="evenodd" clip-rule="evenodd" d="M85.7732 54.1521L85.6647 58.1402C85.6647 58.1402 87.6347 59.3309 94.53 60.1801C101.425 61.021 103.921 60.3799 103.921 60.3799L104.931 56.5C104.931 56.5 101.509 56.6998 94.6802 55.8589C87.8518 55.018 85.7732 54.1521 85.7732 54.1521Z" fill="url(#paint14_radial_245_919)"/>
<path fill-rule="evenodd" clip-rule="evenodd" d="M85.7732 54.1522C85.7732 54.1522 95.0976 52.9866 104.931 56.5002C104.931 56.5002 101.617 56.7083 94.6802 55.8591C87.7349 55.0098 85.7732 54.1522 85.7732 54.1522Z" fill="#5CE5FF"/>
<path fill-rule="evenodd" clip-rule="evenodd" d="M87.3426 54.0272L87.1339 53.0032C87.1339 53.0032 95.4817 52.4453 104.155 54.9931L103.729 56.3502C103.729 56.3502 100.666 56.2003 95.106 55.5176C89.5381 54.8349 87.3426 54.0272 87.3426 54.0272Z" fill="#5CE5FF"/>
<path fill-rule="evenodd" clip-rule="evenodd" d="M87.1339 53.0032C87.1339 53.0032 90.2393 53.8691 95.4566 54.5102C100.674 55.1513 104.155 55.0014 104.155 55.0014L103.804 56.167C103.804 56.167 100.941 56.3585 95.0893 55.6342C89.8887 54.9931 87.3677 54.1522 87.3677 54.1522L87.1339 53.0115V53.0032Z" fill="url(#paint15_radial_245_919)"/>
<g style="mix-blend-mode:multiply" opacity="0.3">
<path fill-rule="evenodd" clip-rule="evenodd" d="M86.0403 57.9821L86.1989 54.5352L86.466 54.5685L86.2323 58.0071L86.0403 57.9821Z" fill="#AFA4C6"/>
</g>
<g style="mix-blend-mode:multiply" opacity="0.3">
<path fill-rule="evenodd" clip-rule="evenodd" d="M87.5763 58.5815L87.7349 55.1345L87.9937 55.1678L87.7599 58.6065L87.5763 58.5815Z" fill="#AFA4C6"/>
</g>
<g style="mix-blend-mode:multiply" opacity="0.3">
<path fill-rule="evenodd" clip-rule="evenodd" d="M89.3126 58.9811L89.4712 55.5425L89.73 55.5758L89.5046 59.0061L89.3126 58.9811Z" fill="#AFA4C6"/>
</g>
<g style="mix-blend-mode:multiply" opacity="0.3">
<path fill-rule="evenodd" clip-rule="evenodd" d="M91.1492 59.3393L91.3078 55.8923L91.5666 55.9256L91.3328 59.3643L91.1492 59.3393Z" fill="#AFA4C6"/>
</g>
<g style="mix-blend-mode:multiply" opacity="0.3">
<path fill-rule="evenodd" clip-rule="evenodd" d="M100.983 60.3384L101.467 56.9331L101.726 56.9664L101.175 60.3634L100.983 60.3384Z" fill="#AFA4C6"/>
</g>
<g style="mix-blend-mode:multiply" opacity="0.3">
<path fill-rule="evenodd" clip-rule="evenodd" d="M93.3112 59.6056L93.6033 56.1753L93.8621 56.2086L93.5032 59.6306L93.3112 59.6056Z" fill="#AFA4C6"/>
</g>
<g style="mix-blend-mode:multiply" opacity="0.3">
<path fill-rule="evenodd" clip-rule="evenodd" d="M96.1328 59.9555L96.4751 56.5251L96.7422 56.5585L96.3165 59.9721L96.1328 59.9555Z" fill="#AFA4C6"/>
</g>
<g style="mix-blend-mode:multiply" opacity="0.3">
<path fill-rule="evenodd" clip-rule="evenodd" d="M102.986 60.1885L103.596 56.7998L103.863 56.8331L103.178 60.2135L102.986 60.1885Z" fill="#AFA4C6"/>
</g>
<g style="mix-blend-mode:multiply" opacity="0.3">
<path fill-rule="evenodd" clip-rule="evenodd" d="M98.7289 60.2718L99.1129 56.8499L99.38 56.8832L98.9209 60.2968L98.7289 60.2718Z" fill="#AFA4C6"/>
</g>
<path style="mix-blend-mode:screen" opacity="0.5" fill-rule="evenodd" clip-rule="evenodd" d="M86.8082 60.3882C86.8082 60.3882 84.3123 62.1616 83.4691 64.4596L80.6226 95.4655C80.6226 95.4655 82.3672 96.5646 86.1237 96.9309L90.3811 65.3088C90.3811 65.3088 90.907 62.811 91.8586 61.6204C91.8586 61.6204 88.8367 60.8877 86.8082 60.3965V60.3882Z" fill="url(#paint16_linear_245_919)"/>
<g style="mix-blend-mode:soft-light" opacity="0.6">
<path fill-rule="evenodd" clip-rule="evenodd" d="M83.4608 64.4598C83.4608 64.4598 85.8566 65.5505 90.2642 66.2249C90.2642 66.2249 90.3894 63.6272 91.8503 61.6206L86.7999 60.3967C86.7999 60.3967 84.2956 62.2867 83.4608 64.4681V64.4598Z" fill="#FBF9FA"/>
</g>
<path fill-rule="evenodd" clip-rule="evenodd" d="M87.6431 68.7393C90.0639 69.2971 96.3248 70.571 101.968 70.2463C102.569 70.213 103.045 70.7292 102.953 71.3204L99.2465 96.1068C99.188 96.5148 98.8708 96.8311 98.4618 96.8977C96.642 97.1808 91.3161 97.6887 84.2205 95.5406C83.7948 95.4074 83.5193 94.9911 83.5611 94.5415L86.4911 69.5552C86.5495 68.9974 87.0838 68.6061 87.6431 68.7393Z" fill="url(#paint17_linear_245_919)"/>
<path style="mix-blend-mode:screen" opacity="0.5" fill-rule="evenodd" clip-rule="evenodd" d="M97.5936 98.3465L101.918 68.8809L104.147 68.4812L99.5887 97.9385L97.5936 98.3465Z" fill="url(#paint18_linear_245_919)"/>
<path fill-rule="evenodd" clip-rule="evenodd" d="M30.4109 108.113L12.6302 57.5822C12.1711 56.2667 12.8723 54.8263 14.1996 54.3851L52.0566 41.7546C53.3923 41.305 54.8364 42.0543 55.2455 43.3948L70.981 94.9825C71.3817 96.2814 70.6554 97.6635 69.3615 98.0881L33.5497 109.653C32.2558 110.069 30.87 109.386 30.4193 108.104L30.4109 108.113Z" fill="url(#paint19_radial_245_919)"/>
<path fill-rule="evenodd" clip-rule="evenodd" d="M30.2857 107.755L12.505 57.2243C12.0458 55.9088 12.747 54.4684 14.0743 54.0272L51.9314 41.3966C53.267 40.947 54.7112 41.6964 55.1202 43.0369L70.8557 94.6246C71.2564 95.9235 70.5302 97.3056 69.2363 97.7302L33.4244 109.295C32.1305 109.711 30.7448 109.029 30.294 107.746L30.2857 107.755Z" fill="url(#paint20_linear_245_919)"/>
<path fill-rule="evenodd" clip-rule="evenodd" d="M50.2368 101.227L33.1573 49.0316L34.2259 48.6819L51.1801 100.911L50.2368 101.227Z" fill="url(#paint21_linear_245_919)"/>
<path style="mix-blend-mode:screen" opacity="0.5" fill-rule="evenodd" clip-rule="evenodd" d="M48.0497 93.4757C48.0497 93.4757 37.2894 62.1034 35.2943 54.5435C35.2943 54.5435 45.8626 85.7159 48.0497 93.4757Z" fill="url(#paint22_linear_245_919)"/>
<path style="mix-blend-mode:screen" opacity="0.5" fill-rule="evenodd" clip-rule="evenodd" d="M19.4002 58.6647L28.4992 55.6341C29.9267 55.1595 31.3625 54.6766 32.047 57.649C32.5813 59.2392 31.855 60.9128 30.4276 61.3873L21.3285 64.418C19.9011 64.8926 18.315 63.9934 17.7807 62.4031C16.7456 60.205 17.9727 59.1393 19.4002 58.6647Z" fill="url(#paint23_linear_245_919)"/>
<g style="mix-blend-mode:multiply" opacity="0.5">
<path fill-rule="evenodd" clip-rule="evenodd" d="M20.4353 59.5556L28.1987 56.9662C29.4175 56.5583 30.6446 56.1503 31.1455 58.4316C31.5545 59.6472 30.895 60.9627 29.6763 61.3707L21.9129 63.9601C20.6941 64.368 19.3751 63.7103 18.9661 62.4947C18.1564 60.8212 19.2165 59.9636 20.4353 59.5556Z" fill="#7E6DA5"/>
</g>
<path fill-rule="evenodd" clip-rule="evenodd" d="M20.3185 58.6564L28.0819 56.0671C29.3007 55.6591 30.5278 55.2511 31.0286 57.5324C31.4377 58.748 30.7782 60.0635 29.5594 60.4715L21.796 63.0609C20.5773 63.4689 19.2583 62.8111 18.8493 61.5955C18.0395 59.922 19.0997 59.0644 20.3185 58.6564Z" fill="url(#paint24_radial_245_919)"/>
<path fill-rule="evenodd" clip-rule="evenodd" d="M20.043 57.8488L27.8064 55.2594C29.0252 54.8514 30.3441 55.5092 30.7532 56.7248C31.1622 57.9404 30.5027 59.2559 29.284 59.6638L21.5206 62.2532C20.3018 62.6612 18.9828 62.0034 18.5738 60.7878C18.1648 59.5722 18.8242 58.2567 20.043 57.8488Z" fill="url(#paint25_linear_245_919)"/>
<path fill-rule="evenodd" clip-rule="evenodd" d="M20.2767 57.8903L27.6562 55.4258C28.8165 55.0428 30.0686 55.659 30.4526 56.8163C30.8366 57.9736 30.2189 59.2225 29.0586 59.6055L21.6792 62.07C20.5188 62.453 19.2667 61.8368 18.8827 60.6795C18.4987 59.5222 19.1164 58.2733 20.2767 57.8903Z" fill="url(#paint26_linear_245_919)"/>
<path fill-rule="evenodd" clip-rule="evenodd" d="M23.6826 56.8997L23.4739 57.3576L24.5841 60.6547L25.0015 60.8378L25.2436 60.4632L24.1083 57.0912L23.6826 56.8997Z" fill="url(#paint27_linear_245_919)"/>
<g style="mix-blend-mode:multiply" opacity="0.3">
<path fill-rule="evenodd" clip-rule="evenodd" d="M23.6826 56.8997L25.0016 60.8378L25.2436 60.4632L24.1084 57.0912L23.6826 56.8997Z" fill="#AFA4C6"/>
</g>
<path style="mix-blend-mode:screen" fill-rule="evenodd" clip-rule="evenodd" d="M17.7891 61.0459C17.7891 61.0459 18.4152 60.0718 19.4503 59.6305C20.4854 59.1892 29.0669 56.425 29.0669 56.425C29.0669 56.425 29.0335 55.6091 28.5243 55.1428C28.5243 55.1428 20.5689 57.5823 19.3919 58.1901C18.2148 58.7979 17.5053 60.2217 17.5053 60.2217C17.5053 60.2217 17.4385 60.8128 17.7807 61.0459H17.7891Z" fill="url(#paint28_linear_245_919)"/>
<path style="mix-blend-mode:screen" opacity="0.5" fill-rule="evenodd" clip-rule="evenodd" d="M23.5824 71.1372L32.6815 68.1065C34.109 67.6319 35.5448 67.149 36.2293 70.1214C36.7635 71.7116 36.0373 73.3852 34.6098 73.8597L25.5108 76.8904C24.0833 77.365 22.4972 76.4658 21.963 74.8755C20.9279 72.6775 22.155 71.6117 23.5824 71.1372Z" fill="url(#paint29_linear_245_919)"/>
<g style="mix-blend-mode:multiply" opacity="0.5">
<path fill-rule="evenodd" clip-rule="evenodd" d="M24.6259 72.028L32.3893 69.4387C33.608 69.0307 34.8352 68.6227 35.336 70.904C35.7451 72.1196 35.0856 73.4351 33.8668 73.8431L26.1034 76.4325C24.8846 76.8404 23.5657 76.1827 23.1567 74.9671C22.3469 73.2936 23.4071 72.436 24.6259 72.028Z" fill="#7E6DA5"/>
</g>
<path fill-rule="evenodd" clip-rule="evenodd" d="M24.5007 71.1372L32.2641 68.5478C33.4829 68.1398 34.71 67.7318 35.2109 70.0132C35.6199 71.2287 34.9605 72.5443 33.7417 72.9522L25.9783 75.5416C24.7595 75.9496 23.4406 75.2918 23.0315 74.0762C22.2218 72.4027 23.282 71.5451 24.5007 71.1372Z" fill="url(#paint30_radial_245_919)"/>
<path fill-rule="evenodd" clip-rule="evenodd" d="M24.2336 70.3212L31.997 67.7318C33.2157 67.3238 34.5347 67.9816 34.9437 69.1972C35.3528 70.4128 34.6933 71.7283 33.4745 72.1362L25.7111 74.7256C24.4923 75.1336 23.1734 74.4758 22.7643 73.2603C22.3553 72.0447 23.0148 70.7292 24.2336 70.3212Z" fill="url(#paint31_linear_245_919)"/>
<path fill-rule="evenodd" clip-rule="evenodd" d="M24.459 70.371L31.8384 67.9065C32.9987 67.5235 34.2509 68.1397 34.6349 69.297C35.0189 70.4543 34.4012 71.7032 33.2408 72.0862L25.8614 74.5507C24.7011 74.9337 23.4489 74.3176 23.0649 73.1602C22.6809 72.0029 23.2987 70.754 24.459 70.371Z" fill="url(#paint32_linear_245_919)"/>
<path fill-rule="evenodd" clip-rule="evenodd" d="M27.8732 69.3721L27.6561 69.83L28.7664 73.1354L29.1838 73.3103L29.4259 72.9356L28.2906 69.5719L27.8732 69.3721Z" fill="url(#paint33_linear_245_919)"/>
<g style="mix-blend-mode:multiply" opacity="0.3">
<path fill-rule="evenodd" clip-rule="evenodd" d="M27.8732 69.3721L29.1838 73.3103L29.4258 72.9356L28.2906 69.5719L27.8732 69.3721Z" fill="#AFA4C6"/>
</g>
<path style="mix-blend-mode:screen" fill-rule="evenodd" clip-rule="evenodd" d="M21.9713 73.5184C21.9713 73.5184 22.5974 72.5442 23.6325 72.1029C24.6677 71.6617 33.2492 68.8974 33.2492 68.8974C33.2492 68.8974 33.2158 68.0815 32.7065 67.6152C32.7065 67.6152 24.7511 70.0547 23.5741 70.6625C22.3971 71.2703 21.6875 72.6941 21.6875 72.6941C21.6875 72.6941 21.6207 73.2852 21.963 73.5184H21.9713Z" fill="url(#paint34_linear_245_919)"/>
<path style="mix-blend-mode:screen" opacity="0.5" fill-rule="evenodd" clip-rule="evenodd" d="M27.7145 83.4511L36.8136 80.4205C38.241 79.9459 39.6768 79.463 40.3614 82.4354C40.8956 84.0256 40.1694 85.6991 38.7419 86.1737L29.6429 89.2044C28.2154 89.679 26.6293 88.7797 26.0951 87.1895C25.0599 84.9914 26.2871 83.9257 27.7145 83.4511Z" fill="url(#paint35_linear_245_919)"/>
<g style="mix-blend-mode:multiply" opacity="0.5">
<path fill-rule="evenodd" clip-rule="evenodd" d="M28.7496 84.342L36.513 81.7526C37.7318 81.3446 38.9589 80.9367 39.4598 83.218C39.8688 84.4336 39.2094 85.7491 37.9906 86.1571L30.2272 88.7464C29.0084 89.1544 27.6895 88.4967 27.2804 87.2811C26.4707 85.6075 27.5309 84.75 28.7496 84.342Z" fill="#7E6DA5"/>
</g>
<path fill-rule="evenodd" clip-rule="evenodd" d="M28.6328 83.4511L36.3962 80.8618C37.615 80.4538 38.8421 80.0458 39.343 82.3271C39.752 83.5427 39.0925 84.8582 37.8738 85.2662L30.1104 87.8556C28.8916 88.2635 27.5727 87.6058 27.1636 86.3902C26.3539 84.7167 27.414 83.8591 28.6328 83.4511Z" fill="url(#paint36_radial_245_919)"/>
<path fill-rule="evenodd" clip-rule="evenodd" d="M28.3573 82.6351L36.1207 80.0458C37.3395 79.6378 38.6585 80.2955 39.0675 81.5111C39.4765 82.7267 38.8171 84.0422 37.5983 84.4502L29.8349 87.0396C28.6161 87.4476 27.2972 86.7898 26.8881 85.5742C26.4791 84.3586 27.1386 83.0431 28.3573 82.6351Z" fill="url(#paint37_linear_245_919)"/>
<path fill-rule="evenodd" clip-rule="evenodd" d="M28.5911 82.685L35.9705 80.2205C37.1308 79.8375 38.383 80.4536 38.767 81.6109C39.151 82.7683 38.5332 84.0172 37.3729 84.4002L29.9935 86.8646C28.8332 87.2476 27.581 86.6315 27.197 85.4742C26.813 84.3169 27.4307 83.068 28.5911 82.685Z" fill="url(#paint38_linear_245_919)"/>
<path fill-rule="evenodd" clip-rule="evenodd" d="M31.9969 81.686L31.7882 82.144L32.8985 85.4494L33.3158 85.6242L33.5579 85.2496L32.4226 81.8859L31.9969 81.686Z" fill="url(#paint39_linear_245_919)"/>
<g style="mix-blend-mode:multiply" opacity="0.3">
<path fill-rule="evenodd" clip-rule="evenodd" d="M31.9969 81.686L33.3159 85.6242L33.558 85.2496L32.4227 81.8859L31.9969 81.686Z" fill="#AFA4C6"/>
</g>
<path style="mix-blend-mode:screen" fill-rule="evenodd" clip-rule="evenodd" d="M26.1034 85.8323C26.1034 85.8323 26.7295 84.8582 27.7646 84.4169C28.7997 83.9756 37.3812 81.2114 37.3812 81.2114C37.3812 81.2114 37.3478 80.3955 36.8386 79.9292C36.8386 79.9292 28.8832 82.3687 27.7062 82.9765C26.5292 83.5843 25.8196 85.0081 25.8196 85.0081C25.8196 85.0081 25.7528 85.5992 26.0951 85.8323H26.1034Z" fill="url(#paint40_linear_245_919)"/>
<path style="mix-blend-mode:screen" opacity="0.5" fill-rule="evenodd" clip-rule="evenodd" d="M32.214 96.881L41.3131 93.8504C42.7405 93.3758 44.1764 92.8929 44.8609 95.8653C45.3951 97.4555 44.6689 99.1291 43.2414 99.6036L34.1424 102.634C32.7149 103.109 31.1288 102.21 30.5946 100.619C29.5594 98.4214 30.7866 97.3556 32.214 96.881Z" fill="url(#paint41_linear_245_919)"/>
<g style="mix-blend-mode:multiply" opacity="0.5">
<path fill-rule="evenodd" clip-rule="evenodd" d="M33.2491 97.7719L41.0126 95.1825C42.2313 94.7746 43.4584 94.3666 43.9593 96.6479C44.3684 97.8635 43.7089 99.179 42.4901 99.587L34.7267 102.176C33.5079 102.584 32.189 101.927 31.7799 100.711C30.9702 99.0375 32.0304 98.1799 33.2491 97.7719Z" fill="#7E6DA5"/>
</g>
<path fill-rule="evenodd" clip-rule="evenodd" d="M33.1323 96.8728L40.8957 94.2834C42.1145 93.8754 43.3416 93.4674 43.8425 95.7488C44.2515 96.9643 43.5921 98.2798 42.3733 98.6878L34.6099 101.277C33.3911 101.685 32.0722 101.027 31.6631 99.8118C30.8534 98.1383 31.9136 97.2807 33.1323 96.8728Z" fill="url(#paint42_radial_245_919)"/>
<path fill-rule="evenodd" clip-rule="evenodd" d="M32.8568 96.0568L40.6203 93.4674C41.839 93.0594 43.158 93.7172 43.567 94.9328C43.976 96.1484 43.3166 97.4639 42.0978 97.8718L34.3344 100.461C33.1156 100.869 31.7967 100.211 31.3876 98.9958C30.9786 97.7803 31.6381 96.4648 32.8568 96.0568Z" fill="url(#paint43_linear_245_919)"/>
<path fill-rule="evenodd" clip-rule="evenodd" d="M33.0906 96.1066L40.47 93.6421C41.6303 93.2591 42.8825 93.8753 43.2665 95.0326C43.6505 96.1899 43.0328 97.4388 41.8724 97.8218L34.493 100.286C33.3327 100.669 32.0805 100.053 31.6965 98.8958C31.3125 97.7385 31.9302 96.4896 33.0906 96.1066Z" fill="url(#paint44_linear_245_919)"/>
<path fill-rule="evenodd" clip-rule="evenodd" d="M36.4964 95.1077L36.2877 95.5656L37.398 98.871L37.8154 99.0459L38.0574 98.6795L36.9221 95.3075L36.4964 95.1077Z" fill="url(#paint45_linear_245_919)"/>
<g style="mix-blend-mode:multiply" opacity="0.3">
<path fill-rule="evenodd" clip-rule="evenodd" d="M36.4965 95.1077L37.8154 99.0459L38.0575 98.6795L36.9222 95.3075L36.4965 95.1077Z" fill="#AFA4C6"/>
</g>
<path style="mix-blend-mode:screen" opacity="0.5" fill-rule="evenodd" clip-rule="evenodd" d="M40.2028 51.7209L49.3019 48.6902C50.7293 48.2157 52.1651 47.7328 52.8496 50.7051C53.3839 52.2954 52.6576 53.9689 51.2302 54.4435L42.1311 57.4741C40.7037 57.9487 39.1176 57.0495 38.5833 55.4593C37.5482 53.2612 38.7753 52.1955 40.2028 51.7209Z" fill="url(#paint46_linear_245_919)"/>
<g style="mix-blend-mode:multiply" opacity="0.5">
<path fill-rule="evenodd" clip-rule="evenodd" d="M41.2462 52.6118L49.0096 50.0224C50.2284 49.6144 51.4555 49.2064 51.9564 51.4878C52.3654 52.7034 51.7059 54.0189 50.4872 54.4268L42.7238 57.0162C41.505 57.4242 40.1861 56.7664 39.777 55.5508C38.9673 53.8773 40.0274 53.0197 41.2462 52.6118Z" fill="#7E6DA5"/>
</g>
<path fill-rule="evenodd" clip-rule="evenodd" d="M41.1211 51.7209L48.8845 49.1315C50.1033 48.7236 51.3304 48.3156 51.8313 50.5969C52.2403 51.8125 51.5808 53.128 50.3621 53.536L42.5986 56.1253C41.3799 56.5333 40.0609 55.8756 39.6519 54.66C38.8422 52.9865 39.9023 52.1289 41.1211 51.7209Z" fill="url(#paint47_radial_245_919)"/>
<path fill-rule="evenodd" clip-rule="evenodd" d="M40.8539 50.9049L48.6173 48.3155C49.8361 47.9076 51.155 48.5653 51.5641 49.7809C51.9731 50.9965 51.3136 52.312 50.0949 52.72L42.3315 55.3094C41.1127 55.7173 39.7937 55.0596 39.3847 53.844C38.9757 52.6284 39.6351 51.3129 40.8539 50.9049Z" fill="url(#paint48_linear_245_919)"/>
<path fill-rule="evenodd" clip-rule="evenodd" d="M41.0793 50.9548L48.4588 48.4903C49.6191 48.1073 50.8713 48.7234 51.2553 49.8807C51.6393 51.038 51.0215 52.2869 49.8612 52.6699L42.4818 55.1344C41.3214 55.5174 40.0693 54.9013 39.6853 53.744C39.3013 52.5867 39.919 51.3378 41.0793 50.9548Z" fill="url(#paint49_linear_245_919)"/>
<path fill-rule="evenodd" clip-rule="evenodd" d="M44.4936 49.9558L44.2849 50.4137L45.3868 53.7191L45.8126 53.894L46.0463 53.5193L44.9193 50.1556L44.4936 49.9558Z" fill="url(#paint50_linear_245_919)"/>
<g style="mix-blend-mode:multiply" opacity="0.3">
<path fill-rule="evenodd" clip-rule="evenodd" d="M44.4935 49.9558L45.8125 53.894L46.0462 53.5193L44.9193 50.1556L44.4935 49.9558Z" fill="#AFA4C6"/>
</g>
<path style="mix-blend-mode:screen" opacity="0.5" fill-rule="evenodd" clip-rule="evenodd" d="M44.3851 64.2016L53.4841 61.171C54.9116 60.6964 56.3474 60.2135 57.0319 63.1858C57.5662 64.7761 56.8399 66.4496 55.4124 66.9242L46.3134 69.9549C44.8859 70.4294 43.2998 69.5302 42.7656 67.94C41.7305 65.7419 42.9576 64.6762 44.3851 64.2016Z" fill="url(#paint51_linear_245_919)"/>
<g style="mix-blend-mode:multiply" opacity="0.5">
<path fill-rule="evenodd" clip-rule="evenodd" d="M45.4286 65.0925L53.192 62.5031C54.4108 62.0951 55.6379 61.6872 56.1388 63.9685C56.5478 65.1841 55.8883 66.4996 54.6696 66.9076L46.9061 69.4969C45.6874 69.9049 44.3684 69.2471 43.9594 68.0316C43.1497 66.358 44.2098 65.5005 45.4286 65.0925Z" fill="#7E6DA5"/>
</g>
<path fill-rule="evenodd" clip-rule="evenodd" d="M45.3116 64.1933L53.0751 61.6039C54.2938 61.196 55.5209 60.788 56.0218 63.0693C56.4309 64.2849 55.7714 65.6004 54.5526 66.0084L46.7892 68.5978C45.5704 69.0057 44.2515 68.348 43.8424 67.1324C43.0327 65.4589 44.0929 64.6013 45.3116 64.1933Z" fill="url(#paint52_radial_245_919)"/>
<path fill-rule="evenodd" clip-rule="evenodd" d="M45.0362 63.3856L52.7996 60.7963C54.0183 60.3883 55.3373 61.046 55.7463 62.2616C56.1554 63.4772 55.4959 64.7927 54.2771 65.2007L46.5137 67.7901C45.2949 68.1981 43.976 67.5403 43.567 66.3247C43.1579 65.1091 43.8174 63.7936 45.0362 63.3856Z" fill="url(#paint53_linear_245_919)"/>
<path fill-rule="evenodd" clip-rule="evenodd" d="M45.2699 63.4272L52.6493 60.9627C53.8096 60.5797 55.0618 61.1958 55.4458 62.3531C55.8298 63.5104 55.2121 64.7593 54.0517 65.1423L46.6723 67.6068C45.512 67.9898 44.2598 67.3737 43.8758 66.2164C43.4918 65.0591 44.1096 63.8102 45.2699 63.4272Z" fill="url(#paint54_linear_245_919)"/>
<path fill-rule="evenodd" clip-rule="evenodd" d="M48.6759 62.4282L48.4672 62.8945L49.5691 66.1916L49.9948 66.3664L50.2285 66.0001L49.1016 62.628L48.6759 62.4282Z" fill="url(#paint55_linear_245_919)"/>
<g style="mix-blend-mode:multiply" opacity="0.3">
<path fill-rule="evenodd" clip-rule="evenodd" d="M48.6758 62.4282L49.9947 66.3664L50.2285 66.0001L49.1015 62.628L48.6758 62.4282Z" fill="#AFA4C6"/>
</g>
<path style="mix-blend-mode:screen" fill-rule="evenodd" clip-rule="evenodd" d="M42.7739 66.5828C42.7739 66.5828 43.4 65.6087 44.4352 65.1674C45.4703 64.7261 54.0518 61.9619 54.0518 61.9619C54.0518 61.9619 54.0184 61.1459 53.5092 60.6797C53.5092 60.6797 45.5537 63.1192 44.3767 63.727C43.1997 64.3348 42.4901 65.7585 42.4901 65.7585C42.4901 65.7585 42.4233 66.3497 42.7656 66.5828H42.7739Z" fill="url(#paint56_linear_245_919)"/>
<path style="mix-blend-mode:screen" opacity="0.5" fill-rule="evenodd" clip-rule="evenodd" d="M48.5171 76.5156L57.6162 73.4849C59.0436 73.0103 60.4795 72.5274 61.164 75.4998C61.6982 77.0901 60.972 78.7636 59.5445 79.2382L50.4455 82.2688C49.018 82.7434 47.4319 81.8442 46.8977 80.2539C45.8626 78.0559 47.0897 76.9902 48.5171 76.5156Z" fill="url(#paint57_linear_245_919)"/>
<g style="mix-blend-mode:multiply" opacity="0.5">
<path fill-rule="evenodd" clip-rule="evenodd" d="M49.5605 77.4064L57.324 74.8171C58.5427 74.4091 59.7698 74.0011 60.2707 76.2824C60.6798 77.498 60.0203 78.8135 58.8015 79.2215L51.0381 81.8109C49.8193 82.2189 48.5004 81.5611 48.0913 80.3455C47.2816 78.672 48.3418 77.8144 49.5605 77.4064Z" fill="#7E6DA5"/>
</g>
<path fill-rule="evenodd" clip-rule="evenodd" d="M49.4354 76.5073L57.1988 73.9179C58.4176 73.5099 59.6447 73.102 60.1456 75.3833C60.5546 76.5989 59.8952 77.9144 58.6764 78.3223L50.913 80.9117C49.6942 81.3197 48.3753 80.6619 47.9662 79.4463C47.1565 77.7728 48.2167 76.9153 49.4354 76.5073Z" fill="url(#paint58_radial_245_919)"/>
<path fill-rule="evenodd" clip-rule="evenodd" d="M49.1682 75.6996L56.9317 73.1102C58.1504 72.7022 59.4694 73.36 59.8784 74.5756C60.2875 75.7912 59.628 77.1067 58.4092 77.5147L50.6458 80.1041C49.427 80.512 48.1081 79.8543 47.699 78.6387C47.29 77.4231 47.9495 76.1076 49.1682 75.6996Z" fill="url(#paint59_linear_245_919)"/>
<path fill-rule="evenodd" clip-rule="evenodd" d="M49.3937 75.7411L56.7731 73.2767C57.9334 72.8937 59.1856 73.5098 59.5696 74.6671C59.9536 75.8244 59.3359 77.0733 58.1755 77.4563L50.7961 79.9208C49.6358 80.3038 48.3836 79.6877 47.9996 78.5303C47.6156 77.373 48.2333 76.1241 49.3937 75.7411Z" fill="url(#paint60_linear_245_919)"/>
<path fill-rule="evenodd" clip-rule="evenodd" d="M52.8079 74.7422L52.5908 75.2084L53.7011 78.5055L54.1185 78.6804L54.3605 78.314L53.2252 74.942L52.8079 74.7422Z" fill="url(#paint61_linear_245_919)"/>
<g style="mix-blend-mode:multiply" opacity="0.3">
<path fill-rule="evenodd" clip-rule="evenodd" d="M52.8079 74.7422L54.1185 78.6804L54.3605 78.314L53.2252 74.942L52.8079 74.7422Z" fill="#AFA4C6"/>
</g>
<path style="mix-blend-mode:screen" opacity="0.5" fill-rule="evenodd" clip-rule="evenodd" d="M53.0166 89.9372L62.1157 86.9065C63.5432 86.432 64.979 85.9491 65.6635 88.9214C66.1978 90.5117 65.4715 92.1852 64.044 92.6598L54.945 95.6904C53.5175 96.165 51.9314 95.2658 51.3972 93.6756C50.3621 91.4775 51.5892 90.4118 53.0166 89.9372Z" fill="url(#paint62_linear_245_919)"/>
<g style="mix-blend-mode:multiply" opacity="0.5">
<path fill-rule="evenodd" clip-rule="evenodd" d="M54.0601 90.8281L61.8235 88.2387C63.0422 87.8307 64.2694 87.4228 64.7702 89.7041C65.1793 90.9197 64.5198 92.2352 63.301 92.6431L55.5376 95.2325C54.3188 95.6405 52.9999 94.9827 52.5909 93.7671C51.7811 92.0936 52.8413 91.236 54.0601 90.8281Z" fill="#7E6DA5"/>
</g>
<path fill-rule="evenodd" clip-rule="evenodd" d="M53.9432 89.9289L61.7066 87.3395C62.9254 86.9316 64.1525 86.5236 64.6534 88.8049C65.0624 90.0205 64.403 91.336 63.1842 91.744L55.4208 94.3334C54.202 94.7413 52.8831 94.0836 52.474 92.868C51.6643 91.1945 52.7245 90.3369 53.9432 89.9289Z" fill="url(#paint63_radial_245_919)"/>
<path fill-rule="evenodd" clip-rule="evenodd" d="M53.6678 89.1212L61.4312 86.5319C62.6499 86.1239 63.9689 86.7816 64.3779 87.9972C64.787 89.2128 64.1275 90.5283 62.9087 90.9363L55.1453 93.5257C53.9265 93.9336 52.6076 93.2759 52.1985 92.0603C51.7895 90.8447 52.449 89.5292 53.6678 89.1212Z" fill="url(#paint64_linear_245_919)"/>
<path fill-rule="evenodd" clip-rule="evenodd" d="M53.8932 89.1628L61.2726 86.6983C62.4329 86.3153 63.6851 86.9314 64.0691 88.0887C64.4531 89.246 63.8354 90.4949 62.675 90.8779L55.2956 93.3424C54.1353 93.7254 52.8831 93.1093 52.4991 91.952C52.1151 90.7947 52.7329 89.5458 53.8932 89.1628Z" fill="url(#paint65_linear_245_919)"/>
<path fill-rule="evenodd" clip-rule="evenodd" d="M57.3074 88.1721L57.0988 88.63L58.2007 91.9271L58.6264 92.1103L58.8601 91.7356L57.7332 88.3636L57.3074 88.1721Z" fill="url(#paint66_linear_245_919)"/>
<g style="mix-blend-mode:multiply" opacity="0.3">
<path fill-rule="evenodd" clip-rule="evenodd" d="M57.3074 88.1721L58.6263 92.1103L58.8601 91.7356L57.7331 88.3636L57.3074 88.1721Z" fill="#AFA4C6"/>
</g>
<path style="mix-blend-mode:screen" fill-rule="evenodd" clip-rule="evenodd" d="M30.6029 99.2623C30.6029 99.2623 31.229 98.2881 32.2641 97.8468C33.2993 97.4056 41.8807 94.6413 41.8807 94.6413C41.8807 94.6413 41.8474 93.8254 41.3381 93.3591C41.3381 93.3591 33.3827 95.7986 32.2057 96.4064C31.0287 97.0142 30.3191 98.438 30.3191 98.438C30.3191 98.438 30.2523 99.0291 30.5946 99.2623H30.6029Z" fill="url(#paint67_linear_245_919)"/>
<path fill-rule="evenodd" clip-rule="evenodd" d="M101.926 84.8583L92.1925 81.6278L114.206 66.9907L123.839 189.691L116.668 195.277L101.926 84.8583Z" fill="url(#paint68_linear_245_919)"/>
<g style="mix-blend-mode:multiply">
<path fill-rule="evenodd" clip-rule="evenodd" d="M123.839 189.691L114.907 183.546L101.926 84.8583L92.1925 81.6278L114.206 66.9907L123.839 189.691Z" fill="#D1B6CE"/>
</g>
<path fill-rule="evenodd" clip-rule="evenodd" d="M38.1659 122.517L15.2931 90.7364C15.2931 90.7364 20.3101 88.4135 23.9247 85.1331L45.1613 117.513C45.1613 117.513 42.3398 120.693 38.1659 122.525V122.517Z" fill="url(#paint69_linear_245_919)"/>
<path fill-rule="evenodd" clip-rule="evenodd" d="M38.1659 122.517C38.1659 122.517 39.969 122.767 41.7471 122.534L43.0911 124.407L45.0778 122.983L43.7923 121.193C43.7923 121.193 45.2865 119.286 45.1613 117.505C45.1613 117.505 41.4549 120.893 38.1659 122.517Z" fill="url(#paint70_linear_245_919)"/>
<path fill-rule="evenodd" clip-rule="evenodd" d="M31.9051 112.359L37.9655 108.021L23.2318 85.2415L16.2113 90.5451L31.9051 112.359Z" fill="url(#paint71_linear_245_919)"/>
<path fill-rule="evenodd" clip-rule="evenodd" d="M31.9052 112.359L32.5312 113.225C32.5312 113.225 34.927 113.874 36.6884 112.609C38.4581 111.343 38.742 109.095 38.742 109.095L37.9656 108.013C37.9656 108.013 35.2276 109.97 31.9052 112.351V112.359Z" fill="url(#paint72_radial_245_919)"/>
<path fill-rule="evenodd" clip-rule="evenodd" d="M12.6969 92.052L13.4732 92.7847C13.4732 92.7847 16.4534 92.5849 20.7441 89.5126C25.5691 86.0573 26.7545 83.9675 26.7545 83.9675L26.2787 82.8518L12.6969 92.0437V92.052Z" fill="url(#paint73_linear_245_919)"/>
<path fill-rule="evenodd" clip-rule="evenodd" d="M12.6969 92.052C12.6969 92.052 18.2148 85.6493 26.2787 82.8601C26.2787 82.8601 25.3688 85.4079 19.8092 88.9464C14.5501 92.2934 12.6969 92.052 12.6969 92.052Z" fill="url(#paint74_linear_245_919)"/>
<path fill-rule="evenodd" clip-rule="evenodd" d="M15.1678 90.3868C15.1678 90.3868 16.1278 88.9881 18.8576 87.0398C21.8377 84.9083 23.8161 84.542 23.8161 84.542C23.8161 84.542 22.7977 86.049 19.8509 88.0889C17.2047 89.9206 15.1762 90.3868 15.1762 90.3868H15.1678Z" fill="url(#paint75_linear_245_919)"/>
<path fill-rule="evenodd" clip-rule="evenodd" d="M15.9276 90.1536L6.0939 75.8079L5.24243 71.1204L8.98222 68.4478L12.9307 70.9122L23.0565 85.3661C23.0565 85.3661 19.8259 88.6049 15.9359 90.1453L15.9276 90.1536Z" fill="url(#paint76_linear_245_919)"/>
<path style="mix-blend-mode:multiply" fill-rule="evenodd" clip-rule="evenodd" d="M16.3282 92.0021L16.9209 92.8763C16.9209 92.8763 23.6158 88.7882 28.8499 92.6432L24.701 86.3154C24.701 86.3154 20.5105 90.2619 16.3282 92.0021Z" fill="url(#paint77_linear_245_919)"/>
<g style="mix-blend-mode:soft-light" opacity="0.6">
<path fill-rule="evenodd" clip-rule="evenodd" d="M38.3496 122.101L18.8492 95.0078C18.8492 95.0078 20.5522 93.8172 21.6708 94.017L40.9708 120.835C40.9708 120.835 39.0258 121.859 38.3496 122.109V122.101Z" fill="#FBF9FA"/>
</g>
<path fill-rule="evenodd" clip-rule="evenodd" d="M18.3651 88.9463L8.665 74.992L7.15405 71.7282L7.67996 71.3535L9.2076 74.609L19.0329 88.5134L18.3651 88.9463Z" fill="url(#paint78_linear_245_919)"/>
<path style="mix-blend-mode:multiply" fill-rule="evenodd" clip-rule="evenodd" d="M8.63992 70.6626L20.4603 87.6476L19.0329 88.5135L9.20757 74.6091L7.67993 71.3536L8.63992 70.6626Z" fill="url(#paint79_linear_245_919)"/>
<path style="mix-blend-mode:multiply" fill-rule="evenodd" clip-rule="evenodd" d="M5.96033 75.1003L9.0323 75.5166L8.665 74.9921L7.9137 73.3602L8.43961 72.9855L11.9457 75.4084L14.9592 73.8181L12.9224 70.9124L10.4514 69.3721L5.52625 72.7025L5.96033 75.1003Z" fill="url(#paint80_linear_245_919)"/>
<path fill-rule="evenodd" clip-rule="evenodd" d="M0 73.6516L0.776341 74.3843C0.776341 74.3843 3.75649 74.1845 8.04723 71.1122C12.8722 67.6569 14.0576 65.5671 14.0576 65.5671L13.5818 64.4514L0 73.6516Z" fill="url(#paint81_linear_245_919)"/>
<path fill-rule="evenodd" clip-rule="evenodd" d="M0 73.6518C0 73.6518 5.51786 67.2492 13.5818 64.46C13.5818 64.46 12.6719 67.0077 7.11228 70.5463C1.8532 73.8933 0 73.6518 0 73.6518Z" fill="url(#paint82_linear_245_919)"/>
<path fill-rule="evenodd" clip-rule="evenodd" d="M33.8501 204.653L6.70325 91.744C6.70325 91.744 33.4661 102.701 45.0862 100.977C68.3263 97.5305 101.934 84.8584 101.934 84.8584L116.676 195.278L33.8501 204.661V204.653Z" fill="url(#paint83_linear_245_919)"/>
<g style="mix-blend-mode:soft-light" opacity="0.6">
<path fill-rule="evenodd" clip-rule="evenodd" d="M7.65491 92.127C7.65491 92.127 29.6512 120.086 49.4688 130.71C49.4688 130.71 43.7005 124.565 41.4216 118.92C39.9357 115.24 38.3913 101.219 38.3913 101.219C38.3913 101.219 25.2687 99.0292 7.65491 92.127Z" fill="#FBF9CE"/>
</g>
<path style="mix-blend-mode:multiply" opacity="0.8" fill-rule="evenodd" clip-rule="evenodd" d="M38.3914 101.219C38.3914 101.219 38.5583 112.551 39.5266 115.165C41.1628 119.586 48.4337 129.544 48.4337 129.544C48.4337 129.544 60.5713 114.699 71.6738 107.055C88.553 95.4324 101.934 84.8584 101.934 84.8584C101.934 84.8584 71.8992 95.2492 59.1105 98.1716C46.3301 101.102 38.3997 101.211 38.3997 101.211L38.3914 101.219Z" fill="url(#paint84_linear_245_919)"/>
<path fill-rule="evenodd" clip-rule="evenodd" d="M92.1925 81.6279L93.4029 88.1888L101.926 84.8584L92.1925 81.6279Z" fill="url(#paint85_linear_245_919)"/>
<path fill-rule="evenodd" clip-rule="evenodd" d="M62.9838 5.13721C62.9838 5.13721 60.6965 5.44527 58.4676 6.56928C58.4676 6.56928 54.2437 9.15033 55.8047 15.195C57.3156 21.0815 62.4996 21.7059 62.4996 21.7059C62.4996 21.7059 64.837 21.581 66.9573 20.5652L62.9921 5.13721H62.9838Z" fill="url(#paint86_linear_245_919)"/>
<path fill-rule="evenodd" clip-rule="evenodd" d="M63.6516 4.6543C63.6516 4.6543 61.2725 4.97901 58.9601 6.14465C58.9601 6.14465 54.5776 8.81729 56.197 15.0951C57.7664 21.198 63.1424 21.8474 63.1424 21.8474C63.1424 21.8474 65.5632 21.7142 67.767 20.6652L63.6516 4.6543Z" fill="url(#paint87_radial_245_919)"/>
<path fill-rule="evenodd" clip-rule="evenodd" d="M71.4485 11.19C72.5838 15.6111 70.9393 19.8491 67.7671 20.665C64.595 21.4726 61.1056 18.5502 59.9703 14.1291C58.835 9.70802 60.4795 5.47009 63.6517 4.65415C66.8238 3.84653 70.3132 6.76894 71.4485 11.19Z" fill="url(#paint88_linear_245_919)"/>
<path fill-rule="evenodd" clip-rule="evenodd" d="M71.2397 11.2401C72.2999 15.3615 70.7639 19.3163 67.8088 20.074C64.8537 20.8317 61.598 18.1008 60.5379 13.9794C59.4777 9.85803 61.0137 5.90319 63.9688 5.14553C66.9239 4.38786 70.1795 7.11879 71.2397 11.2401Z" fill="url(#paint89_linear_245_919)"/>
<path fill-rule="evenodd" clip-rule="evenodd" d="M62.9337 4.90402L67.4665 20.7234C68.0676 20.5818 68.5517 20.4153 69.1277 20.0906L64.8704 4.5127C64.8704 4.5127 63.5848 4.63758 63.4095 4.67921C63.1341 4.75415 63.084 4.82908 62.9337 4.89569V4.90402Z" fill="url(#paint90_radial_245_919)"/>
<g style="mix-blend-mode:multiply" opacity="0.3">
<path fill-rule="evenodd" clip-rule="evenodd" d="M64.8704 4.521L63.4095 4.68752L68.2345 20.5069L69.1278 20.0989L64.8704 4.521Z" fill="#AFA4C6"/>
</g>
<g style="mix-blend-mode:multiply" opacity="0.3">
<path fill-rule="evenodd" clip-rule="evenodd" d="M58.9185 20.1072L59.7783 20.4402L63.3261 19.5327C63.3261 19.5327 65.2377 21.2479 67.7671 20.6567C67.7671 20.6567 66.014 21.5726 63.1424 21.839C63.1424 21.839 60.8551 21.6891 58.9185 20.1072Z" fill="#AFA4C6"/>
</g>
<g style="mix-blend-mode:soft-light" opacity="0.5">
<path fill-rule="evenodd" clip-rule="evenodd" d="M55.8381 10.141L59.987 8.64236C59.987 8.64236 60.4211 6.76902 61.9904 5.48682L58.1672 6.78567C58.1672 6.78567 56.339 8.47584 55.8381 10.1494V10.141Z" fill="#FBF9FA"/>
</g>
<path fill-rule="evenodd" clip-rule="evenodd" d="M52.9247 24.4119C52.9247 24.4119 51.5891 24.4368 50.2367 24.9364C50.2367 24.9364 47.6489 26.1353 48.1331 29.7072C48.6089 33.1791 51.539 33.8785 51.539 33.8785C51.539 33.8785 52.883 33.9618 54.1685 33.5205L52.9164 24.4119H52.9247Z" fill="url(#paint91_linear_245_919)"/>
<path fill-rule="evenodd" clip-rule="evenodd" d="M53.3421 24.187C53.3421 24.187 51.9564 24.212 50.554 24.7282C50.554 24.7282 47.866 25.9688 48.3752 29.6739C48.8677 33.279 51.9063 34.0034 51.9063 34.0034C51.9063 34.0034 53.3004 34.0866 54.636 33.6287L53.3421 24.1787V24.187Z" fill="url(#paint92_radial_245_919)"/>
<path fill-rule="evenodd" clip-rule="evenodd" d="M57.3741 28.4416C57.733 31.0476 56.5059 33.3706 54.636 33.6287C52.7661 33.8868 50.9546 31.9801 50.5957 29.3658C50.2367 26.7597 51.4639 24.4368 53.3338 24.1787C55.2037 23.9206 57.0151 25.8272 57.3741 28.4416Z" fill="url(#paint93_linear_245_919)"/>
<path fill-rule="evenodd" clip-rule="evenodd" d="M57.2572 28.4582C57.5911 30.8894 56.4474 33.0542 54.7028 33.2956C52.9581 33.5371 51.2718 31.7553 50.9379 29.3242C50.604 26.893 51.7477 24.7282 53.4923 24.4868C55.237 24.2453 56.9233 26.0271 57.2572 28.4582Z" fill="url(#paint94_linear_245_919)"/>
<path fill-rule="evenodd" clip-rule="evenodd" d="M52.9164 24.2787L54.4607 33.6454C54.8113 33.6038 55.1035 33.5372 55.4541 33.3956L54.0517 24.1871C54.0517 24.1871 53.3087 24.1704 53.2002 24.1871C53.0416 24.2121 52.9999 24.2537 52.9164 24.2787Z" fill="url(#paint95_radial_245_919)"/>
<g style="mix-blend-mode:multiply" opacity="0.3">
<path fill-rule="evenodd" clip-rule="evenodd" d="M54.0517 24.187H53.2002L54.9115 33.5704L55.4541 33.3955L54.0517 24.187Z" fill="#AFA4C6"/>
</g>
<g style="mix-blend-mode:multiply" opacity="0.3">
<path fill-rule="evenodd" clip-rule="evenodd" d="M49.6023 32.7293L50.0698 32.9791L52.1651 32.696C52.1651 32.696 53.1501 33.8034 54.636 33.6369C54.636 33.6369 53.5675 34.0449 51.9063 34.0115C51.9063 34.0115 50.604 33.7784 49.6023 32.7377V32.7293Z" fill="#AFA4C6"/>
</g>
<g style="mix-blend-mode:soft-light" opacity="0.5">
<path fill-rule="evenodd" clip-rule="evenodd" d="M48.5004 26.8096L50.9797 26.2268C50.9797 26.2268 51.347 25.186 52.3403 24.5449L50.0614 25.0362C50.0614 25.0362 48.9011 25.8854 48.5004 26.8096Z" fill="#FBF9FA"/>
</g>
<path fill-rule="evenodd" clip-rule="evenodd" d="M84.6128 2.73085C84.9383 4.53759 83.7362 6.26939 81.9248 6.60243C80.1133 6.93547 78.377 5.7282 78.0431 3.92147C77.7175 2.11473 78.9196 0.382926 80.7311 0.0498871C82.5425 -0.283152 84.2788 0.924115 84.6128 2.73085Z" fill="url(#paint96_radial_245_919)"/>
<path fill-rule="evenodd" clip-rule="evenodd" d="M83.778 1.84841C83.778 1.84841 83.6861 1.29889 83.2187 0.974181C82.7178 0.62449 82.3672 0.857617 82.3672 0.857617C82.3672 0.857617 82.5008 2.05656 83.7863 1.84008L83.778 1.84841Z" fill="white"/>
<path fill-rule="evenodd" clip-rule="evenodd" d="M17.789 24.1286L18.0311 23.9953C19.9261 22.9379 22.3135 23.4875 23.5573 25.2609L28.3907 32.1631L31.9635 37.2586C33.2073 39.0321 32.8985 41.4466 31.2623 42.862C29.3924 44.4773 26.5375 44.1442 25.085 42.146L16.4367 30.2815C14.9508 28.2416 15.5852 25.3608 17.789 24.1286Z" fill="url(#paint97_linear_245_919)"/>
<path fill-rule="evenodd" clip-rule="evenodd" d="M28.3907 32.1548L31.9636 37.2503C33.2074 39.0237 32.8985 41.4383 31.2624 42.8537C29.3925 44.4689 26.5375 44.1359 25.085 42.1376L21.7543 37.5667C27.222 35.7766 28.3991 32.1548 28.3991 32.1548H28.3907Z" fill="url(#paint98_linear_245_919)"/>
<path style="mix-blend-mode:screen" opacity="0.5" fill-rule="evenodd" clip-rule="evenodd" d="M25.3771 42.5124C25.3771 42.5124 27.4724 41.2218 24.342 36.4344C21.2116 31.647 16.0861 29.7153 16.0861 29.7153C16.0861 29.7153 20.886 36.3928 25.3771 42.5124Z" fill="url(#paint99_linear_245_919)"/>
<path style="mix-blend-mode:screen" opacity="0.5" fill-rule="evenodd" clip-rule="evenodd" d="M31.5044 37.0005C31.5044 37.0005 29.693 36.3927 27.222 33.004C24.7511 29.6153 24.4673 26.7595 24.4673 26.7595L31.5044 37.0005Z" fill="url(#paint100_linear_245_919)"/>
<path fill-rule="evenodd" clip-rule="evenodd" d="M22.564 25.0944C22.564 25.0944 22.2301 24.4117 21.4955 24.1619C20.7024 23.8872 20.3268 24.3368 20.3268 24.3368C20.3268 24.3368 20.9612 25.8604 22.564 25.1028V25.0944Z" fill="white"/>
<path fill-rule="evenodd" clip-rule="evenodd" d="M13.849 34.4445C14.1745 36.2512 12.9724 37.983 11.161 38.3161C9.34952 38.6491 7.61319 37.4418 7.27928 35.6351C6.94537 33.8284 8.15579 32.0965 9.96725 31.7635C11.7787 31.4305 13.515 32.6377 13.849 34.4445Z" fill="url(#paint101_radial_245_919)"/>
<path fill-rule="evenodd" clip-rule="evenodd" d="M13.0058 33.562C13.0058 33.562 12.914 33.0125 12.4381 32.6878C11.9373 32.3381 11.5867 32.5712 11.5867 32.5712C11.5867 32.5712 11.7202 33.7702 13.0058 33.5537V33.562Z" fill="white"/>
<path fill-rule="evenodd" clip-rule="evenodd" d="M13.4983 24.6866C13.7237 25.9021 12.914 27.0678 11.6952 27.2926C10.4764 27.5174 9.30773 26.7098 9.08234 25.4942C8.85695 24.2786 9.66668 23.1129 10.8854 22.8881C12.1042 22.6633 13.2729 23.471 13.4983 24.6866Z" fill="url(#paint102_radial_245_919)"/>
<path fill-rule="evenodd" clip-rule="evenodd" d="M12.9389 24.0871C12.9389 24.0871 12.8722 23.7208 12.5633 23.5043C12.221 23.2712 11.9873 23.4294 11.9873 23.4294C11.9873 23.4294 12.0791 24.237 12.9389 24.0955V24.0871Z" fill="white"/>
<path fill-rule="evenodd" clip-rule="evenodd" d="M90.5314 8.40922C90.8236 10.0245 89.7551 11.5648 88.1356 11.8645C86.5161 12.1559 84.9718 11.0902 84.6713 9.47494C84.3791 7.8597 85.4476 6.31939 87.0671 6.01966C88.6865 5.72825 90.2309 6.79398 90.5314 8.40922Z" fill="url(#paint103_radial_245_919)"/>
<path fill-rule="evenodd" clip-rule="evenodd" d="M89.7885 7.61827C89.7885 7.61827 89.705 7.12704 89.2876 6.84396C88.8368 6.53589 88.528 6.74404 88.528 6.74404C88.528 6.74404 88.6532 7.80977 89.7885 7.6266V7.61827Z" fill="white"/>
</g>
<defs>
<linearGradient id="paint0_linear_245_919" x1="62.6254" y1="101.051" x2="59.7706" y2="72.4255" gradientUnits="userSpaceOnUse">
<stop stop-color="#93221B"/>
<stop offset="1" stop-color="#A63333"/>
</linearGradient>
<linearGradient id="paint1_linear_245_919" x1="100.288" y1="81.5517" x2="106.862" y2="22.6092" gradientUnits="userSpaceOnUse">
<stop stop-color="#FF6E27"/>
<stop offset="1" stop-color="#FF5747"/>
</linearGradient>
<linearGradient id="paint2_linear_245_919" x1="100.446" y1="80.1449" x2="106.599" y2="24.9759" gradientUnits="userSpaceOnUse">
<stop stop-color="#FF9427"/>
<stop offset="1" stop-color="#E03347"/>
</linearGradient>
<linearGradient id="paint3_linear_245_919" x1="104.866" y1="64.9964" x2="108.881" y2="65.4466" gradientUnits="userSpaceOnUse">
<stop offset="0.6"/>
<stop offset="1" stop-color="#FFDBCE"/>
</linearGradient>
<linearGradient id="paint4_linear_245_919" x1="97.0473" y1="77.4955" x2="100.234" y2="48.9221" gradientUnits="userSpaceOnUse">
<stop/>
<stop offset="1" stop-color="#92ACC4"/>
</linearGradient>
<radialGradient id="paint5_radial_245_919" cx="0" cy="0" r="1" gradientUnits="userSpaceOnUse" gradientTransform="translate(74.5237 85.7306) rotate(3.27146) scale(31.2537 31.1727)">
<stop stop-color="#5178FE"/>
<stop offset="0.99" stop-color="#713592"/>
</radialGradient>
<linearGradient id="paint6_linear_245_919" x1="61.6877" y1="36.7102" x2="90.73" y2="31.908" gradientUnits="userSpaceOnUse">
<stop stop-color="#EDE5F3"/>
<stop offset="0.98" stop-color="#C7B5E3"/>
</linearGradient>
<linearGradient id="paint7_linear_245_919" x1="75.7968" y1="33.3053" x2="76.5467" y2="29.2112" gradientUnits="userSpaceOnUse">
<stop stop-color="#FFF3FF"/>
<stop offset="0.98" stop-color="#E7E2EE"/>
</linearGradient>
<linearGradient id="paint8_linear_245_919" x1="63.5626" y1="32.7478" x2="88.503" y2="28.6235" gradientUnits="userSpaceOnUse">
<stop stop-color="#EDE5F3"/>
<stop offset="0.98" stop-color="#C7B5E3"/>
</linearGradient>
<linearGradient id="paint9_linear_245_919" x1="75.7397" y1="32.1177" x2="76.369" y2="28.6757" gradientUnits="userSpaceOnUse">
<stop stop-color="#FFF3FF"/>
<stop offset="0.98" stop-color="#E7E2EE"/>
</linearGradient>
<linearGradient id="paint10_linear_245_919" x1="80.493" y1="70.6101" x2="90.9104" y2="71.2087" gradientUnits="userSpaceOnUse">
<stop offset="0.6"/>
<stop offset="1" stop-color="#FFDBCE"/>
</linearGradient>
<linearGradient id="paint11_linear_245_919" x1="61.1281" y1="91.5615" x2="64.0626" y2="40.2236" gradientUnits="userSpaceOnUse">
<stop/>
<stop offset="1" stop-color="#92ACC4"/>
</linearGradient>
<linearGradient id="paint12_linear_245_919" x1="91.2561" y1="99.073" x2="93.564" y2="58.2187" gradientUnits="userSpaceOnUse">
<stop stop-color="#FF5C1B"/>
<stop offset="1" stop-color="#E03347"/>
</linearGradient>
<linearGradient id="paint13_linear_245_919" x1="86.8954" y1="59.6735" x2="102.065" y2="61.5436" gradientUnits="userSpaceOnUse">
<stop offset="0.02" stop-color="#D697E3"/>
<stop offset="1" stop-color="#EDE5F3"/>
</linearGradient>
<radialGradient id="paint14_radial_245_919" cx="0" cy="0" r="1" gradientUnits="userSpaceOnUse" gradientTransform="translate(95.0526 57.7713) rotate(6.9919) scale(7.04523 7.0274)">
<stop stop-color="#00E0FF"/>
<stop offset="0.99" stop-color="#1F84FF"/>
</radialGradient>
<radialGradient id="paint15_radial_245_919" cx="0" cy="0" r="1" gradientUnits="userSpaceOnUse" gradientTransform="translate(95.5427 54.8199) rotate(6.99191) scale(6.09362 6.07821)">
<stop stop-color="#00E0FF"/>
<stop offset="0.99" stop-color="#1F84FF"/>
</radialGradient>
<linearGradient id="paint16_linear_245_919" x1="83.5166" y1="96.6305" x2="87.9427" y2="60.5399" gradientUnits="userSpaceOnUse">
<stop/>
<stop offset="1" stop-color="#C7AC75"/>
</linearGradient>
<linearGradient id="paint17_linear_245_919" x1="82.6052" y1="83.7218" x2="103.911" y2="81.8401" gradientUnits="userSpaceOnUse">
<stop stop-color="#EDEDFF"/>
<stop offset="0.98" stop-color="#D1D1EB"/>
</linearGradient>
<linearGradient id="paint18_linear_245_919" x1="99.4558" y1="83.2509" x2="102.281" y2="83.5992" gradientUnits="userSpaceOnUse">
<stop/>
<stop offset="1" stop-color="#C7AC75"/>
</linearGradient>
<radialGradient id="paint19_radial_245_919" cx="0" cy="0" r="1" gradientUnits="userSpaceOnUse" gradientTransform="translate(42.4826 76.0104) rotate(-18.445) scale(26.2218 26.1671)">
<stop stop-color="#B3819D"/>
<stop offset="1" stop-color="#785CA6"/>
</radialGradient>
<linearGradient id="paint20_linear_245_919" x1="60.5546" y1="103.344" x2="24.8301" y2="47.11" gradientUnits="userSpaceOnUse">
<stop stop-color="#B2C9FF"/>
<stop offset="0.21" stop-color="#8E7BBB"/>
<stop offset="1" stop-color="#F6ECF2"/>
</linearGradient>
<linearGradient id="paint21_linear_245_919" x1="40.9509" y1="75.3274" x2="43.362" y2="74.6161" gradientUnits="userSpaceOnUse">
<stop stop-color="#F6ECF2"/>
<stop offset="1" stop-color="#AA9CCC"/>
</linearGradient>
<linearGradient id="paint22_linear_245_919" x1="41.0844" y1="74.1768" x2="42.2213" y2="73.8397" gradientUnits="userSpaceOnUse">
<stop offset="0.36"/>
<stop offset="1" stop-color="#E5EFE5"/>
</linearGradient>
<linearGradient id="paint23_linear_245_919" x1="17.7399" y1="62.4116" x2="32.0619" y2="57.6098" gradientUnits="userSpaceOnUse">
<stop stop-color="#E5EFE5"/>
<stop offset="1" stop-color="#603157"/>
</linearGradient>
<radialGradient id="paint24_radial_245_919" cx="0" cy="0" r="1" gradientUnits="userSpaceOnUse" gradientTransform="translate(24.9359 59.5638) rotate(-18.445) scale(4.84877 4.83866)">
<stop stop-color="#EBD7E3"/>
<stop offset="0.38" stop-color="#D7C6DB"/>
<stop offset="0.98" stop-color="#BDAFD2"/>
</radialGradient>
<linearGradient id="paint25_linear_245_919" x1="26.96" y1="61.6629" x2="22.376" y2="55.8369" gradientUnits="userSpaceOnUse">
<stop offset="0.02" stop-color="#D6CEE3"/>
<stop offset="1" stop-color="#F4EFFF"/>
</linearGradient>
<linearGradient id="paint26_linear_245_919" x1="26.849" y1="61.5154" x2="22.4863" y2="55.9847" gradientUnits="userSpaceOnUse">
<stop offset="0.02" stop-color="#E2DCEB"/>
<stop offset="1" stop-color="white"/>
</linearGradient>
<linearGradient id="paint27_linear_245_919" x1="25.5438" y1="60.4057" x2="23.1333" y2="57.3346" gradientUnits="userSpaceOnUse">
<stop offset="0.02" stop-color="#D6CEE3"/>
<stop offset="1" stop-color="#F4EFFF"/>
</linearGradient>
<linearGradient id="paint28_linear_245_919" x1="17.3073" y1="59.9923" x2="29.026" y2="56.0633" gradientUnits="userSpaceOnUse">
<stop stop-color="white"/>
<stop offset="1"/>
</linearGradient>
<linearGradient id="paint29_linear_245_919" x1="21.9229" y1="74.8876" x2="36.2448" y2="70.0858" gradientUnits="userSpaceOnUse">
<stop stop-color="#E5EFE5"/>
<stop offset="1" stop-color="#603157"/>
</linearGradient>
<radialGradient id="paint30_radial_245_919" cx="0" cy="0" r="1" gradientUnits="userSpaceOnUse" gradientTransform="translate(29.1189 72.0398) rotate(-18.4451) scale(4.84877 4.83867)">
<stop stop-color="#EBD7E3"/>
<stop offset="0.38" stop-color="#D7C6DB"/>
<stop offset="0.98" stop-color="#BDAFD2"/>
</radialGradient>
<linearGradient id="paint31_linear_245_919" x1="31.1403" y1="74.131" x2="26.5588" y2="68.313" gradientUnits="userSpaceOnUse">
<stop offset="0.02" stop-color="#D6CEE3"/>
<stop offset="1" stop-color="#F4EFFF"/>
</linearGradient>
<linearGradient id="paint32_linear_245_919" x1="31.0319" y1="73.9915" x2="26.6666" y2="68.4529" gradientUnits="userSpaceOnUse">
<stop offset="0.02" stop-color="#E2DCEB"/>
<stop offset="1" stop-color="white"/>
</linearGradient>
<linearGradient id="paint33_linear_245_919" x1="29.7268" y1="72.8818" x2="27.3136" y2="69.8028" gradientUnits="userSpaceOnUse">
<stop offset="0.02" stop-color="#D6CEE3"/>
<stop offset="1" stop-color="#F4EFFF"/>
</linearGradient>
<linearGradient id="paint34_linear_245_919" x1="21.4902" y1="72.4684" x2="33.2089" y2="68.5394" gradientUnits="userSpaceOnUse">
<stop stop-color="white"/>
<stop offset="1"/>
</linearGradient>
<linearGradient id="paint35_linear_245_919" x1="26.0527" y1="87.2055" x2="40.3747" y2="82.4037" gradientUnits="userSpaceOnUse">
<stop stop-color="#E5EFE5"/>
<stop offset="1" stop-color="#603157"/>
</linearGradient>
<radialGradient id="paint36_radial_245_919" cx="0" cy="0" r="1" gradientUnits="userSpaceOnUse" gradientTransform="translate(33.2461 84.3498) rotate(-18.445) scale(4.84877 4.83866)">
<stop stop-color="#EBD7E3"/>
<stop offset="0.38" stop-color="#D7C6DB"/>
<stop offset="0.98" stop-color="#BDAFD2"/>
</radialGradient>
<linearGradient id="paint37_linear_245_919" x1="35.2702" y1="86.4489" x2="30.6861" y2="80.623" gradientUnits="userSpaceOnUse">
<stop offset="0.02" stop-color="#D6CEE3"/>
<stop offset="1" stop-color="#F4EFFF"/>
</linearGradient>
<linearGradient id="paint38_linear_245_919" x1="35.1592" y1="86.3015" x2="30.7964" y2="80.7708" gradientUnits="userSpaceOnUse">
<stop offset="0.02" stop-color="#E2DCEB"/>
<stop offset="1" stop-color="white"/>
</linearGradient>
<linearGradient id="paint39_linear_245_919" x1="33.854" y1="85.1918" x2="31.4434" y2="82.1207" gradientUnits="userSpaceOnUse">
<stop offset="0.02" stop-color="#D6CEE3"/>
<stop offset="1" stop-color="#F4EFFF"/>
</linearGradient>
<linearGradient id="paint40_linear_245_919" x1="25.6201" y1="84.7863" x2="37.3388" y2="80.8573" gradientUnits="userSpaceOnUse">
<stop stop-color="white"/>
<stop offset="1"/>
</linearGradient>
<linearGradient id="paint41_linear_245_919" x1="30.5534" y1="100.629" x2="44.8753" y2="95.8274" gradientUnits="userSpaceOnUse">
<stop stop-color="#E5EFE5"/>
<stop offset="1" stop-color="#603157"/>
</linearGradient>
<radialGradient id="paint42_radial_245_919" cx="0" cy="0" r="1" gradientUnits="userSpaceOnUse" gradientTransform="translate(37.7468 97.7735) rotate(-18.445) scale(4.84877 4.83866)">
<stop stop-color="#EBD7E3"/>
<stop offset="0.38" stop-color="#D7C6DB"/>
<stop offset="0.98" stop-color="#BDAFD2"/>
</radialGradient>
<linearGradient id="paint43_linear_245_919" x1="39.7708" y1="99.8726" x2="35.1868" y2="94.0466" gradientUnits="userSpaceOnUse">
<stop offset="0.02" stop-color="#D6CEE3"/>
<stop offset="1" stop-color="#F4EFFF"/>
</linearGradient>
<linearGradient id="paint44_linear_245_919" x1="39.6598" y1="99.7251" x2="35.2971" y2="94.1944" gradientUnits="userSpaceOnUse">
<stop offset="0.02" stop-color="#E2DCEB"/>
<stop offset="1" stop-color="white"/>
</linearGradient>
<linearGradient id="paint45_linear_245_919" x1="38.3626" y1="98.6128" x2="35.9441" y2="95.5443" gradientUnits="userSpaceOnUse">
<stop offset="0.02" stop-color="#D6CEE3"/>
<stop offset="1" stop-color="#F4EFFF"/>
</linearGradient>
<linearGradient id="paint46_linear_245_919" x1="38.5454" y1="55.4724" x2="52.8673" y2="50.6706" gradientUnits="userSpaceOnUse">
<stop stop-color="#E5EFE5"/>
<stop offset="1" stop-color="#603157"/>
</linearGradient>
<radialGradient id="paint47_radial_245_919" cx="0" cy="0" r="1" gradientUnits="userSpaceOnUse" gradientTransform="translate(45.7414 52.6246) rotate(-18.445) scale(4.84877 4.83866)">
<stop stop-color="#EBD7E3"/>
<stop offset="0.38" stop-color="#D7C6DB"/>
<stop offset="0.98" stop-color="#BDAFD2"/>
</radialGradient>
<linearGradient id="paint48_linear_245_919" x1="47.7654" y1="54.7237" x2="43.1814" y2="48.8977" gradientUnits="userSpaceOnUse">
<stop offset="0.02" stop-color="#D6CEE3"/>
<stop offset="1" stop-color="#F4EFFF"/>
</linearGradient>
<linearGradient id="paint49_linear_245_919" x1="47.6545" y1="54.5762" x2="43.2917" y2="49.0455" gradientUnits="userSpaceOnUse">
<stop offset="0.02" stop-color="#E2DCEB"/>
<stop offset="1" stop-color="white"/>
</linearGradient>
<linearGradient id="paint50_linear_245_919" x1="46.3494" y1="53.4665" x2="43.9388" y2="50.3954" gradientUnits="userSpaceOnUse">
<stop offset="0.02" stop-color="#D6CEE3"/>
<stop offset="1" stop-color="#F4EFFF"/>
</linearGradient>
<linearGradient id="paint51_linear_245_919" x1="42.7283" y1="67.9484" x2="57.0502" y2="63.1466" gradientUnits="userSpaceOnUse">
<stop stop-color="#E5EFE5"/>
<stop offset="1" stop-color="#603157"/>
</linearGradient>
<radialGradient id="paint52_radial_245_919" cx="0" cy="0" r="1" gradientUnits="userSpaceOnUse" gradientTransform="translate(49.9243 65.1006) rotate(-18.445) scale(4.84877 4.83866)">
<stop stop-color="#EBD7E3"/>
<stop offset="0.38" stop-color="#D7C6DB"/>
<stop offset="0.98" stop-color="#BDAFD2"/>
</radialGradient>
<linearGradient id="paint53_linear_245_919" x1="51.9457" y1="67.1918" x2="47.3643" y2="61.3738" gradientUnits="userSpaceOnUse">
<stop offset="0.02" stop-color="#D6CEE3"/>
<stop offset="1" stop-color="#F4EFFF"/>
</linearGradient>
<linearGradient id="paint54_linear_245_919" x1="51.8373" y1="67.0523" x2="47.472" y2="61.5137" gradientUnits="userSpaceOnUse">
<stop offset="0.02" stop-color="#E2DCEB"/>
<stop offset="1" stop-color="white"/>
</linearGradient>
<linearGradient id="paint55_linear_245_919" x1="50.5323" y1="65.9426" x2="48.1191" y2="62.8636" gradientUnits="userSpaceOnUse">
<stop offset="0.02" stop-color="#D6CEE3"/>
<stop offset="1" stop-color="#F4EFFF"/>
</linearGradient>
<linearGradient id="paint56_linear_245_919" x1="42.2957" y1="65.5292" x2="54.0144" y2="61.6002" gradientUnits="userSpaceOnUse">
<stop stop-color="white"/>
<stop offset="1"/>
</linearGradient>
<linearGradient id="paint57_linear_245_919" x1="46.8582" y1="80.2663" x2="61.1801" y2="75.4645" gradientUnits="userSpaceOnUse">
<stop stop-color="#E5EFE5"/>
<stop offset="0.48" stop-color="#603157"/>
<stop offset="0.98" stop-color="#91708A"/>
</linearGradient>
<radialGradient id="paint58_radial_245_919" cx="0" cy="0" r="1" gradientUnits="userSpaceOnUse" gradientTransform="translate(54.0516 77.4106) rotate(-18.445) scale(4.84877 4.83866)">
<stop stop-color="#EBD7E3"/>
<stop offset="0.38" stop-color="#D7C6DB"/>
<stop offset="0.98" stop-color="#BDAFD2"/>
</radialGradient>
<linearGradient id="paint59_linear_245_919" x1="56.0756" y1="79.5097" x2="51.4916" y2="73.6837" gradientUnits="userSpaceOnUse">
<stop offset="0.02" stop-color="#D6CEE3"/>
<stop offset="1" stop-color="#F4EFFF"/>
</linearGradient>
<linearGradient id="paint60_linear_245_919" x1="55.9646" y1="79.3623" x2="51.6019" y2="73.8315" gradientUnits="userSpaceOnUse">
<stop offset="0.02" stop-color="#E2DCEB"/>
<stop offset="1" stop-color="white"/>
</linearGradient>
<linearGradient id="paint61_linear_245_919" x1="54.6674" y1="78.25" x2="52.2489" y2="75.1814" gradientUnits="userSpaceOnUse">
<stop offset="0.02" stop-color="#D6CEE3"/>
<stop offset="1" stop-color="#F4EFFF"/>
</linearGradient>
<linearGradient id="paint62_linear_245_919" x1="51.3588" y1="93.69" x2="65.6808" y2="88.8882" gradientUnits="userSpaceOnUse">
<stop stop-color="#E5EFE5"/>
<stop offset="0.48" stop-color="#603157"/>
<stop offset="0.98" stop-color="#91708A"/>
</linearGradient>
<radialGradient id="paint63_radial_245_919" cx="0" cy="0" r="1" gradientUnits="userSpaceOnUse" gradientTransform="translate(58.5522 90.8343) rotate(-18.445) scale(4.84877 4.83866)">
<stop stop-color="#EBD7E3"/>
<stop offset="0.38" stop-color="#D7C6DB"/>
<stop offset="0.98" stop-color="#BDAFD2"/>
</radialGradient>
<linearGradient id="paint64_linear_245_919" x1="60.5762" y1="92.9334" x2="55.9922" y2="87.1074" gradientUnits="userSpaceOnUse">
<stop offset="0.02" stop-color="#D6CEE3"/>
<stop offset="1" stop-color="#F4EFFF"/>
</linearGradient>
<linearGradient id="paint65_linear_245_919" x1="60.4653" y1="92.7859" x2="56.1025" y2="87.2552" gradientUnits="userSpaceOnUse">
<stop offset="0.02" stop-color="#E2DCEB"/>
<stop offset="1" stop-color="white"/>
</linearGradient>
<linearGradient id="paint66_linear_245_919" x1="59.1681" y1="91.6736" x2="56.7496" y2="88.6051" gradientUnits="userSpaceOnUse">
<stop offset="0.02" stop-color="#D6CEE3"/>
<stop offset="1" stop-color="#F4EFFF"/>
</linearGradient>
<linearGradient id="paint67_linear_245_919" x1="30.1208" y1="98.2099" x2="41.8394" y2="94.2809" gradientUnits="userSpaceOnUse">
<stop stop-color="white"/>
<stop offset="1"/>
</linearGradient>
<linearGradient id="paint68_linear_245_919" x1="115.341" y1="195.417" x2="102.649" y2="68.1493" gradientUnits="userSpaceOnUse">
<stop stop-color="#FF691B"/>
<stop offset="1" stop-color="#FE6A3B"/>
</linearGradient>
<linearGradient id="paint69_linear_245_919" x1="26.8494" y1="106.799" x2="35.1962" y2="100.792" gradientUnits="userSpaceOnUse">
<stop stop-color="#E3E3FF"/>
<stop offset="0.98" stop-color="#E0D1EB"/>
</linearGradient>
<linearGradient id="paint70_linear_245_919" x1="39.4537" y1="124.299" x2="46.4332" y2="119.276" gradientUnits="userSpaceOnUse">
<stop stop-color="#E3E3FF"/>
<stop offset="0.98" stop-color="#E0D1EB"/>
</linearGradient>
<linearGradient id="paint71_linear_245_919" x1="35.4832" y1="109.801" x2="19.7079" y2="87.7653" gradientUnits="userSpaceOnUse">
<stop stop-color="#FFF3FF"/>
<stop offset="0.98" stop-color="#E7E2EE"/>
</linearGradient>
<radialGradient id="paint72_radial_245_919" cx="0" cy="0" r="1" gradientUnits="userSpaceOnUse" gradientTransform="translate(37.2217 109.21) rotate(-35.5992) scale(2.60369 3.02501)">
<stop stop-color="#7C65E0"/>
<stop offset="0.99" stop-color="#954CB8"/>
</radialGradient>
<linearGradient id="paint73_linear_245_919" x1="13.4648" y1="93.1263" x2="26.7738" y2="83.5484" gradientUnits="userSpaceOnUse">
<stop stop-color="#E3E3FF"/>
<stop offset="0.98" stop-color="#E0D1EB"/>
</linearGradient>
<linearGradient id="paint74_linear_245_919" x1="12.9586" y1="92.4228" x2="26.2676" y2="82.845" gradientUnits="userSpaceOnUse">
<stop stop-color="#FFF3FF"/>
<stop offset="0.98" stop-color="#E7E2EE"/>
</linearGradient>
<linearGradient id="paint75_linear_245_919" x1="15.255" y1="90.5022" x2="23.7237" y2="84.4076" gradientUnits="userSpaceOnUse">
<stop stop-color="#C2C9F3"/>
<stop offset="0.98" stop-color="#C7B5E3"/>
</linearGradient>
<linearGradient id="paint76_linear_245_919" x1="19.8141" y1="88.0273" x2="6.87667" y2="69.9559" gradientUnits="userSpaceOnUse">
<stop stop-color="#FFF3FF"/>
<stop offset="0.98" stop-color="#E7E2EE"/>
</linearGradient>
<linearGradient id="paint77_linear_245_919" x1="18.5866" y1="95.1887" x2="26.8184" y2="89.2647" gradientUnits="userSpaceOnUse">
<stop offset="0.02" stop-color="#D697E3"/>
<stop offset="1" stop-color="#EDE5F3"/>
</linearGradient>
<linearGradient id="paint78_linear_245_919" x1="19.0341" y1="88.514" x2="7.06678" y2="71.7978" gradientUnits="userSpaceOnUse">
<stop stop-color="#FFF3FF"/>
<stop offset="0.98" stop-color="#F6F4F9"/>
</linearGradient>
<linearGradient id="paint79_linear_245_919" x1="19.9257" y1="88.0398" x2="7.88083" y2="71.2151" gradientUnits="userSpaceOnUse">
<stop stop-color="#EDE5F3"/>
<stop offset="0.99" stop-color="#D6ACE3"/>
</linearGradient>
<linearGradient id="paint80_linear_245_919" x1="11.7022" y1="76.1558" x2="7.97663" y2="70.9518" gradientUnits="userSpaceOnUse">
<stop stop-color="#EDE5F3"/>
<stop offset="0.99" stop-color="#D6ACE3"/>
</linearGradient>
<linearGradient id="paint81_linear_245_919" x1="0.764232" y1="74.7214" x2="14.0732" y2="65.1435" gradientUnits="userSpaceOnUse">
<stop stop-color="#E3E3FF"/>
<stop offset="0.98" stop-color="#E0D1EB"/>
</linearGradient>
<linearGradient id="paint82_linear_245_919" x1="0.25799" y1="74.0182" x2="13.567" y2="64.4403" gradientUnits="userSpaceOnUse">
<stop stop-color="#FFF3FF"/>
<stop offset="0.98" stop-color="#E7E2EE"/>
</linearGradient>
<linearGradient id="paint83_linear_245_919" x1="67.4752" y1="201.312" x2="56.0571" y2="86.8199" gradientUnits="userSpaceOnUse">
<stop stop-color="#FF8647"/>
<stop offset="1" stop-color="#FFB934"/>
</linearGradient>
<linearGradient id="paint84_linear_245_919" x1="73.3121" y1="127.062" x2="69.427" y2="88.1056" gradientUnits="userSpaceOnUse">
<stop offset="0.4" stop-color="white"/>
<stop offset="1" stop-color="#F492BB"/>
</linearGradient>
<linearGradient id="paint85_linear_245_919" x1="97.512" y1="87.7815" x2="96.8527" y2="81.17" gradientUnits="userSpaceOnUse">
<stop stop-color="#FF8647"/>
<stop offset="1" stop-color="#E68434"/>
</linearGradient>
<linearGradient id="paint86_linear_245_919" x1="62.4195" y1="21.9284" x2="58.4041" y2="6.23742" gradientUnits="userSpaceOnUse">
<stop offset="0.02" stop-color="#A49AC6"/>
<stop offset="1" stop-color="#C8C7DF"/>
</linearGradient>
<radialGradient id="paint87_radial_245_919" cx="0" cy="0" r="1" gradientUnits="userSpaceOnUse" gradientTransform="translate(58.2218 5.7204) rotate(-14.354) scale(10.4747 9.3012)">
<stop stop-color="#EBD7E3"/>
<stop offset="0.38" stop-color="#D7C6DB"/>
<stop offset="0.98" stop-color="#BDAFD2"/>
</radialGradient>
<linearGradient id="paint88_linear_245_919" x1="67.7649" y1="20.6635" x2="63.667" y2="4.64983" gradientUnits="userSpaceOnUse">
<stop offset="0.02" stop-color="#D6CEE3"/>
<stop offset="1" stop-color="#F4EFFF"/>
</linearGradient>
<linearGradient id="paint89_linear_245_919" x1="67.8097" y1="20.0677" x2="63.9905" y2="5.14308" gradientUnits="userSpaceOnUse">
<stop offset="0.02" stop-color="#E2DCEB"/>
<stop offset="1" stop-color="white"/>
</linearGradient>
<radialGradient id="paint90_radial_245_919" cx="0" cy="0" r="1" gradientUnits="userSpaceOnUse" gradientTransform="translate(63.7198 4.70907) rotate(-14.354) scale(5.83414 7.74166)">
<stop stop-color="#EBD7E3"/>
<stop offset="0.98" stop-color="#BDAFD2"/>
</radialGradient>
<linearGradient id="paint91_linear_245_919" x1="51.481" y1="34.004" x2="50.2164" y2="24.7478" gradientUnits="userSpaceOnUse">
<stop offset="0.02" stop-color="#A49AC6"/>
<stop offset="1" stop-color="#C8C7DF"/>
</linearGradient>
<radialGradient id="paint92_radial_245_919" cx="0" cy="0" r="1" gradientUnits="userSpaceOnUse" gradientTransform="translate(49.988 22.9834) rotate(-7.77991) scale(6.04348 5.36518)">
<stop stop-color="#EBD7E3"/>
<stop offset="0.38" stop-color="#D7C6DB"/>
<stop offset="0.98" stop-color="#BDAFD2"/>
</radialGradient>
<linearGradient id="paint93_linear_245_919" x1="54.6318" y1="33.6323" x2="53.3401" y2="24.1781" gradientUnits="userSpaceOnUse">
<stop offset="0.02" stop-color="#D6CEE3"/>
<stop offset="1" stop-color="#F4EFFF"/>
</linearGradient>
<linearGradient id="paint94_linear_245_919" x1="54.6951" y1="33.2959" x2="53.4913" y2="24.4852" gradientUnits="userSpaceOnUse">
<stop offset="0.02" stop-color="#E2DCEB"/>
<stop offset="1" stop-color="white"/>
</linearGradient>
<radialGradient id="paint95_radial_245_919" cx="0" cy="0" r="1" gradientUnits="userSpaceOnUse" gradientTransform="translate(52.9959 22.1846) rotate(-7.77991) scale(3.36398 4.46286)">
<stop stop-color="#EBD7E3"/>
<stop offset="0.98" stop-color="#BDAFD2"/>
</radialGradient>
<radialGradient id="paint96_radial_245_919" cx="0" cy="0" r="1" gradientUnits="userSpaceOnUse" gradientTransform="translate(82.4849 2.15626) rotate(-10.2737) scale(4.87468 4.86278)">
<stop stop-color="#FFE534"/>
<stop offset="0.8" stop-color="#FF9A47"/>
<stop offset="0.98" stop-color="#FFB83D"/>
</radialGradient>
<linearGradient id="paint97_linear_245_919" x1="31.0775" y1="43.0596" x2="17.5096" y2="24.343" gradientUnits="userSpaceOnUse">
<stop stop-color="#FF6E27"/>
<stop offset="1" stop-color="#E03347"/>
</linearGradient>
<linearGradient id="paint98_linear_245_919" x1="31.0168" y1="43.1037" x2="24.9371" y2="34.717" gradientUnits="userSpaceOnUse">
<stop stop-color="#FFCB34"/>
<stop offset="1" stop-color="#FF9A47"/>
</linearGradient>
<linearGradient id="paint99_linear_245_919" x1="22.9468" y1="34.5644" x2="20.709" y2="36.1951" gradientUnits="userSpaceOnUse">
<stop offset="0.36"/>
<stop offset="1" stop-color="#E5EFE5"/>
</linearGradient>
<linearGradient id="paint100_linear_245_919" x1="31.1794" y1="37.2939" x2="23.8867" y2="27.2339" gradientUnits="userSpaceOnUse">
<stop/>
<stop offset="1" stop-color="#E5EFE5"/>
</linearGradient>
<radialGradient id="paint101_radial_245_919" cx="0" cy="0" r="1" gradientUnits="userSpaceOnUse" gradientTransform="translate(11.7249 33.8699) rotate(-10.2737) scale(4.87468 4.86277)">
<stop stop-color="#FFE534"/>
<stop offset="0.8" stop-color="#FF9A47"/>
<stop offset="0.98" stop-color="#FFB83D"/>
</radialGradient>
<radialGradient id="paint102_radial_245_919" cx="0" cy="0" r="1" gradientUnits="userSpaceOnUse" gradientTransform="translate(12.0759 24.2948) rotate(-10.2737) scale(3.28039 3.27238)">
<stop stop-color="#FFE534"/>
<stop offset="0.8" stop-color="#FF9A47"/>
<stop offset="0.98" stop-color="#FFB83D"/>
</radialGradient>
<radialGradient id="paint103_radial_245_919" cx="0" cy="0" r="1" gradientUnits="userSpaceOnUse" gradientTransform="translate(88.6383 7.89547) rotate(-10.2737) scale(4.34881 4.3382)">
<stop stop-color="#FFE534"/>
<stop offset="0.8" stop-color="#FF9A47"/>
<stop offset="0.98" stop-color="#FFB83D"/>
</radialGradient>
<clipPath id="clip0_245_919">
<rect width="132.813" height="217" fill="white"/>
</clipPath>
</defs>
</svg>
