<svg width="25" height="33" viewBox="0 0 25 33" fill="none" xmlns="http://www.w3.org/2000/svg">
<path d="M1.40553 23.7262C1.57821 22.6584 1.75088 21.591 1.92391 20.5232C1.97329 20.218 2.1894 19.9665 2.48291 19.8722L8.13809 18.0538C8.42004 17.9633 8.72021 18.0331 8.93176 18.22C9.00672 18.286 9.07081 18.367 9.1188 18.4607C9.28867 18.7914 9.45854 19.1222 9.62841 19.453C10.3114 20.7828 10.9944 22.1126 11.677 23.4424C11.9818 24.0355 12.8276 24.0373 13.1351 23.4455C13.8262 22.1147 14.5176 20.7838 15.209 19.453C15.3652 19.1517 15.5218 18.8504 15.6783 18.5491C15.7351 18.4396 15.8135 18.3481 15.9063 18.2768C16.1095 18.1204 16.3802 18.0636 16.6391 18.14C18.5567 18.7073 20.4747 19.2745 22.3923 19.842C22.6984 19.9325 22.9244 20.1924 22.9716 20.5085C23.3559 23.0776 25.2374 25.6449 24.1124 28.1459C23.9776 28.4459 23.7499 28.8861 23.3713 29.3761C21.3461 30.2997 18.1227 31.4643 14.0234 31.7046C8.39202 32.035 4.00826 30.452 1.75403 29.4477C1.54808 29.1948 1.31832 28.8503 1.14599 28.4087C0.667549 27.1831 0.961411 26.0546 1.09836 25.626" stroke="#B0B6B8" stroke-width="0.8" stroke-linecap="round" stroke-linejoin="round"/>
<path d="M20.6814 30.4303C20.3577 28.4432 20.0344 26.456 19.7108 24.4685" stroke="#B0B6B8" stroke-width="0.8" stroke-linecap="round" stroke-linejoin="round"/>
<path d="M5.08041 24.5042C4.76658 26.4615 4.45311 28.4188 4.13928 30.3762" stroke="#B0B6B8" stroke-width="0.8" stroke-linecap="round" stroke-linejoin="round"/>
<path d="M15.9063 18.277C15.8135 18.3482 15.7351 18.4398 15.6783 18.5492C15.5218 18.8505 15.3652 19.1518 15.209 19.4532H9.62842C9.45854 19.1224 9.28867 18.7916 9.1188 18.4608C9.07081 18.3672 9.00672 18.2861 8.93176 18.2202C9.21126 17.9711 9.50092 17.6309 9.71283 17.1784C9.9489 16.6729 10.0196 16.172 10.0028 15.7191C10.4757 16.0724 11.0687 16.3712 11.7846 16.4649C12.6262 16.5747 13.2872 16.3551 13.6444 16.232C14.1243 16.0668 14.539 15.8331 14.8959 15.5645C14.8069 16.2415 14.9169 16.9111 15.2395 17.4829C15.4307 17.8221 15.6713 18.0816 15.9063 18.277Z" stroke="#B0B6B8" stroke-width="0.8" stroke-linecap="round" stroke-linejoin="round"/>
<path d="M17.6538 5.64303C17.1816 4.94393 16.5901 4.35533 15.9197 3.89722" stroke="#B0B6B8" stroke-width="0.8" stroke-linecap="round" stroke-linejoin="round"/>
<path d="M6.69958 9.88033L6.84319 7.91809C6.96332 6.27751 7.79272 4.82319 9.03297 3.88696" stroke="#B0B6B8" stroke-width="0.8" stroke-linecap="round" stroke-linejoin="round"/>
<path d="M6.59284 11.3389L6.50177 12.5834C6.40055 13.9634 7.48878 15.1395 8.87053 15.1437C9.03445 15.1441 9.19872 15.1448 9.36264 15.1451" stroke="#B0B6B8" stroke-width="0.8" stroke-linecap="round" stroke-linejoin="round"/>
<path d="M18.2443 11.2576C18.272 11.7174 18.299 12.1777 18.3263 12.6375C18.4079 14.0112 17.3155 15.1687 15.9414 15.1645C15.7495 15.1638 15.5575 15.1635 15.3656 15.1628" stroke="#B0B6B8" stroke-width="0.8" stroke-linecap="round" stroke-linejoin="round"/>
<path d="M18.1893 10.3262C18.1301 9.32609 18.0705 8.32637 18.0114 7.32666" stroke="#B0B6B8" stroke-width="0.8" stroke-linecap="round" stroke-linejoin="round"/>
<path d="M18.2443 11.2575C18.1865 11.5231 18.0618 11.7644 17.8653 11.9328C17.5774 12.1797 17.209 12.206 16.9925 12.1987C16.9641 12.3516 16.9151 12.5789 16.8282 12.8466C16.7757 13.0076 16.3726 14.1886 15.3656 15.1627C15.2216 15.3023 15.0654 15.4374 14.8959 15.5644C14.539 15.8331 14.1243 16.0667 13.6444 16.2319C13.2872 16.355 12.6263 16.5746 11.7846 16.4648C11.0687 16.3712 10.4757 16.0723 10.0029 15.7191C9.75699 15.5353 9.54368 15.3371 9.3626 15.1452C9.0127 14.7744 8.78329 14.4286 8.67261 14.2616C8.40291 13.855 8.02604 13.1668 7.84391 12.1987C7.65407 12.192 7.25373 12.1496 6.93745 11.8612C6.78334 11.7206 6.66881 11.5392 6.59281 11.3389C6.41067 10.8598 6.4506 10.2729 6.69963 9.88038C6.76863 9.77094 6.85409 9.67693 6.95567 9.60432C7.22256 9.41315 7.54374 9.4121 7.73638 9.43139C7.71116 9.24372 7.60013 8.27032 8.27297 7.38917C8.87155 6.60553 9.69569 6.4119 9.9097 6.36841C10.4785 6.92053 11.5177 7.78975 13.0543 8.38643C14.5807 8.97889 15.9242 9.04133 16.7148 9.01923C16.8076 9.18058 16.9 9.34159 16.9925 9.50295C17.1978 9.49313 17.4878 9.51768 17.7403 9.69377C17.9491 9.83969 18.1004 10.067 18.1893 10.3262C18.2902 10.6198 18.3109 10.9548 18.2443 11.2575Z" stroke="#B0B6B8" stroke-width="0.8" stroke-linecap="round" stroke-linejoin="round"/>
<path d="M16.327 2.97044C16.1915 3.27947 16.0556 3.58815 15.9197 3.89719C15.808 4.15115 15.6966 4.40511 15.5849 4.65908C15.4801 4.8976 15.2441 5.05159 14.9838 5.05159H9.95068C9.68414 5.05159 9.44387 4.89059 9.343 4.64364C9.23967 4.39143 9.13635 4.13922 9.03302 3.88702C8.90693 3.57974 8.78119 3.2721 8.6551 2.96482C8.50274 2.59265 8.71674 2.17137 9.10693 2.07596C10.206 1.80726 11.3051 1.53822 12.4042 1.26917C12.5082 1.24391 12.6168 1.24427 12.7205 1.27022C13.7758 1.53611 14.8308 1.80165 15.8861 2.06754C16.2805 2.16681 16.491 2.59756 16.327 2.97044Z" stroke="#B0B6B8" stroke-width="0.8" stroke-linecap="round" stroke-linejoin="round"/>
<path d="M12.4431 2.05469V4.20425" stroke="#B0B6B8" stroke-width="0.8" stroke-linecap="round" stroke-linejoin="round"/>
<path d="M11.3699 3.12939H13.5162" stroke="#B0B6B8" stroke-width="0.8" stroke-linecap="round" stroke-linejoin="round"/>
</svg>
