<svg width="30" height="33" viewBox="0 0 30 33" fill="none" xmlns="http://www.w3.org/2000/svg">
<path d="M13.0724 27.4618C13.0724 28.0286 13.1848 28.6018 13.4184 29.147H3.28729C1.90489 29.147 0.784058 28.0252 0.784058 26.6417V25.4214H13.5895C13.2506 26.0456 13.0724 26.7485 13.0724 27.4618Z" stroke="#B0B6B8" stroke-miterlimit="10"/>
<path d="M19.3968 15.3788V21.2955L18.983 21.54L15.145 23.8088C14.4663 24.2101 13.9411 24.7731 13.5895 25.4213H0.784058V15.3788C0.784058 14.6384 1.38413 14.0378 2.12393 14.0378H18.0569C18.7967 14.0378 19.3968 14.6384 19.3968 15.3788Z" stroke="#B0B6B8" stroke-miterlimit="10"/>
<path d="M16.7718 14.038H3.45303C2.35075 14.038 1.71997 12.7805 2.37809 11.8959C3.08751 10.9427 3.79694 9.9895 4.50636 9.03632V6.58716H15.7772V9.03632C16.4704 9.99423 17.1636 10.9521 17.8568 11.9104C18.4984 12.797 17.8656 14.038 16.7714 14.038H16.7718Z" stroke="#B0B6B8" stroke-miterlimit="10"/>
<path d="M15.4761 1.24023H4.60123C3.88268 1.24023 3.30017 1.8232 3.30017 2.54233V5.28502C3.30017 6.00415 3.88268 6.58712 4.60123 6.58712H15.4761C16.1947 6.58712 16.7772 6.00415 16.7772 5.28502V2.54233C16.7772 1.8232 16.1947 1.24023 15.4761 1.24023Z" stroke="#B0B6B8" stroke-miterlimit="10"/>
<path d="M8.86621 8.53638C8.59007 8.53638 8.36621 8.76023 8.36621 9.03638C8.36621 9.31252 8.59007 9.53638 8.86621 9.53638V8.53638ZM15.7775 8.53638H8.86621V9.53638H15.7775V8.53638Z" fill="#B0B6B8"/>
<path d="M6.60901 9.03638H7.25532" stroke="#B0B6B8" stroke-miterlimit="10" stroke-linecap="round"/>
<path d="M23.3307 28.9058L19.493 31.1746C17.4788 32.3655 14.8726 31.6819 13.6721 29.6478C13.5756 29.4844 13.4909 29.3172 13.4183 29.1469C13.1848 28.6018 13.0724 28.0286 13.0724 27.4618C13.0724 26.7484 13.2506 26.0455 13.5894 25.4213C13.9411 24.7732 14.4663 24.2101 15.145 23.8088L18.983 21.54L19.3968 22.2409L23.3307 28.9058Z" stroke="#B0B6B8" stroke-miterlimit="10"/>
<path d="M27.1691 26.6364L23.3307 28.9059L19.3968 22.241L18.983 21.5401L19.3968 21.2956L22.8211 19.2707C24.8353 18.08 27.4414 18.7633 28.6419 20.7974C29.8428 22.8314 29.1833 25.4458 27.1691 26.6364Z" stroke="#B0B6B8" stroke-miterlimit="10"/>
</svg>
