<svg width="77" height="78" viewBox="0 0 77 78" fill="none" xmlns="http://www.w3.org/2000/svg">
<rect x="2.91165" y="3.41165" width="71.1767" height="71.1767" rx="35.5884" fill="#0088B1"/>
<rect x="2.91165" y="3.41165" width="71.1767" height="71.1767" rx="35.5884" stroke="#E8F4F7" stroke-width="5.1767"/>
<g clip-path="url(#clip0_1566_772)">
<path d="M44.2226 48.1557V51.8435C44.2226 53.6523 42.7675 55.1186 40.9722 55.1186H30.2361C28.441 55.1186 26.9856 53.6523 26.9856 51.8435V26.7826C26.9856 24.9736 28.441 23.5073 30.2361 23.5073H40.9722C42.7675 23.5073 44.2226 24.9736 44.2226 26.7826V28.901" stroke="#F8F8F8" stroke-width="1.2" stroke-linecap="round" stroke-linejoin="round"/>
<path d="M39.0059 31.4146H39.9455C40.4647 31.4146 40.8854 31.8385 40.8854 32.3616V35.1996C40.8854 37.0864 39.3534 38.6566 37.4809 38.6532C35.6069 38.6498 34.0891 37.1182 34.0891 35.2292V32.3616C34.0891 31.8385 34.5099 31.4146 35.029 31.4146H36.0612" stroke="#F8F8F8" stroke-width="1.2" stroke-linecap="round" stroke-linejoin="round"/>
<path d="M34.0479 24.8967H37.1604" stroke="#F8F8F8" stroke-width="1.2" stroke-linecap="round" stroke-linejoin="round"/>
<path d="M49.3936 40.3821C50.2228 40.3821 50.8951 39.7048 50.8951 38.8692C50.8951 38.0336 50.2228 37.3562 49.3936 37.3562C48.5643 37.3562 47.8921 38.0336 47.8921 38.8692C47.8921 39.7048 48.5643 40.3821 49.3936 40.3821Z" stroke="#F8F8F8" stroke-width="1.2" stroke-linecap="round" stroke-linejoin="round"/>
<path d="M37.4808 38.6533C38.2551 42.8511 41.8395 45.2861 44.7449 44.6818C47.6971 44.0676 48.9046 40.5324 48.9533 40.3822" stroke="#F8F8F8" stroke-width="1.2" stroke-linecap="round" stroke-linejoin="round"/>
</g>
<defs>
<clipPath id="clip0_1566_772">
<rect width="26" height="34" fill="white" transform="translate(25.5 22)"/>
</clipPath>
</defs>
</svg>
